<?xml version="1.0" encoding="UTF-8"?>
<svg id="Sketches" xmlns="http://www.w3.org/2000/svg" viewBox="0 0 92.28 142.22">
  <defs>
    <style>
      .cls-1 {
        fill: #40dd4f;
      }

      .cls-1, .cls-2, .cls-3, .cls-4, .cls-5, .cls-6, .cls-7, .cls-8 {
        stroke-width: 0px;
      }

      .cls-2 {
        fill: #333;
      }

      .cls-3 {
        fill: #4fc94f;
      }

      .cls-4 {
        fill: #d3d1d1;
      }

      .cls-5 {
        fill: #2d2b2b;
      }

      .cls-6 {
        fill: #664648;
      }

      .cls-7 {
        fill: #f2f2f2;
      }

      .cls-8 {
        fill: #5b4042;
      }
    </style>
  </defs>
  <g id="Alien">
    <g>
      <path class="cls-1" d="m92.28,125.38c-.11-.16-.26-.39-.45-.66-.24-.34-.58-.71-1.07-1.42-.56-.82-.86-1.35-1.52-1.56-.2-.06-.67-.21-1.02,0-.89.54.15,2.69-.51,4.16-.45,1-1.81,1.96-5.59,2.08-2.8-.26-5.04-.02-6.61.26-2.1.37-3.01.84-4.07.26-1.25-.68-1.26-2.02-2.67-4.49-.87-1.53-1.79-2.64-2.41-3.32,1.02-2.6-.13-5.33-1.52-7.42-1.1-1.64-2.2-2.85-3.05-3.51-.76-.96-2.89-3.93-3.05-8.33-.18-5.03,2.35-8.48,3.05-9.37,1.46-2.45,3.74-6.26,6.61-10.93,2.55-4.15,4.28-6.91,6.61-10.93,2.31-4,4.11-7.1,5.16-9.22.21-.02.4-.06.53-.08,2.88-.63,5.16-2,7.65-2.87.12-.04,1.16-.41,2.29-1.24.38-.28.89-.66.83-.8-.12-.26-2.15.39-3.9,1.19-1.69.78-2.69,1.5-2.77,1.39-.08-.11.66-.94,1.66-1.59,1.44-.94,2.57-.97,3.61-2.19.15-.17.43-.5.34-.65-.17-.28-1.66.4-2.43.74-1.6.72-2.75,1.44-2.78,1.39,0-.06,1.01-.63,2.15-1.74.65-.63.95-1.06,1.17-1.44.36-.63.76-1.63.54-1.8-.21-.15-.9.53-2.15,1.74-1.57,1.53-1.7,1.87-2.48,2.39-1.32.86-2.81,1.13-2.93.89-.18-.39,3.37-1.49,4.49-4.63.54-1.52.4-3.22.11-3.29-.25-.06-.55,1.09-1.37,2.59-1.43,2.63-3.57,4.75-4,4.48-.15-.1-.06-.47.93-4.09.6-2.2.75-2.71.51-3.34-.59-1.54-2.86-2.18-3.07-1.86-.18.26,1.15.84,1.7,2.2,1.47,3.66-4.45,8.77-3.12,11.19-1.06.92-2.2,2.09-3.16,3.34-1.87,2.41-1.83,3.46-4.07,7.29-.52.9-.96,1.58-5.08,7.29-5.9,8.16-6.64,9-7.62,8.85-2.53-.39-3.42-6.82-3.56-7.81-.21-1.53-.35-3.84.16-6.7,1.43-1.76,2.94-4.68,5.43-8.91,7.4-12.56,8.88-11.95,11.69-17.69,4.5-9.21,8.49-26.79,1.02-36.43C61.3-5.59,24.67-2.25,16.06,18.18c-4.85,11.5-.56,27.82,8.13,35.39,4.32,3.76,7.19,3.15,14.23,9.37,5.15,4.56,7.53,8.34,9.8,10.02,1.11,5.05,1.26,5.82,1.38,6.64.69,4.33.79,8.65,0,8.85-.21.05-.8-.12-1.02-.52-.07-.12-.08-.23-.08-.24-.06-.39-4.43-3.43-15.68-10.69-2.37-1.21-4.74-2.43-7.11-3.64-.81-.66-2.18-1.59-4.07-2.08-1.34-.35-2.8-.45-4.09-.35-.68-2.53-6.43-5.46-6.08-9.01.14-1.46,1.26-2.4,1.02-2.6-.3-.24-2.29,1.03-2.43,2.68-.06.67.22,1.11,1.41,3.04,1.96,3.18,2.15,3.51,2.03,3.64-.34.39-2.98-1.02-5.08-3.12-1.2-1.2-1.81-2.21-2.03-2.08-.26.15.07,1.82,1.02,3.12,1.94,2.67,5.66,2.7,5.59,3.12-.04.27-1.54.44-3.05,0-.89-.27-1.12-.55-3.05-1.56-1.53-.8-2.38-1.24-2.54-1.04-.17.21.5,1.06,1.02,1.56.32.31.73.62,1.52,1.04,1.41.73,2.54.98,2.54,1.04-.02.06-1.31-.3-3.05-.52-.84-.11-2.45-.32-2.54,0-.05.16.32.4.51.52,1.34.86,2.42.56,4.07,1.04,1.14.34,2.07.92,2.03,1.04-.05.14-1.21-.27-3.05-.52-1.89-.26-4.02-.28-4.07,0-.02.15.57.36,1.02.52,1.32.47,2.41.52,2.54.52,2.63.11,5.19.75,8.13.52.14-.01.33-.03.54-.08,2.03,1.06,5.94,2.52,11.14,5.28,4.45,2.37,7.92,4.66,10.16,6.25,1.7,1.19,3.62,2.73,5.59,4.68,1.64,1.63,2.98,3.23,4.07,4.68.92,1.24,2.46,4.01,2.54,7.81.09,4.11-1.73,7.13-2.54,8.33-.4.87-.77,1.92-1.02,3.12-.85,4.14.3,7.65,1.02,9.37.33.87,2.57,7.12-.51,10.93-1.16,1.44-2.67,2.01-5.59,3.12-1.01.39-4.09,1.48-8.13,1.56-3.2.07-5.82-.5-7.62-1.04-1.01-2.08-2.26-3.36-3.05-3.12-.91.28-1,2.55-1.02,3.12-.05,1.24-.1,2.86,1.02,3.64,1.2.84,2.87.09,3.05,0,3.02.55,7.02.95,11.69.52,3.14-.29,5.88-.9,8.13-1.56.3.12,3.29,1.3,6.1-.52,2.09-1.36,3.27-3.85,3.05-6.45-.34-3.4-.68-6.8-1.02-10.21.4-.37,1.19-1.24,1.52-2.6.59-2.44-.81-4.4-1.02-4.68h4.57c-.23,1.28-.34,3.05.51,4.68.73,1.41,1.81,2.02,2.54,2.6,1.49,1.19,3.14,3.58,3.56,8.85.46,1.84,1.34,4.23,3.05,4.68,1.51.4,2.72-.95,5.08-2.08,1.69-.81,4.32-1.69,8.13-1.56,1.69-.87,3.39-1.73,5.08-2.6,6.75-3.91,6.61-5.2,6.61-5.2ZM50.1,28.06c.56-6.02,5.61-12.56,11.18-11.97,5.5.59,8.82,7.86,8.64,13.53-.19,5.99-4.37,12.89-9.65,13.01-5.7.14-10.81-7.67-10.16-14.57Zm-15.75,18.21c-6.24.68-13.08-7.72-12.2-15.61.7-6.19,6.2-12.72,12.2-11.97,5.37.68,8.52,6.89,9.15,11.45.96,7.01-3.29,15.5-9.15,16.13Zm18.8,14.57c-.16,1.19-2.16,1.95-3.56,2.08-1.49.14-3.68-.32-4.07-1.56-.26-.85.59-1.23,2.03-4.16.85-1.72,1.05-2.61,1.52-2.6.51,0,.61,1.03,1.52,2.6,1.38,2.38,2.67,2.65,2.54,3.64Z"/>
      <path class="cls-7" d="m34.35,46.28c-6.24.68-13.08-7.72-12.2-15.61.7-6.19,6.2-12.72,12.2-11.97,5.37.68,8.52,6.89,9.15,11.45.96,7.01-3.29,15.5-9.15,16.13Z"/>
      <path class="cls-7" d="m69.92,29.62c-.19,5.99-4.37,12.89-9.65,13.01-5.7.14-10.81-7.67-10.16-14.57.56-6.02,5.61-12.56,11.18-11.97,5.5.59,8.82,7.86,8.64,13.53Z"/>
      <path class="cls-6" d="m53.15,60.85c-.16,1.19-2.16,1.95-3.56,2.08-1.49.14-3.68-.32-4.07-1.56-.26-.85.59-1.23,2.03-4.16.85-1.72,1.05-2.61,1.52-2.6.51,0,.61,1.03,1.52,2.6,1.38,2.38,2.67,2.65,2.54,3.64Z"/>
      <path class="cls-5" d="m40.25,35.99c-.48,2.96-3.11,6.27-6.16,6.31-3.96.05-6.77-5.46-7.65-8.59-1.05-3.74-.82-9.41,1.91-10.3,3.69-1.21,12.98,5.96,11.9,12.59Z"/>
      <path class="cls-5" d="m63.2,38.43c-2.45,1.65-6.6,1.93-8.7-.33-2.74-2.94-.71-8.8.94-11.59,1.96-3.33,6.17-7.02,8.67-5.58,3.38,1.94,4.57,13.8-.9,17.5Z"/>
      <path class="cls-4" d="m30.03,35.37c.04-1.62,1.2-3.59,2.81-3.84,2.1-.33,3.99,2.4,4.68,4.01.83,1.92,1.12,4.96-.26,5.65-1.87.93-7.32-2.19-7.23-5.82Z"/>
      <path class="cls-4" d="m56.82,29.76c1.37-.81,3.61-.83,4.67.45,1.37,1.66.08,4.74-.9,6.18-1.17,1.72-3.56,3.56-4.85,2.72-1.75-1.15-1.99-7.54,1.08-9.35Z"/>
      <path class="cls-2" d="m26.48,33.01c.2.76.42,1.34.51,1.56.15.38.35.86,1.02,2.08.76,1.41,1.15,2.12,1.52,2.6.67.85,1.32,1.39,1.65,1.67.58.48,1.11.91,1.15.81.09-.25-1.88-2.01-3.8-5.54-1.49-2.74-1.98-3.77-2.02-4.87-.04-.94.14-1.65.47-2.99.73-2.92,1.77-4.53,1.52-4.68-.19-.12-.99.69-1.52,1.56-.96,1.56-1,3.15-1.02,4.16-.03,1.6.3,2.86.51,3.64Z"/>
      <path class="cls-2" d="m66.62,31.45c-.47,2.37-1.52,3.93-2.03,4.68-.9,1.31-1.66,1.85-2.03,2.08-.41.25-.82.43-1.02.52-.63.27-1.67.65-1.73.51-.08-.16,1.34-.74,2.75-2.07.34-.32,1.62-1.57,2.54-3.64.32-.71,1.05-2.4,1.02-4.68-.02-1.37-.3-2.39-.51-3.12-.79-2.8-2.16-4.43-1.98-4.57.13-.1.92.67,1.52,1.56,1.02,1.49,1.28,2.96,1.47,4.05.15.9.42,2.56,0,4.68Z"/>
      <path class="cls-3" d="m16.31,39.77c2.58,7.63,7.39,11.94,8.64,13.01,3.04,2.6,6.32,4.24,6.54,3.93.33-.47-7.04-4.32-11.38-12.81-2.35-4.6-2.96-8.9-3.16-10.91-.17-1.79-.5-5.49.63-9.9.47-1.86,1.53-5.14,2.78-8.36.73-1.87,1.31-3.01,1.11-3.14-.3-.19-2.26,2.21-3.65,4.77-.57,1.04-1.7,3.32-2.41,6.75-1.77,8.53.72,16.17.89,16.67Z"/>
      <path class="cls-8" d="m47.31,58.51c-.23.32-.77,1.03-1.02,2.08-.16.66-.07.91,0,1.04.42.81,1.99.69,2.03.52.04-.17-1.44-.37-1.52-1.04-.05-.39.42-.49,1.02-1.56.04-.08.02-.04.51-1.04.48-.98.46-.94.51-1.04.38-.85.67-2,.51-2.08-.18-.08-.6,1.18-2.03,3.12Z"/>
      <path class="cls-3" d="m48.33,108.99c-.14-.06-1.33,1.75-2.03,4.16-.14.49-.86,3.04-.51,6.25.14,1.27.4,2.24.51,2.6.3,1.06.68,1.93,1.02,2.6.17.63.38,1.52.51,2.6.1.86.37,2.69,0,4.16-.86,3.37-4.2,5.01-4.07,5.2.11.15,2.21-.6,3.56-2.6,1.55-2.3,1.26-5.01,1.02-7.29-.35-3.28-1.17-3.53-1.52-7.29-.11-1.15-.24-2.7,0-4.68.43-3.46,1.69-5.65,1.52-5.72Z"/>
      <path class="cls-3" d="m53.01,116.27c.05-.03.62.65.91,1.56.35,1.11.12,2.08,0,2.6-.36,1.54-1.27,2.65-1.36,2.6-.08-.04.32-.98.34-1.04.21-.5.33-.66.51-1.04.26-.55.47-1,.51-1.56.04-.57-.14-1.08-.51-2.08-.25-.69-.43-1.02-.4-1.04Z"/>
      <path class="cls-3" d="m18.35,74.64c-.03.4,3.05,1.04,3.05,1.04,3.96,2.25,6.35,3.55,6.35,3.55,1.3.71,1.95,1.06,2,1.09,1.31.71,1.43.77,2.03,1.12.49.29,2.72,1.65,5.51,3.84,4.26,3.35,4.84,4.84,8.94,8.7.55.52,1.85,1.73,2.43,3.39.25.72.47,1.57.47,1.57.25.97.46,2.09.46,2.09,0,0-.01.55-.04,1.56-.07.98-.13,2.07-.05,2.08.11.01.72-1.92.6-4.15-.2-4-2.63-6.8-3.34-7.61-.13-.15-.25-.28-.5-.54-1.65-1.75-3.04-2.97-3.98-3.81-2.44-2.19-2.01-2.02-3.48-3.27-1.9-1.61-3.5-2.64-4.5-3.28-2.45-1.57-2.83-1.49-7.04-3.86-1.61-.91-2.48-1.52-4.23-2.39-1.38-.68-2.55-1.17-3.32-1.48-1.01.1-1.36.22-1.36.35Z"/>
      <path class="cls-3" d="m49.85,80.89c.47,3.17.16,1.92.51,4.68.05.41.12.91,0,1.56-.17.93-.61,1.49-.51,1.56.1.07.7-.37,1.02-1.04.37-.79.2-1.52,0-2.6-.22-1.21-.33-2.43-.51-3.64-.25-1.68-.38-2.53-.51-3.64-.06-.5-.19-1.65-.51-3.12-.2-.94-.32-1.25-.51-1.56-.71-1.17-1.98-1.64-2.03-1.56-.02.03.1.1,1.02,1.04l.51.52h0c.53,2.33.75,3.29,1.02,4.68.2,1.08.32,1.83.51,3.12Z"/>
      <path class="cls-3" d="m48.33,73.08l-.51-.52h0"/>
      <path class="cls-3" d="m82.37,131.89c.05.1-.74.81-1.85,1.08-1.02.25-1.37-.1-2.72-.04-.7.03-1.31.19-2.54.52-1.35.36-2.11.56-3.05,1.04-1.21.62-1.18.91-2.54,1.56-1.76.84-2.35.61-2.54.52-.35-.17-.59-.48-1.02-1.04-.34-.45-.63-.82-.51-1.04.13-.23.7-.26,1.02,0,.28.23.17.54.51,1.04.04.06.26.38.51.52.53.29,1.25-.26,2.54-1.04,1.09-.66,1.95-1.17,3.05-1.56.47-.17.99-.29,2.03-.52,1.42-.32,2.13-.48,3.05-.52,1.09-.05,1.15.12,2.03,0,1.24-.17,1.99-.61,2.03-.52Z"/>
      <path class="cls-3" d="m20.89,139.17c.07.55.15,1.06.51,1.56.18.25.37.42.51.52.21.19.55.45,1.02.52.88.13,1.1-.57,2.03-.52.62.03.81.36,2.03.52.46.06.5.02.51,0,.06-.16-.92-1.03-2.03-1.04-.96,0-1.17.64-2.03.52-.88-.13-1.43-.91-1.52-1.04-.34-.49-.41-.97-.51-1.56-.07-.47-.13-1.19,0-2.08l.51-1.56c-.08.03-.86.32-1.02,1.04-.04.2-.03.38,0,.52v1.04c-.08.65-.05,1.19,0,1.56Z"/>
      <path class="cls-3" d="m51.37,89.73c-.11.04-.39.19-.51,1.56-.16,1.93.29,2.97.51,4.68.13,1.04.08,1.91,0,3.64-.02.44-.11,2.25-.51,4.68-.44,2.68-.9,3.95-.51,4.16.32.18,1.05-.42,1.52-1.04.72-.95,1.24-2.41.51-10.41-.13-1.46-.22-2.13,0-3.12.27-1.21.73-1.73.51-2.6-.23-.91-1.07-1.71-1.52-1.56Z"/>
      <path class="cls-3" d="m57.98,89.73c-.36.09-.41.91-.51,1.56-.44,2.99-1.79,3.3-2.03,5.72-.11,1.06.19.62.51,3.64.27,2.56.4,3.84,0,5.2-.56,1.89-1.71,2.86-1.4,3.21.24.28,1.25.03,1.91-.61,1.4-1.36,1-4.27.51-7.81-.22-1.62-.49-2.73,0-4.16.19-.55.25-.45,1.02-2.08,1.14-2.42,1.21-3.07,1.02-3.64-.2-.58-.69-1.12-1.02-1.04Z"/>
    </g>
  </g>
</svg>