<?xml version="1.0" encoding="UTF-8"?>
<svg id="Sketches" xmlns="http://www.w3.org/2000/svg" viewBox="0 0 92.27 56.78">
  <defs>
    <style>
      .cls-1 {
        fill: none;
      }

      .cls-1, .cls-2 {
        stroke: #000;
        stroke-miterlimit: 10;
      }

      .cls-3 {
        fill: #ce0b0b;
      }

      .cls-3, .cls-4, .cls-5 {
        stroke-width: 0px;
      }

      .cls-4 {
        fill: #e8cc25;
      }

      .cls-2 {
        fill: #ea1313;
      }

      .cls-5 {
        fill: #f2da2f;
      }
    </style>
  </defs>
  <path class="cls-2" d="m90.58,12.83c2.4,2.25.76,7.98-1.36,15.4-2.4,8.39-4.6,10.14-4.58,14.95.02,5.14,2.57,9.58,5.54,13.09-16.45-.02-21.71-1-21.84-2.27-.13-1.26,4.81-2.61,4.59-3.45-.26-1.01-7.54.04-12.41.71-24.52,3.38-27.08,2.72-27.35,1.88-.49-1.51,6.2-4.18,5.74-5.76-.51-1.74-9.29-.82-20.23,1.01-5.68,4.49-8.06,4.57-9.18,3.86-1.58-.99-.96-3.7-2.08-8.5-.87-3.72-2.28-6.57-3.3-8.33-.68-5.95-1.35-11.91-2.03-17.86-.41-.97-3.48-8.42.21-13.1C3.88,2.46,6.33,1.42,11.4.84,16.55.25,25.12.05,36.09,3.49c-1.38,5.26-.61,7.37.47,8.27,3.8,3.16,13.04-7.24,27.12-6.02,4.66.4,10.42,2.13,10.81,4.81.39,2.64-4.59,5.12-4.13,5.98.82,1.54,15.91-7.75,20.22-3.71Z"/>
  <path class="cls-1" d="m72.31,50.23c-1.6-3.93-3.63-10.39-3.57-18.63.05-6.18,1.26-11.33,2.42-14.94"/>
  <path class="cls-3" d="m10.75,47.72c-.23-.45-.64-.74-.09-.93.43-.15.96-.06,2.21-.26,1.05-.17,1.83-.41,2.55-.62,1.08-.31,2.42-.62,5.1-1.24,5.65-1.3,10.16-1.55,12.07-2.38.14-.06.47-.22.72-.24.55-.06.3.54,0,.94-.43.58-.93,1.27-2.72,1.89-.8.28-2.37.56-5.48,1.13-2.96.53-3.34.55-4.76.88-1.27.3-1.37.38-3.99,1.1-2.98.82-4.48,1.23-5.1,1.24-.96,0-.02-.53-.52-1.5Z"/>
  <path class="cls-3" d="m2.36,8.76c.15-.94.45-2.77,1.6-4.18,1.01-1.24,2.21-1.57,12.24-1.98,3.21-.13,4.87-.17,7.17.15,1.22.17,2.3.42,4.47.9,2.27.51,5.84,1.31,5.81,1.55-.03.26-4.23-.9-9.85-.52-4.4.3-3.86,1.15-10.33,2.06-4.65.66-6.27.4-7.82,2.03-2.22,2.33-1.87,5.94-2.53,5.87-.6-.06-1.23-3.07-.77-5.89Z"/>
  <path class="cls-3" d="m37.04,51.97c-.13-.46,2.37-1.67,4.73-2.38.58-.17.95-.26,2.35-.56,1.92-.42,3.58-.79,4.91-1.07,3.52-1.17,6.57-1.54,8.73-1.65.85-.04,3.55-.15,6.99.43.27.05,4.85.82,4.8,1.39-.04.45-2.85.27-8,1.01-.69.1-2.66.47-6.6,1.21-6.06,1.14-5.91,1.14-6.6,1.21-4.58.43-6.31-.32-8.1.37-.01,0-1.25.48-2.7.25-.45-.07-.51-.15-.53-.2Z"/>
  <path class="cls-3" d="m37.57,29.7c-.19-.5,2.16-2.32,2.27-2.41,3.03-2.34,5.88-2.95,6.56-3.08,1.65-.33,3.58-.2,7.43.04,2.34.15,3.51.22,5.1.48,4.55.74,8.57,2.32,8.57,2.64,0,.32-3.97-.98-10.08-1.03-2.7-.03-4.88.2-5.86.32-2.26.27-3.96.64-4.41.75-3.92.88-7.37,1.92-7.37,1.92-1.23.37-2.1.65-2.21.37Z"/>
  <path class="cls-3" d="m40.13,16.3c-.12-.4,1.28-1.57,2.37-2.26,1.38-.88,3.25-1.63,6.49-1.66,3.03-.03,3.11.62,6.48.74,3.35.12,3.51-.51,5.92-.34,4.64.33,8.28,2.97,8.25,3.24-.03.3-4.44-2.74-9.83-1.73-1.6.3-2.31.77-4.44.9-3.08.19-2.86-.72-5.71-.53-1.62.11-3.52.55-7.34,1.42,0,0,0,0,0,0-1.23.29-2.1.51-2.19.22Z"/>
  <path class="cls-3" d="m73.33,53.21c-.02-.22.64-.43,1.95-.85.47-.15.72-.23,1.02-.3.35-.08,1.61-.35,3.65,0,1.13.2.99.32,2.88.78,1.97.47,2.53.43,2.56.64.06.4-1.89,1.29-4.09.89-.69-.12-.62-.23-1.44-.39-1.59-.3-2.1.07-3.65,0-1.34-.07-2.85-.44-2.88-.78Z"/>
  <path class="cls-3" d="m69.82,33.81c-.02-.27-.05-.6-.07-1.06-.04-.74-.12-3.13.37-6.3.27-1.73.6-2.99.88-4,.57-2.12,1.36-5.08,1.76-5,.63.13.05,7.89-1,10.85-.05.14-.23.64-.4,1.34-.41,1.64-.42,2.98-.42,3.57,0,4.1.29,7.21.1,7.24-.19.03-.93-3.09-1.22-6.65Z"/>
  <path class="cls-3" d="m75.24,16.71c-.19-.83,6.07-2.49,8.95-3.25,2.12-.56,4.03-.97,5.05.25.87,1.05,1.11,2.51,1.11,2.51.02.14.07.5.05,1.23-.05,1.52-.41,3.68-.86,3.65-.28-.02-.52-.9-.74-1.7-.2-.71-.29-1.31-.32-1.82-.13-2,.14-2.34-.19-2.69-.54-.56-1.51.28-4.09.56-2.03.22-2.48-.19-3.81.35-.99.4-1.11.8-2.1,1.06-1.31.35-2.94.26-3.03-.15Z"/>
  <path class="cls-5" d="m35.86,39.02c-4.32-3.07-6.56-3.12-7.81-2.46-1.44.76-1.71,2.54-4.16,3.64-1.43.64-2.25.45-2.54,1.08-.53,1.17,1.36,3.91,3.42,4.06,2.54.19,3.35-3.85,5.93-3.68,1.57.1,1.97,1.63,5.76,3.07.24.09.43.16.6.23l.12-3.64v-1.86,1.86l.07-2.1c-.55-.04-1.02-.12-1.39-.19Z"/>
  <path class="cls-5" d="m56.92,38.26c-.54-3.66,5.03-4.81,5.86-10.1.82-5.2-3.84-10.29-7.54-12.62-2.11-1.33-5.28-2.61-5.86-1.85-1.16,1.52,9.5,9.18,7.68,13.51-.75,1.79-3.37,2.39-5.16,2.64-3.35-2.63-6.7-5.26-10.05-7.89.93-.98,1.86-1.95,2.79-2.93-.03-.77-.2-2.59-1.47-3.45-1.52-1.04-3.72-.08-5.49.88-.5,2.66-1,5.33-1.5,7.99,6.82,1.66,10.13,6.64,9.25,9.4-.73,2.3-4.64,3.93-9.25,3.6.13,1.83.25,3.67.38,5.5.24.09.44.15.68.21,5.26,1.24,8.63-3.91,12.7-1.98.99.47.45.62,3.28,3.17,3.3,2.98,5,4.49,7.19,4.4,1.81-.08,4.05-1.1,4.26-2.5.4-2.69-7.13-3.84-7.74-7.99Z"/>
  <path class="cls-1" d="m38.19,46.45c-1.44-3.92-3.16-10.4-2.53-18.84.47-6.34,2.12-11.69,3.6-15.47"/>
  <path class="cls-3" d="m8.8,43.94c-1.57-2.25-2.01-4.51-2.18-5.46-.63-3.37-1.01-5.99-1.09-6.55-.92-6.26-1.02-6.02-1.09-7.64-.11-2.57.15-2.83,0-6.55-.09-2.23-.23-3.22,0-3.28.4-.1,1.65,2.58,2.18,5.46.57,3.08-.27,3.25,0,6.55.38,4.65,2.4,8.79,2.4,12.96h0c0,3.36,1.17,5.45.87,5.61-.13.07-.53-.28-1.09-1.09Z"/>
  <path class="cls-4" d="m31.18,37.28c-.02.08-.27.01-1.67,0-.51,0-.76,0-.84,0-1.46.13-2.41,1.75-2.51,1.67-.06-.05.28-.65.84-1.26.57-.62,1-1.09,1.67-1.26,1.27-.31,2.56.65,2.51.84Z"/>
  <path class="cls-4" d="m22.19,42.45c.13-.05.32.23,1,1,.53.6.8.9,1,1,.76.39,1.59.06,1.65.25.03.1-.2.27-.41.37-1.03.46-2.81-.37-3.23-1.62-.15-.42-.15-.94,0-1Z"/>
  <path class="cls-4" d="m37.19,38.45c.13-.09.65.27.81.81,0,.03.01.05.02.07.26.98.29,1.5.3,1.74.01.32.05,1.33-.13,1.38-.32.1-.82-2.68-1.02-3.77-.01-.08-.03-.19.02-.23Z"/>
  <path class="cls-4" d="m61.06,47.81c-.02-.11.29-.25,1.17-.77.68-.4,1.03-.61,1.17-.77.53-.63.38-1.38.57-1.41.1-.01.22.2.27.39.24.94-.92,2.4-2.2,2.65-.44.09-.94.04-.97-.1Z"/>
  <path class="cls-4" d="m51.72,14.62c.01.11-.67.23-.76.45-.12.29.91.42.81.59-.07.13-.54.31-.95.14-.42-.18-.68-.69-.67-1.31,1.25,0,1.56.07,1.57.14Z"/>
  <path class="cls-4" d="m41.19,15.45c.13-.18,1.23.21,2,1,.72.74.93,1.61,1,2-.67,1-1.33,2-2,3-.19-.09-.42-.25-.5-.5-.23-.77,1.35-1.37,1.5-2.5.19-1.47-2.2-2.72-2-3Z"/>
  <path class="cls-4" d="m31.28,30.28c.13.16-.43,1.13-1.1,1.17-.62.04-1.36-.72-1.55-1.94.07-.78.13-1.56.2-2.33.14,0,.32,0,.44.13.33.32-.25,1-.07,1.89.11.53.48,1.12.98,1.25.55.15,1-.3,1.1-.17Z"/>
  <path class="cls-4" d="m61.19,24.45c0-.33,0-.67,0-1h0s1,1.99,1,2c.81,2.32.44,4.68-1,6-.63.58-1.37.86-2,1,1.35-1.15,1.82-2.23,2-3,.33-1.43,0-3.25,0-5Z"/>
  <path class="cls-3" d="m34.32,26.03c-.2.08-.57-.51-1.31-1.68-.26-.42-.4-.64-.55-.91-.17-.32-.74-1.47-.91-3.53-.09-1.15.06-1.04.03-2.98-.04-2.02-.22-2.56-.02-2.64.37-.16,1.72,1.51,1.89,3.73.05.7-.07.66-.01,1.49.11,1.61.6,2.01.91,3.53.27,1.31.29,2.87-.03,2.98Z"/>
  <path class="cls-5" d="m36.19,20.46c-.33.18-.65.36-.94.53-3.23,1.84-7.63,5.74-6.83,8.93.04.17.35,1.41,1.19,1.65,1,.29,1.83-1.11,4.47-2.23.46-.19,1.09-.46,1.6-.56.16-.03.34-.03.51-.03v-8.29Z"/>
  <path class="cls-4" d="m45.3,40.53s.05.09.57.13c.84.07,1.49,0,1.73-.04.97-.11,1.46-.17,1.68-.13,1.39.24,1.85,1.78,2.51,1.59.33-.1.54-.57.5-.95-.09-.95-1.79-1.64-3.11-1.68-.64-.02-1.23.13-2.4.47-.52.15-1.51.44-1.48.61Z"/>
</svg>