<?xml version="1.0" encoding="UTF-8"?>
<svg xmlns="http://www.w3.org/2000/svg" viewBox="0 0 1920 1080">
  <defs>
    <style>
      .cls-1 {
        fill: #36427f;
      }

      .cls-1, .cls-2, .cls-3, .cls-4, .cls-5, .cls-6, .cls-7, .cls-8, .cls-9, .cls-10, .cls-11, .cls-12, .cls-13, .cls-14, .cls-15, .cls-16, .cls-17, .cls-18, .cls-19, .cls-20 {
        stroke: #000;
        stroke-miterlimit: 10;
      }

      .cls-21 {
        fill: #716e77;
      }

      .cls-21, .cls-22, .cls-23, .cls-24, .cls-25, .cls-26, .cls-27, .cls-28, .cls-29, .cls-30, .cls-31, .cls-32, .cls-33, .cls-34, .cls-35, .cls-36, .cls-37, .cls-38, .cls-39, .cls-40, .cls-41, .cls-42, .cls-43, .cls-44, .cls-45 {
        stroke-width: 0px;
      }

      .cls-2 {
        fill: #7a7084;
      }

      .cls-22, .cls-4 {
        fill: #ea2828;
      }

      .cls-3 {
        fill: none;
      }

      .cls-23 {
        fill: #fff03b;
      }

      .cls-24 {
        fill: #c1b991;
      }

      .cls-25 {
        fill: #4acad8;
      }

      .cls-27 {
        fill: #cebf80;
      }

      .cls-28 {
        fill: #75717f;
      }

      .cls-29 {
        fill: #915d36;
      }

      .cls-30 {
        fill: red;
      }

      .cls-5 {
        fill: #6d4b2f;
      }

      .cls-6 {
        fill: #eef24c;
      }

      .cls-7 {
        fill: #efef3c;
      }

      .cls-31 {
        fill: #ede43e;
      }

      .cls-32 {
        fill: #f7f78d;
      }

      .cls-8 {
        fill: #c1b665;
      }

      .cls-9 {
        fill: #487cef;
      }

      .cls-33 {
        fill: #f7f5f5;
      }

      .cls-34 {
        fill: #8291d1;
      }

      .cls-35, .cls-15 {
        fill: #fff;
      }

      .cls-10 {
        fill: #1b8ea8;
      }

      .cls-36 {
        fill: #55a3d8;
      }

      .cls-37 {
        fill: #e5e138;
      }

      .cls-11 {
        fill: #a0049c;
      }

      .cls-12 {
        fill: #09d898;
      }

      .cls-13 {
        fill: #615d66;
      }

      .cls-38 {
        fill: #ff9700;
      }

      .cls-14 {
        fill: #f43737;
      }

      .cls-39 {
        fill: #f4b434;
      }

      .cls-40 {
        fill: #f9f438;
      }

      .cls-41 {
        fill: #fff800;
      }

      .cls-42 {
        fill: #ef5454;
      }

      .cls-43 {
        fill: #9e9ecc;
      }

      .cls-44 {
        fill: #e8e8e8;
      }

      .cls-16 {
        fill: #8a72d6;
      }

      .cls-45 {
        fill: #b1b1dd;
      }

      .cls-17 {
        fill: #3263b2;
      }

      .cls-18 {
        fill: #afa777;
      }

      .cls-19 {
        fill: #666075;
      }

      .cls-20 {
        fill: #bfafef;
      }
    </style>
  </defs>
  <g id="Baggrund_færdige_spilside_" data-name="Baggrund (færdige spilside)">
    <path class="cls-1" d="m1920.23,1077.85H-.23V.15h1920.47v1077.71Z"/>
  </g>
  <g id="Spilskærm">
    <g id="Atmosfære">
      <g>
        <path class="cls-34" d="m1833.96.4c-48.63,49.34-135.63,124.56-274.57,188.39-73.06,33.56-174.57,80.19-322.58,93.67-68.7,6.25-276.32,25.15-439.61-74.72C678.76,135.27,647.48,39.36,638.17.4h346.58c-54.95,73.3-67.45,123.47-37.51,150.5,65.18,58.84,331.45,8.06,798.83-152.33,29.29.61,58.59,1.22,87.88,1.83Z"/>
        <path class="cls-34" d="m1920.98,743.43v51.57c-300.91-83.67-511.76-73.34-652.66-45.26-97.28,19.39-171.09,49.21-310.58,52.62-164.6,4.03-251.72-32.85-381.09-53.67-128.88-20.75-318.72-28.64-576.14,34.73-.5-13.33-1-26.66-1.5-39.99,270.89-112.01,459.44-114.21,583.64-93.67,115.75,19.14,236.28,68.07,387.09,35.78,82.57-17.68,121.91-48.5,162.04-67.36,109.43-51.42,324.63-60.81,789.19,125.24Z"/>
        <path class="cls-34" d="m264.58,1078.1h-111.03c15.84-34.56,3.05-72.2-33.01-96.83-48.85-33.36-114.28-25.01-120.03-24.21v-66.3c17.77-4.19,92.4-20.22,163.54,6.31,81.59,30.44,125.45,104.51,100.52,181.02Z"/>
        <path class="cls-34" d="m1643.42,392.43c14.58,27.39,74.43,43.86,96.02,32.63,29.56-15.38-29.35-73.99,4.5-110.51,28.31-30.54,107.47-30.51,177.04-24.21v-44.2c-26.29-2.64-64.76-3.84-107.28,5.26-103.55,22.16-193.56,97.33-170.29,141.03Z"/>
        <path class="cls-34" d="m695.19,496.1c-14.62,15.9-152.63-59.76-408.1-84.2-117.3-11.22-217.03-7.59-286.57-2.1C.02,366.65-.48,323.5-.98,280.35c66.62-6.59,160.23-9.83,266.31,7.37,266.42,43.19,447.88,188.79,429.85,208.38Z"/>
      </g>
    </g>
    <g id="Måne">
      <path class="cls-2" d="m1794.81,1079.36c-93.98-83.12-152.63-119.32-189.69-136.69-8.08-3.79-30.42-13.84-58.63-30.24-43.89-25.51-46.69-34.23-77.6-52.01-36.39-20.94-70.11-30.31-120.71-44.76-48.24-13.77-87.52-20.46-103.47-22.98-60.15-9.52-114.19-11.32-182.79-9.68-78.04,1.87-179.27,4.29-315.57,27.82-219.96,37.98-318.85,94.27-332.82,106.45-1.5,1.3-9.25,8.41-22.42,15.73-17.34,9.63-33.47,13.75-36.21,14.52-19.46,5.42-67.14,37.69-175.89,133.06,538.6-.4,1077.2-.81,1615.81-1.21Z"/>
      <path class="cls-3" d="m1068.82,780.58c4.42,9.01,2.3,17.71-5.17,21.77-1.61.87-4.35,2.01-8.62,2.42"/>
      <path class="cls-13" d="m635.15,1024.97c3.7,12.52,6.89,14.82,5.17,21.77-1.41,5.72-4.45,7.76-8.62,16.93-2.96,6.52-4.41,12.05-5.17,15.73h-184.52c-20.12,0-40.47-2.14-60.36,0-8.55.92-14.8,2.04-22.42,0-15.63-4.19-21.63-17.59-22.42-19.35-13.41-29.98,49.23-79.67,115.02-99.55,20.41-6.17,36.68-8.12,47.08-9.32,27.71-3.2,64.09-7.39,82.77,6.05,9.47,6.81,5.33,11.64,18.97,21.77,13.19,9.81,20.34,7.73,27.59,15.73,6.84,7.55.87,9.83,6.9,30.24Z"/>
      <path class="cls-19" d="m387.68,968.69c5.03-2.58,3.7-13.73-2.23-15.14-5.17-1.23-12.79,5.18-16,10.28-3.14,4.98-3.88,11.58-.75,12.71,2.31.83,6.74-1.28,8.62-2.42,2.24-1.35,2.49-2.31,5.17-3.63,2.58-1.27,3.88-1.13,5.19-1.8Z"/>
      <path class="cls-19" d="m454.91,912.43c2.23-7.85,2.19-8.16,1.72-8.47-3.53-2.3-20.5,3.05-27.49,12.81-4.25,5.93-5.41,14.34-.96,16.23,2.49,1.06,6.91.17,9.48-1.22,3.21-1.74,3.27-4.13,8.14-6.5,1.39-.68,1.34-.46,2.37-.99,3.82-1.95,4.8-5.06,6.73-11.87Z"/>
      <path class="cls-19" d="m661.85,876.14c-3.76-3.18-10.84-3.35-15.52-2.42-5.5,1.1-6.35,3.46-15.52,10.89-10.99,8.89-15.77,10.35-15.52,14.52.18,3.07,3.03,6.51,6.9,7.26,4.38.84,7.23-2.32,17.24-7.26,13.74-6.78,18.74-5.94,22.42-10.89,2.34-3.15,4.11-8.62,0-12.1Z"/>
      <path class="cls-19" d="m794.63,978.96c.5-2.4-.17-6.36-3.45-7.26-3.32-.91-7.58,2.59-10.35,4.84-2.81,2.28-6.5,5.28-5.17,7.26,1.64,2.44,10.67,3.04,15.52,0,2.75-1.72,3.29-4.08,3.45-4.84Z"/>
      <path class="cls-19" d="m986.04,1034.6c9.85-6.98,14.77-10.47,13.8-12.1-2.59-4.32-31.39-4.1-48.28,7.26-10.39,6.99-16.68,18.46-12.07,21.77,3.98,2.86,15.51-.78,20.69-2.42,9.54-3.01,15.26-7,25.87-14.52Z"/>
      <path class="cls-19" d="m932.59,813.24c4.19-6.16,6.03-7.46,6.9-10.89.49-1.92.73-2.88,0-3.63-2.48-2.53-12.45-1-18.97,1.21-6.3,2.13-17.2,7.55-15.52,12.1,1.96,5.3,20.42,7.83,25.87,3.63.4-.31.29-.32,1.72-2.42Z"/>
      <path class="cls-13" d="m968.8,890.65c-.43.81-1.41,1.44-2.85,1.92-8.57,2.9-32.87.41-43.71-.71-31.8-3.27-75.36-12.99-74.15-20.56,1.02-6.45,34.63-11.52,63.8-7.26,31.82,4.64,60.03,20.59,56.91,26.61Z"/>
      <path class="cls-13" d="m692.89,810.82c.8,2.19,1.37,8.37-29.32,24.19-27.04,13.94-56.29,29.02-77.6,21.77-2.42-.82-9.05-3.08-10.35-7.26-2.1-6.77,13.52-14.69,44.84-30.24,2.29-1.14,18.06-8.86,39.66-14.52,7.35-1.92,14.95-3.49,22.42-1.21.7.21,8.71,2.74,10.35,7.26Z"/>
      <path class="cls-13" d="m1196.43,786.63c-22.68,5.81-42.14,7.09-44.84,7.26-27.11,1.66-40.82,2.46-48.28,1.21-6.79-1.14-20.33-2.65-30.07-9.89-4.27-3.17-4.51-4.91-4.42-5.84.23-2.21,3.33-5.23,25.87-10.89,12.28-3.08,35.27-8.64,65.53-6.05,8.3.71,20.28,2.3,32.76,7.26,5.17,2.05,16.43,6.52,15.52,10.89-.59,2.86-6.15,4.53-12.07,6.05Z"/>
      <path class="cls-19" d="m1108.48,910.01c3.31,7.82,20.3,10.61,29.32,12.1,18.63,3.06,30.34.76,74.15-6.05,47.26-7.35,58.16-8.48,67.25-16.93,1.73-1.61,11.78-11.27,8.62-22.98-4.05-15.03-26.67-21.7-31.04-22.98-17.67-5.2-33.62-2.64-50.01,0-36.54,5.88-59.09,20.29-72.43,29.03-14.84,9.73-29.47,19.32-25.87,27.82Z"/>
      <path class="cls-13" d="m1344.73,997.1c5.3,7.58,53.87-2.95,79.32-8.47,23.14-5.02,42.46-10.65,56.91-22.98,3.12-2.66,11.99-10.23,8.62-14.52-1.19-1.51-4.91-3.89-24.14-2.42-16.98,1.3-32.18,4.53-63.8,14.52-25.8,8.15-33.64,11.66-41.39,16.93-6.22,4.23-18.54,12.61-15.52,16.93Z"/>
      <path class="cls-3" d="m717.03,825.33c-4.05-.8-9-2.24-13.8-4.84-4.08-2.21-6.42-4.38-6.9-4.84-2.94-2.78-4.41-5.47-5.17-7.26"/>
      <path class="cls-3" d="m974.83,909.4c-1.02-.11-5.75-.73-8.6-4.13-3.12-3.71-2.73-9.21,1.23-13.41"/>
      <path class="cls-3" d="m818.77,883.4c1.93.21,11.96,1.13,20.69-3.63,5.46-2.98,7.75-6.73,8.62-8.47"/>
      <path class="cls-3" d="m570.45,884.61c4.63-2.4,6.5-5.1,7.24-6.4,2.95-5.2.51-10.35,0-11.42-1.33-2.81-2.83-3.56-3.62-6.63-.63-2.45-.34-4.55,0-5.92.46-1.18.91-2.37,1.37-3.55"/>
      <path class="cls-3" d="m1313.69,1038.23c5.32-.44,13.54-1.76,20.69-6.05,13.02-7.8,17.12-22.17,10.35-36.29"/>
      <path class="cls-3" d="m1534.42,972.91c-1.9.42-14.89,3.1-27.59-2.42-13.2-5.74-15.28-15.63-15.52-16.93"/>
      <path class="cls-19" d="m1477.51,914.85c1.07-1.5,2.94-4.12,1.49-6.8-.88-1.62-2.58-2.54-3.22-2.87-4.09-2.14-11.34-2.5-15.75.45-4.15,2.78-3.42,6.9-3.22,8.01.56,3.14,3.41,7.97,8.62,8.47,6.44.62,11.09-5.88,12.07-7.26Z"/>
      <path class="cls-19" d="m1246.2,984.25c3.68-4.88,5.66-5.82,5.41-7.71-.29-2.09-3.05-3.43-3.45-3.63-4.29-2.09-10.12-.52-12.07,0-11.57,3.1-19.62,14.58-15.52,18.14,3.85,3.35,19.61.78,23.91-4.38.47-.56.48-.77,1.72-2.42Z"/>
      <path class="cls-19" d="m1622.36,1018.88c-.98-2.97-7.31-4.71-12.07-4.84-11.91-.31-23.01,9.31-20.69,13.31,1.65,2.85,10.25,3.12,15.52,2.42,9.21-1.22,18.62-6.74,17.24-10.89Z"/>
      <path class="cls-3" d="m1229.19,803.56c-3.03-.9-7.8-2.68-12.07-6.05-7.86-6.2-8.54-13.44-8.62-15.73"/>
      <path class="cls-2" d="m699.41,819.44c-4.5.7-9,1.4-13.5,2.1,2.55-2.52,7.46-7.37,7.47-7.37,0,0,0,0,0,0s.01,0,.02,0c.02,0,5.44,4.77,6,5.26Z"/>
      <path class="cls-2" d="m1197.53,786.82c1.97.46,4.51.9,7.5,1.05,1.65.08,3.17.07,4.5,0-.5-2.1-1-4.21-1.5-6.31-3.5,1.75-7,3.51-10.5,5.26Z"/>
      <path class="cls-21" d="m677.18,816.32c.81,2.28-1.16,5.81-26.29,17.87-39.67,19.05-48.58,16.91-51.73,15.8-.5-.18-6.91-2.49-7.5-6.31-.75-4.83,10.39-9.86,32.7-19.73.08-.03,7.66-2.92,22.81-8.69,8.28-3.15,12.53-4.72,18-4.21,4.27.4,10.9,2.15,12,5.26Z"/>
      <path class="cls-21" d="m947.25,885.78c-1.63,2.95-17.78,1.09-32.94-.72-18.46-2.2-49.7-5.93-49.58-10.86.06-2.41,7.56-4.11,12.16-5.15,11.97-2.71,22.28-1.08,34.35.94,16.83,2.82,24.5,6.76,27.06,8.16,3.45,1.89,10.11,5.53,8.95,7.63Z"/>
      <path class="cls-21" d="m591.66,1065.75c-26.82,10.93-49.6.65-94.52-2.1-74.78-4.59-106.95,18.05-127.53,3.16-15.66-11.33-9.71-33.65-1.5-46.31,11.54-17.78,36.36-25.43,85.52-39.99,49.41-14.64,77.72-23.03,97.52-13.68,14.58,6.88,15.32,19.02,37.51,25.26,12.45,3.5,21.04,2.17,25.51,7.37,4.88,5.68-2.77,10.29-1.5,23.15,1.05,10.65,6.71,11.71,6,18.94-1.34,13.67-24.22,23.07-27.01,24.21Z"/>
      <path class="cls-21" d="m1190.31,778.43c-.26,2.95-11.73,4.61-31.51,7.37-27.93,3.89-39.69,3.37-43.51,3.16-5.17-.29-27.5-1.54-28.51-6.31-.69-3.28,8.98-6.78,13.5-8.42,13.17-4.77,25.34-5.03,42.01-5.26,18.01-.25,26.05,1.24,30.01,2.1,3.72.81,18.3,3.99,18,7.37Z"/>
      <path class="cls-21" d="m1473.88,959.45c.69,2.14-5.47,4.69-40.51,16.84-22.01,7.63-30.54,10.43-43.51,12.63-6.93,1.18-26.22,4.44-28.51,1.05-2.27-3.37,13.19-11.85,22.1-15.95,6.84-3.15,15.74-5.61,33.25-10.4,22.38-6.12,30.48-7.62,40.68-7.33,4.29.12,15.63.45,16.5,3.16Z"/>
      <path class="cls-28" d="m656.41,880.09c2.57,2.79.94,6.69-1.73,8.85-2.62,2.12-5.18,1.69-10.5,3.16-11.42,3.14-15.38,9.44-18,8.42-2.32-.9-.25-6.23-.06-6.69.42-1.05,1.71-3.85,8.54-8.97,6.64-4.97,10.58-7.92,15.53-7.5,2.59.22,4.93,1.32,6.23,2.73Z"/>
      <path class="cls-28" d="m447.63,916.3c-2.87,3.71-4.64,3.41-7.5,7.37-2.17,3-2.29,4.75-4.5,5.26-2.07.48-4.89-.38-5.87-1.68-1.01-1.33-.13-3.19.76-5.09.04-.09.1-.2.16-.33,1.93-3.73,6.21-7,6.21-7,2.69-2.04,11.45-8.14,13.74-6.96,1.74.9-.89,5.69-3,8.42Z"/>
      <path class="cls-28" d="m386.11,965.77c-2.24,2.58-5.18,1.71-9,5.26-1.65,1.54-2.56,3.06-4.5,3.16-1.14.06-2.38-.39-3-1.05-.78-.84-.03-2.33,1.5-5.26,1.39-2.67,2.66-4.34,4.65-5.86,0,0,0,0,0,0,.92-.97,2.32-2.28,4.35-3.61,2.32-1.52,3.48-2.28,4.5-2.1,2.46.42,4.56,5.95,1.5,9.47Z"/>
      <path class="cls-28" d="m789.71,980.5c-.26.34-2.29,2.88-6,3.16-1.31.1-3.78-.01-4.5-1.05-.77-1.12.94-2.66,1.5-3.16,1.81-1.62,3.24-1.35,6-3.16,2.06-1.35,2.35-2.21,3-2.1,1.24.21,2.04,3.66,0,6.31Z"/>
      <path class="cls-28" d="m971.25,1038.39c-3.04,2.49-6.3,5.36-12.27,7.88-.64.27-10.76,4.49-13.23,2.65-1.97-1.47,1.82-6.15,4.5-9.47,1.22-1.5,3.77-4.66,7.5-7.37,11.18-8.11,31.16-10.87,33.01-8.42,1.14,1.52-5.82,3.5-19.5,14.73Z"/>
      <path class="cls-28" d="m930.74,806.85c-3.2,4.33-3,6-6,7.37-2.43,1.1-4.96,1.1-6,1.05-.34-.02-5.94-.34-7.5-3.16-.72-1.31-.24-2.55,0-3.16.25-.63.94-2.03,4.5-4.21,2.11-1.29,5.03-3.08,9.77-4.08.77-.16,8.34-1.76,9.73-.13.82.97-1.36,2.06-4.5,6.31Z"/>
      <path class="cls-28" d="m1239.22,983.46c-1.57,1.61-2.84,2.62-4.77,3.35-.8.3-2.54.87-4.77.84-.97-.02-3.03-.05-3.58-.84-.42-.6.29-1.28,1.19-2.51.69-.94,1.6-2.34,2.39-4.19.5-.75,2.2-3.03,5.97-4.19,2.63-.81,7.06-1.31,8.35,0,1.29,1.31-1.17,3.84-4.77,7.53Z"/>
      <path class="cls-28" d="m1473.88,909.99c-.3,2.91.62,3.06,0,4.21-1.05,1.95-4.55,3.13-7.5,3.16-.94,0-3.43.03-4.5-1.05-1.04-1.05.62-1.74,0-4.21-.29-1.15-1.04-2.53-.02-3.31,0,0,0,0,0,0,.72-.64,3.45-2.91,7.52-3.01.69-.02,3.43-.08,4.5,1.05.64.68.19,1.28,0,3.16Z"/>
      <path class="cls-28" d="m1615.26,1021.65c-.28.48-.81.95-4,2.09-3.69,1.31-5.59,1.99-8.51,2.33-.62.07-7.55.86-8.32-.52-.66-1.18,3.55-3.33,6.57-4.86,4.81-2.45,8.99-4.58,11.92-3.48,2.04.76,3.19,2.98,2.34,4.45Z"/>
      <path class="cls-28" d="m1238.32,907.88c-13.94,3.09-18.03,1.55-37.51,3.16-31.46,2.59-37.26,7.96-55.51,5.26-6.5-.96-21.36-3.16-24.01-9.47-4.48-10.69,29.17-25.86,46.51-33.68,25.36-11.43,45.17-20.37,70.52-17.89,4.13.4,32.91,3.21,39.01,16.84,5.31,11.86-10.16,23.87-12,25.26-8.34,6.29-18.15,8.56-27.01,10.52Z"/>
    </g>
    <g id="Stjerner_færdige_spilside_" data-name="Stjerner (færdige spilside)">
      <g>
        <path class="cls-40" d="m617.17,536.22c-1.18.49-3.06-.36-4.86-1.18-6.92-3.13-8.38-8.84-8.71-10.4-8.56,4.49-15.99,6.07-20.53,6.7-3.54.49-4.96.37-5.4-.15-1.55-1.78,10.35-6.01,10.42-11.39.09-7.34-21.83-12.43-20.69-14.52,1.1-2.03,20.96,4.35,29.32-1.21,6.32-4.21,2.21-12.68,5.17-13.31,1.99-.42,6.22,2.9,15.52,16.93,17.87,2.77,22.55,4.33,22.41,5.26-.28,1.83-18.82-.53-24.13,5.63-5.1,5.91,5,16.18,1.49,17.63Z"/>
        <path class="cls-31" d="m610.62,526.08c-.66.27-1.7-.2-2.71-.66-3.85-1.74-4.67-4.93-4.85-5.8-4.77,2.5-8.91,3.38-11.44,3.73-1.97.28-2.76.2-3.01-.08-.86-.99,5.77-3.35,5.8-6.35.05-4.09-12.16-6.93-11.53-8.09.61-1.13,11.68,2.42,16.33-.67,3.52-2.34,1.23-7.06,2.88-7.41,1.11-.23,3.46,1.62,8.65,9.44,9.95,1.54,12.56,2.41,12.48,2.93-.16,1.02-10.49-.3-13.44,3.14-2.84,3.29,2.79,9.01.83,9.82Z"/>
      </g>
      <g>
        <path class="cls-40" d="m151.2,341.19c-.3.36-1.21.35-2.08.34-3.36-.04-5.43-1.84-5.98-2.34-1.9,2.92-4.18,4.64-5.65,5.57-1.15.72-1.7.9-2,.79-1.05-.39,2.14-3.74.71-5.66-1.95-2.62-11.29-1.03-11.44-1.94-.15-.89,8.79-1.71,10.33-4.98,1.16-2.47-2.62-4.85-1.71-5.53.61-.46,3.04.07,10.22,3.61,7.24-1.79,9.37-1.96,9.57-1.61.39.69-6.99,2.73-7.25,5.74-.26,2.89,6.19,4.97,5.3,6.03Z"/>
        <path class="cls-31" d="m145.28,338.92c-.16.19-.63.18-1.09.18-1.76-.02-2.85-.97-3.14-1.23-1,1.53-2.19,2.43-2.97,2.92-.61.38-.89.47-1.05.41-.55-.21,1.12-1.96.37-2.97-1.02-1.37-5.93-.54-6-1.02-.08-.47,4.61-.9,5.42-2.61.61-1.3-1.38-2.54-.9-2.9.32-.24,1.6.03,5.36,1.89,3.8-.94,4.91-1.03,5.02-.84.21.36-3.67,1.43-3.81,3.01-.13,1.52,3.25,2.61,2.78,3.16Z"/>
      </g>
      <g>
        <path class="cls-40" d="m811.66,265.62c-.67.28-1.73-.21-2.76-.67-3.93-1.78-4.76-5.02-4.94-5.9-4.86,2.55-9.08,3.44-11.65,3.8-2.01.28-2.81.21-3.07-.08-.88-1.01,5.87-3.41,5.91-6.46.05-4.16-12.39-7.05-11.74-8.24.63-1.15,11.89,2.47,16.64-.69,3.59-2.39,1.25-7.2,2.94-7.55,1.13-.24,3.53,1.65,8.81,9.61,10.14,1.57,12.8,2.46,12.72,2.98-.16,1.04-10.68-.3-13.69,3.19-2.89,3.35,2.84,9.18.85,10.01Z"/>
        <path class="cls-31" d="m807.92,260.05c-.37.15-.97-.12-1.54-.37-2.2-.99-2.66-2.81-2.76-3.3-2.72,1.43-5.08,1.93-6.52,2.13-1.12.16-1.57.12-1.72-.05-.49-.57,3.29-1.91,3.31-3.62.03-2.33-6.93-3.95-6.57-4.61.35-.64,6.65,1.38,9.3-.38,2.01-1.33.7-4.02,1.64-4.22.63-.13,1.97.92,4.93,5.38,5.67.88,7.16,1.37,7.11,1.67-.09.58-5.97-.17-7.66,1.79-1.62,1.88,1.59,5.14.47,5.6Z"/>
      </g>
      <g>
        <path class="cls-40" d="m1224.63,226.87c-.85.34-3.17-.58-9.85-6.51-8.9,2.8-11.46,2.69-12.12,2.05-1.3-1.26,5.03-4.27,4.51-8.64-.55-4.53-8.08-7.28-7.18-8.22.89-.93,7.32,2.73,12.63,1.17,5.32-1.56,5.72-7.24,7.68-7.13,1.07.06,2.36,1.81,3.3,9.36,9.89,1.76,11.99,2.99,11.93,3.81-.12,1.52-7.59,1.14-10.59,4.61-3.22,3.73,1.34,8.84-.31,9.49Z"/>
        <path class="cls-31" d="m1221.05,222.13c-.46.18-1.7-.31-5.29-3.5-4.78,1.5-6.16,1.45-6.52,1.1-.7-.68,2.71-2.29,2.42-4.64-.29-2.44-4.34-3.91-3.86-4.42.48-.5,3.93,1.47,6.79.63,2.86-.84,3.07-3.89,4.13-3.83.57.03,1.27.97,1.77,5.03,5.32.95,6.45,1.61,6.41,2.05-.06.82-4.08.61-5.69,2.48-1.73,2,.72,4.75-.17,5.1Z"/>
      </g>
      <g>
        <path class="cls-40" d="m1450.51,604.04c-1.29.51-4.83-.88-15.01-9.92-13.56,4.27-17.47,4.1-18.47,3.12-1.98-1.92,7.67-6.5,6.87-13.16-.83-6.91-12.31-11.09-10.94-12.53,1.35-1.42,11.15,4.16,19.25,1.78,8.11-2.38,8.72-11.03,11.71-10.87,1.62.09,3.59,2.76,5.03,14.26,15.07,2.69,18.28,4.56,18.18,5.81-.18,2.31-11.57,1.73-16.14,7.03-4.9,5.68,2.04,13.47-.47,14.46Z"/>
        <path class="cls-31" d="m1445.93,595.95c-.78.31-2.91-.53-9.03-5.97-8.16,2.57-10.51,2.47-11.12,1.88-1.19-1.16,4.62-3.91,4.13-7.92-.5-4.16-7.41-6.68-6.59-7.54.81-.86,6.71,2.5,11.59,1.07,4.88-1.43,5.25-6.64,7.05-6.54.98.05,2.16,1.66,3.03,8.59,9.07,1.62,11,2.75,10.94,3.5-.11,1.39-6.96,1.04-9.72,4.23-2.95,3.42,1.23,8.11-.28,8.7Z"/>
      </g>
      <g>
        <path class="cls-40" d="m1781.5,745.16c-.87.61-2.7.45-5.5-.33-3.11-.88-7.74-2.72-14.68-6.16-8.58,4.13-14.13,6.41-17.71,7.57-4.5,1.46-5.52,1.08-5.88.8-2.22-1.76,13.33-9.98,10.45-16.11-2.58-5.48-18.77-6.84-17.93-9.93.01-.05.05-.15.12-.27,1.86-2.93,16.15,2.41,25.4-.66,10.99-3.65,9.62-17.44,13.8-17.49,1.8-.02,4.36,2.51,7.66,13.85,18.51-.33,23.77.35,23.93,1.24.36,1.96-24.18,3.05-27.26,11.06-2.51,6.52,10.46,14.41,7.57,16.41Z"/>
        <path class="cls-31" d="m1775.24,737.34c-.51.36-1.59.27-3.24-.2-1.83-.52-4.56-1.6-8.65-3.63-5.05,2.43-8.32,3.78-10.43,4.46-2.65.86-3.25.64-3.46.47-1.31-1.04,7.85-5.88,6.15-9.49-1.52-3.23-11.06-4.03-10.56-5.85,0-.03.03-.09.07-.16,1.1-1.73,9.52,1.42,14.96-.39,6.48-2.15,5.67-10.27,8.13-10.3,1.06-.01,2.57,1.48,4.51,8.16,10.9-.19,14,.21,14.1.73.21,1.16-14.24,1.8-16.06,6.52-1.48,3.84,6.16,8.49,4.46,9.67Z"/>
      </g>
      <g>
        <path class="cls-40" d="m284.15,787.58c-1.29.51-4.83-.88-15.01-9.92-13.56,4.27-17.47,4.1-18.47,3.12-1.98-1.92,7.67-6.5,6.87-13.16-.83-6.91-12.31-11.09-10.94-12.53,1.35-1.42,11.15,4.16,19.25,1.78,8.11-2.38,8.72-11.03,11.71-10.87,1.62.09,3.59,2.76,5.03,14.26,15.07,2.69,18.28,4.56,18.18,5.81-.18,2.31-11.57,1.73-16.14,7.03-4.9,5.68,2.04,13.47-.47,14.46Z"/>
        <path class="cls-31" d="m279.95,779.12c-.78.31-2.9-.53-9.03-5.97-8.16,2.57-10.51,2.47-11.11,1.88-1.19-1.16,4.61-3.91,4.13-7.92-.5-4.16-7.41-6.67-6.58-7.54.81-.86,6.71,2.5,11.58,1.07,4.88-1.43,5.24-6.64,7.04-6.54.98.05,2.16,1.66,3.03,8.58,9.07,1.62,10.99,2.75,10.94,3.5-.11,1.39-6.96,1.04-9.71,4.23-2.95,3.42,1.23,8.1-.28,8.7Z"/>
      </g>
    </g>
    <g id="Planet_færdige_spilside_" data-name="Planet (færdige spilside)">
      <g>
        <path class="cls-3" d="m1310.21,356.38c.36-2.72.88-5.43,1.53-8.13,0,0,0,0,0-.01-.51,2.71-1.03,5.43-1.54,8.14Z"/>
        <path class="cls-7" d="m1502.61,332.45c.1.37.19.76.27,1.14,6.69,28.66-12.21,52.58-19.61,61.94-20.32,25.71-67.46,60.28-115.42,46.36-11.21-3.25-20.89-8.7-28.97-15.44-12.24-10.23-20.78-23.44-25.36-36.54,9.74-.08,29.01-9.29,61.61-24.88,12.99-6.21,42.09-20.62,80.61-46.39,11.3-7.56,20.27-13.56,26.79-18.3,9.78,9.1,16.97,20.02,20.06,32.11Z"/>
        <path class="cls-8" d="m1537.2,296.3c-8.63,12.71-18.68,24.2-34.32,37.3-15.91,13.34-37.61,28.34-69.47,47.99-56.72,34.99-74.07,40.54-89.29,43.78-1.4.3-3.17.67-5.23,1.09-18.26,3.71-59.44,10.79-69.95-3.37-10.09-13.59,9.5-44.75,42.81-74.84,0,0,0,0,0-.01-.51,2.71-1.03,5.43-1.54,8.14,0,.01,0,.02,0,.02-7.01,15.43-7.7,28.39-1.12,32.28,1.07.63,2.49,1.12,4.45,1.24,9.74-.08,29.01-9.29,61.61-24.88,12.99-6.21,42.09-20.62,80.61-46.39,11.3-7.56,20.27-13.56,26.79-18.3,2.04-1.08,27.44-14.62,24.43-21.49-1.91-4.37-14.97-5.23-17.72-5.41-5.53-.36-10.09.34-13.79.9-4.05.62-8.14,1.25-13.05,3.15-5.63,2.18-6.57,3.8-9.95,4.01-4.41.28-8.22-2.13-10.72-4.16.96-.6,2.43-1.53,4.25-2.65h0s7.52-5,16.6-8.64c8.66-3.47,75.38-21.18,86.07-4.05,5.03,8.05-3.13,22.01-11.47,34.29Z"/>
        <path class="cls-7" d="m1481.87,300.3c-6.5,4.74-15.43,10.75-26.68,18.32-38.36,25.79-67.34,40.21-80.28,46.42-32.47,15.59-51.67,24.81-61.38,24.87-1.33-3.78-2.32-7.54-2.98-11.22-1.33-7.36-1.42-14.91-.41-22.43,0,0,0,0,0-.02.51-2.72,1.01-5.45,1.52-8.17,9.21-38.54,46.4-74.04,93.16-75.92,11.77-.47,23.8,1.2,35.24,4.66.46.14.83.25,1.07.33,11.98,3.72,22.06,9.16,30.5,15.23,3.41,2.64,6.83,5.28,10.24,7.92Z"/>
        <path class="cls-8" d="m1402.76,300.89c-4.21,7.7-6.08,19.87.01,23.18,6.21,3.37,19.26-3.24,25.32-11.67,7.15-9.93,6.46-24.93-.41-27.72-6.78-2.74-19.55,6.38-24.92,16.21Z"/>
        <path class="cls-18" d="m1409.48,298.34c-4.61,6.29-8.45,16.23-4.67,18.74,2.89,1.92,9.75-.81,13.72-4.23,8.91-7.68,7.49-22.49,2.99-23.9-4.11-1.29-11.33,8.43-12.04,9.39Z"/>
        <path class="cls-8" d="m1330.33,366.56c-1.67,2.45-3.76,7.14-1.58,9.11,2.43,2.18,9.27.23,13.38-2.68,5.97-4.21,8.83-12.27,6.08-14.45-2.98-2.36-13.44,1.5-17.88,8.02Z"/>
        <path class="cls-18" d="m1330.29,373.06c.99,1.34,7.1.61,10-2.41.52-.54.84-1.1,1.44-2.2.38-.68,4.01-7.3,2.76-8.08-1.89-1.18-16.03,10.23-14.2,12.69Z"/>
        <path class="cls-18" d="m1497.44,377.61c-2.14-1.07-8.74,5.9-12.2,9.55-3.14,3.32-5.53,6.39-6,10.39-.1.86-.39,3.32.88,3.89.45.2,1.47.33,4.52-1.86,2.69-1.94,4.77-4.1,8.56-9.29,3.09-4.24,3.86-5.74,4.33-7.6.38-1.5,1.12-4.46-.1-5.07Z"/>
        <path class="cls-3" d="m1496.07,365.94c-.84.61-2.03,1.7-2.56,3.29-.96,2.91.67,6.32,4.13,8.62"/>
        <path class="cls-3" d="m1468.92,401.26c.26-.27,2.04-2.11,5.11-2.2,3.19-.09,5.15,1.78,5.41,2.03"/>
        <path class="cls-8" d="m1408.78,423.28c2.39,2.92-3.6,11.5-7.64,11.12-1.88-.18-1.82-2.15-4.51-3.75-5.72-3.4-13.96,1.14-14.83-.86-.9-2.06,3.3-6.11,7.99-7.17,1.4-.31,2.4-.26,4.16-.2,12.32.47,13.86-.32,14.83.86Z"/>
        <path class="cls-18" d="m1386.65,427.4c.28.57,3.38-1.02,7.45-.18,1.15.24.99.38,5.33,1.94,3.9,1.4,4.55,1.47,5.08,1.2,1.36-.7,1.63-3.41.28-4.91-1.13-1.26-3.4-1.28-7.94-1.31-4.02-.03-5.66.48-6.34.72-2.11.75-4.09,2.08-3.86,2.54Z"/>
        <path class="cls-37" d="m1337.96,311.26c2.47-5.24,3.53-7.76,3.02-7.99-1.06-.49-8.36,9.59-9.5,11.16-7.52,10.4-12.39,17.25-14.77,27.02-1.71,7.04-1.86,14.45-.74,14.64.86.14,2.09-4.09,5.05-11.02,5.05-11.81,8.12-15.07,16.93-33.81Z"/>
        <path class="cls-37" d="m1425.67,432.97c-4.28,3.09-6.24,4.62-5.97,4.96.57.73,10.71-4.34,12.3-5.13,10.46-5.23,17.29-8.71,23.59-15.23,4.55-4.7,8.08-10.21,7.33-10.73-.58-.4-3.46,2.35-8.89,6.54-9.26,7.14-13.07,8.54-28.36,19.59Z"/>
        <path class="cls-37" d="m1470.44,304.45c3.84-2.58,5.6-3.86,5.37-4.17-.47-.65-9.48,3.5-10.89,4.15-9.3,4.29-15.37,7.14-21.09,12.66-4.13,3.98-7.4,8.69-6.76,9.16.49.37,3.1-1.96,7.98-5.47,8.32-5.98,11.69-7.1,25.4-16.34Z"/>
        <path class="cls-37" d="m1404.14,276.74c3.42-.58,5.03-.9,5.01-1.16-.05-.55-7.38-.41-8.52-.39-7.55.14-12.51.27-18.25,2.19-4.14,1.39-8.01,3.48-7.78,3.96.18.37,2.72-.39,7.16-1.26,7.57-1.5,10.14-1.27,22.38-3.33Z"/>
        <path class="cls-37" d="m1497.12,356.99c-.05,2.06,0,3.04.29,3.06.64.05,1.99-4.21,2.2-4.88,1.39-4.39,2.27-7.28,1.26-10.87-.73-2.59-2.32-5.12-2.91-5.05-.46.05-.12,1.63-.03,4.32.15,4.59-.64,6.05-.8,13.42Z"/>
        <path class="cls-24" d="m1494.05,382.17c-1.23-.61-5.01,3.38-6.99,5.47-1.8,1.9-3.17,3.67-3.44,5.96-.06.5-.22,1.9.51,2.23.26.11.84.19,2.59-1.07,1.55-1.11,2.74-2.35,4.91-5.33,1.77-2.43,2.21-3.29,2.48-4.36.22-.86.64-2.56-.06-2.91Z"/>
        <path class="cls-24" d="m1419.87,294.75c-1.84-.58-4.53,2.18-6.23,3.92-3,3.08-3.98,5.99-4.77,8.41-.77,2.38-1.3,4.09-.28,4.91,1.03.82,3.21.39,4.6-.3,1.83-.91,1.9-2.09,4-5,2.44-3.38,3.28-3.1,4-5,1.04-2.72.49-6.37-1.33-6.94Z"/>
        <path class="cls-24" d="m1341.23,363.14c-.44-.21-1.12.84-4.39,3.83-.94.86-2.12,1.9-2.15,3.29-.01.45.11.59.21.64.7.38,2.91-1.66,3.69-2.38,2-1.85,2.41-2.93,2.53-3.27.07-.22.64-1.86.12-2.11Z"/>
        <path class="cls-27" d="m1347.38,360.35c-.19,0-.02,1.53-.65,3.66-.51,1.72-1.32,3.09-1.63,3.62-.74,1.25-1.32,1.87-1.25,1.92.11.07,1.68-1.21,2.75-3.08,1.13-1.97,1.16-3.64,1.16-4.12,0-.99-.22-2-.37-2Z"/>
        <path class="cls-27" d="m1334.61,374.66c-.09-.13-.82.42-2.08.5-1.04.07-1.97-.21-2.46-.36-.79-.24-1.19-.48-1.22-.45-.04.05.92.79,2.29,1.14.67.17,1.45.37,2.28.09.75-.25,1.28-.82,1.19-.93Z"/>
        <path class="cls-27" d="m1331.68,366.77c.14.03.97-1.2,2.75-2.74,1.44-1.24,2.88-2.16,3.43-2.52,1.31-.83,2.12-1.21,2.1-1.25-.03-.07-1.96.62-3.9,1.87-2.04,1.32-3.11,2.63-3.4,3-.61.77-1.09,1.61-.98,1.64Z"/>
        <path class="cls-27" d="m1289.77,427.92c1.13-.43-6.19-1.61-11.14-5.22-3.98-2.91-4.74-6.15-5-7.41-.62-2.96.31-4.92-.29-4.8-.92.17-5.17,5.05-3.97,9.4,1.26,4.57,7.95,6.36,9.93,6.84,4.11.99,9.55,1.55,10.47,1.2Z"/>
        <path class="cls-27" d="m1517.92,257.75c-1.18.85,8.22.45,15.82,3.79,6.11,2.69,8.45,6.67,9.32,8.22,2.06,3.64,1.77,6.4,2.46,6.09,1.04-.46,4.06-7.84.7-13.11-3.54-5.54-12.45-6.1-15.06-6.19-5.42-.2-12.28.51-13.25,1.2Z"/>
        <path class="cls-27" d="m1448.69,275.47c.41.45,6.31-2.81,17.18-6.92,10.12-3.82,16.81-5.45,16.6-6.03-.18-.49-5.07.21-8.27.85-2.57.51-8.98,1.97-16.6,6.03-4.5,2.4-9.29,5.64-8.91,6.07Z"/>
        <path class="cls-27" d="m1517.85,313.08c.57.45-7.22,9.21-16.56,17.58-9.6,8.6-18.6,14.73-31.31,23.52-3.96,2.74-8.17,5.54-12.76,8.48-13.2,8.45-26.36,15.47-26.74,15-.33-.4,9.01-5.88,24.03-17.05,9.26-6.89,8.11-6.58,17.96-14.01,14.94-11.26,17.58-11.96,30.67-22.08,9.56-7.39,14.29-11.78,14.71-11.45Z"/>
        <path class="cls-27" d="m1328.81,392.53c19.45-9.92,35.33-18.7,35.12-18.95-.27-.31-24.48,12.95-43.93,17.85-3.47.88-10.07,2.31-14.27-.59-2.01-1.39-2.82-3.31-3.45-4.82-1.25-2.97-1.31-5.87-.18-12.06,1.54-8.45,3.43-12.86,3.3-12.9-.28-.08-12.57,18.14-4.76,28.58,4.1,5.47,12.09,6.61,12.5,6.67,6.45.84,11.72-1.77,15.66-3.78Z"/>
        <path class="cls-27" d="m1461.07,317.66c.28.25-4.1,4.6-9.27,8.71-5.32,4.22-10.23,7.17-17.18,11.4-2.16,1.32-4.46,2.67-6.96,4.07-7.19,4.04-14.3,7.34-14.49,7.09-.16-.22,4.91-2.82,13.15-8.23,5.08-3.33,4.47-3.21,9.87-6.81,8.2-5.46,9.6-5.75,16.8-10.67,5.25-3.59,7.88-5.75,8.09-5.56Z"/>
        <path class="cls-37" d="m1406.85,292.24c-.55-.5-8.7,2.68-11.34,9.57-2.2,5.76.43,11.5.98,11.46.39-.03-.26-2.9.62-6.74,2.06-9.01,10.33-13.75,9.74-14.29Z"/>
        <path class="cls-37" d="m1364.89,422.32c-4.43,2.04-7.24,3.35-7.04,3.78.31.67,7.62-1.04,13.27-2.81,11.55-3.6,19.41-8.42,21.76-9.9,9.46-5.98,16.68-13.15,16.22-13.59-.28-.26-3.13,1.99-8.6,5.3-5.98,3.62-10.13,5.49-35.61,17.22Z"/>
        <path class="cls-37" d="m1384.58,355.73c3.57-1.76,5.83-2.89,5.6-3.31-.35-.65-6.44.67-11.1,2.12-9.51,2.95-15.7,7.21-17.53,8.53-7.42,5.31-12.75,11.84-12.29,12.28.27.26,2.45-1.77,6.75-4.69,4.71-3.2,8.05-4.81,28.57-14.92Z"/>
        <path class="cls-24" d="m1402.97,426.2c-.05-.28-.95-.17-4.04-.43-.89-.08-1.98-.19-2.83.35-.27.17-.31.28-.3.35.05.46,2.15.63,2.89.69,1.91.15,2.71-.09,2.96-.17.16-.05,1.37-.45,1.31-.78Z"/>
        <path class="cls-27" d="m1358.55,403.11c16.28-5.9,29.71-12.96,29.38-13.53-.21-.36-5.61,2.11-17.79,5.9-7.39,2.3-14.64,4.93-22.14,6.95,0,0-6.2,1.67-14.14,8.15-.02.02-.07.06-.06.08.19.41,14.11-3.7,24.74-7.54Z"/>
        <path class="cls-27" d="m1510.27,295.16c12.52-10.71,21.89-21.59,21.33-22.01-.35-.27-4.28,3.77-13.92,11.2-5.85,4.51-11.43,9.29-17.49,13.58,0,0-5.02,3.55-9.55,12.11-.01.02-.04.07-.02.09.36.32,11.47-7.97,19.64-14.97Z"/>
        <path class="cls-27" d="m1510.27,295.16c12.52-10.71,21.89-21.59,21.33-22.01-.35-.27-4.28,3.77-13.92,11.2-5.85,4.51-11.43,9.29-17.49,13.58,0,0-5.02,3.55-9.55,12.11-.01.02-.04.07-.02.09.36.32,11.47-7.97,19.64-14.97Z"/>
        <path class="cls-37" d="m1469.52,385.2c3.57-1.76,5.83-2.89,5.6-3.31-.35-.65-6.44.67-11.1,2.12-9.51,2.95-15.7,7.21-17.53,8.53-7.42,5.31-12.75,11.84-12.29,12.28.27.26,2.45-1.77,6.75-4.69,4.71-3.2,8.05-4.81,28.57-14.92Z"/>
        <path class="cls-37" d="m1380.07,321.89c3.57-1.76,5.83-2.89,5.6-3.31-.35-.65-6.44.67-11.1,2.12-9.51,2.95-15.7,7.21-17.53,8.53-7.42,5.31-12.75,11.84-12.29,12.28.27.26,2.45-1.77,6.75-4.69,4.71-3.2,8.05-4.81,28.57-14.92Z"/>
        <path class="cls-37" d="m1393.22,290.23c3.57-1.76,5.83-2.89,5.6-3.31-.35-.65-6.44.67-11.1,2.12-9.51,2.95-15.7,7.21-17.53,8.53-7.42,5.31-12.75,11.84-12.29,12.28.27.26,2.45-1.77,6.75-4.69,4.71-3.2,8.05-4.81,28.57-14.92Z"/>
        <path class="cls-27" d="m1417.87,362.21c16.28-5.9,29.71-12.96,29.38-13.53-.21-.36-5.61,2.11-17.79,5.9-7.39,2.3-14.64,4.93-22.14,6.95,0,0-6.2,1.67-14.14,8.15-.02.02-.07.06-.06.08.19.41,14.11-3.7,24.74-7.54Z"/>
      </g>
    </g>
    <g id="Flag_færdige_spilside_" data-name="Flag (færdige spilside)">
      <g>
        <path class="cls-14" d="m1546.49,811.98c.85,3.41-6.28,7.2-15.52,12.1-10.44,5.54-14.66,5.62-18.97,9.68-4.61,4.34-5.56,9.68-5.17,14.52-19.7-10.42-25.13-14.57-24.14-15.73.98-1.14,8.12.85,8.62,0,.6-1.01-9.08-4.74-15.52-7.26-32.45-12.67-34.92-14.84-34.49-15.73.77-1.58,11.2.41,12.07-1.21.96-1.78-10.4-6.57-25.17-11.95-10.86.18-13.78-1.26-14.49-2.56-1-1.83,2.19-3.72,5.17-8.47,2.32-3.68,3.18-6.97,3.56-9.1,4.56-5.44,9.12-10.87,13.68-16.31.38-1.07,3.42-9.29,12.07-10.89,3.69-.68,7.57,0,14.17,2.72,6.71,2.77,17.17,8.02,27.22,17.85-6.4,3.56-7.39,5.81-6.9,7.26,1.71,5.07,22.17,2.17,37.94,12.1,5.22,3.29,10.57,8.38,8.62,10.89-1.92,2.47-10.12,1.4-10.35,2.42-.4,1.81,26.07,3.55,27.59,9.68Z"/>
        <path class="cls-6" d="m1446.47,746.66c-2.54,1.05-6,.2-6.9-1.21-1.17-1.84,1.92-4.82,5.17-4.84,1.43,0,2.98.56,3.73,1.51,1.18,1.49.2,3.62-2.01,4.54Z"/>
        <path class="cls-3" d="m1490.85,831.87c1.62-4.32,5.02-11.04,12.53-17.93,5.64-5.17,11.73-8.73,16.38-11.03"/>
        <path class="cls-17" d="m1481.42,779.2c-1.72,2.49-4.36,2.56-9,5.26-5.36,3.13-4.72,4.72-7.5,5.26-4.31.85-7.72-2.61-15-6.31-13.79-7.02-22.95-5.52-24.01-9.47-.98-3.68,6.94-5.01,10.5-13.68.54-1.33,1.1-3.11,3-5.26,1.11-1.26,3.56-4.05,7.5-5.26,6.97-2.15,15.33,1.64,21.01,4.21,2.51,1.14,5.17,2.86,10.5,6.31,10.36,6.71,10.86,8.36,10.5,9.47-.64,1.98-3.91,1.92-6,5.26-1.28,2.05-.29,2.46-1.5,4.21Z"/>
        <path class="cls-15" d="m1465.68,788.49c.92.64-1.77,2.69-5.29,3.06-4.66.5-8.08-2.2-19.5-5.95-12-3.93-18.42-4.29-19.38-6.64-.93-2.29,4.06-4.72,5.54-4.45.67.12.33.74,1.31,1.53,1.66,1.34,5.36,1.75,7.54,2.07,6.2.93,10.61,2.78,13.52,4.01,6.82,2.87,8.01,5.77,13.15,6.09,1.43.09,2.65-.05,3.11.27Z"/>
        <path class="cls-14" d="m1416.33,789.68c.66-1.4.76-2.56,1.83-2.44.84.09,1.31.87,3.25,1.72,1.63.71,3.1.94,4.41,1.19,1.96.38,4.25,1.05,8.81,2.39,9.63,2.82,15.65,7.08,19.73,7.03.31,0,1.03-.04,1.39.17.79.45-.76,1.7-1.96,2.39-1.75,1.01-3.79,2.2-7.26,1.83-1.56-.16-4.08-1.14-9.05-3.08-4.74-1.85-5.24-2.22-7.66-2.92-2.18-.62-2.47-.52-7.19-1.53-5.36-1.14-8.05-1.72-8.81-2.39-1.18-1.02,1.08-1.35,2.51-4.36Z"/>
        <polygon class="cls-35" points="1464.31 784.48 1463.39 785.37 1463.91 786.41 1462.41 786.07 1461.16 786.74 1461.16 785.64 1459.87 785.01 1461.37 784.67 1461.82 783.61 1462.74 784.51 1464.31 784.48"/>
        <polygon class="cls-35" points="1468.81 781.05 1467.89 781.94 1468.41 782.98 1466.91 782.64 1465.66 783.31 1465.66 782.2 1464.37 781.58 1465.87 781.24 1466.32 780.18 1467.24 781.07 1468.81 781.05"/>
        <polygon class="cls-35" points="1473.32 777.89 1472.39 778.78 1472.91 779.82 1471.41 779.48 1470.16 780.15 1470.17 779.05 1468.87 778.42 1470.37 778.08 1470.82 777.02 1471.74 777.92 1473.32 777.89"/>
        <polygon class="cls-35" points="1477.82 774.73 1476.89 775.62 1477.41 776.67 1475.92 776.32 1474.66 776.99 1474.67 775.89 1473.37 775.26 1474.87 774.92 1475.32 773.86 1476.24 774.76 1477.82 774.73"/>
        <polygon class="cls-35" points="1482.32 770.52 1481.39 771.42 1481.91 772.46 1480.42 772.11 1479.17 772.78 1479.17 771.68 1477.87 771.05 1479.37 770.71 1479.82 769.65 1480.74 770.55 1482.32 770.52"/>
        <polygon class="cls-35" points="1483.82 766.31 1482.89 767.21 1483.41 768.25 1481.92 767.9 1480.67 768.57 1480.67 767.47 1479.37 766.84 1480.87 766.5 1481.32 765.45 1482.24 766.34 1483.82 766.31"/>
        <polygon class="cls-35" points="1477.82 762.1 1476.89 763 1477.41 764.04 1475.92 763.69 1474.66 764.36 1474.67 763.26 1473.37 762.63 1474.87 762.29 1475.32 761.24 1476.24 762.13 1477.82 762.1"/>
        <polygon class="cls-35" points="1476.32 767.37 1475.39 768.26 1475.91 769.3 1474.41 768.96 1473.16 769.63 1473.17 768.52 1471.87 767.9 1473.37 767.56 1473.82 766.5 1474.74 767.39 1476.32 767.37"/>
        <polygon class="cls-35" points="1471.82 770.52 1470.89 771.42 1471.41 772.46 1469.91 772.11 1468.66 772.78 1468.67 771.68 1467.37 771.05 1468.87 770.71 1469.32 769.65 1470.24 770.55 1471.82 770.52"/>
        <polygon class="cls-35" points="1465.81 775.45 1464.89 776.34 1465.41 777.38 1463.91 777.04 1462.66 777.71 1462.66 776.61 1461.37 775.98 1462.87 775.64 1463.32 774.58 1464.24 775.48 1465.81 775.45"/>
        <polygon class="cls-35" points="1459.81 779.66 1458.88 780.55 1459.41 781.59 1457.91 781.25 1456.66 781.92 1456.66 780.82 1455.37 780.19 1456.86 779.85 1457.31 778.79 1458.24 779.69 1459.81 779.66"/>
        <polygon class="cls-35" points="1470.31 763.74 1469.39 764.63 1469.91 765.67 1468.41 765.33 1467.16 766 1467.16 764.9 1465.87 764.27 1467.37 763.93 1467.82 762.87 1468.74 763.77 1470.31 763.74"/>
        <polygon class="cls-35" points="1462.81 767.95 1461.89 768.84 1462.41 769.88 1460.91 769.54 1459.66 770.21 1459.66 769.11 1458.37 768.48 1459.87 768.14 1460.32 767.08 1461.24 767.98 1462.81 767.95"/>
        <polygon class="cls-35" points="1458.31 773.21 1457.38 774.1 1457.91 775.15 1456.41 774.8 1455.16 775.47 1455.16 774.37 1453.87 773.74 1455.36 773.4 1455.81 772.34 1456.74 773.24 1458.31 773.21"/>
        <polygon class="cls-35" points="1471.82 759.53 1470.89 760.42 1471.41 761.46 1469.91 761.12 1468.66 761.79 1468.67 760.69 1467.37 760.06 1468.87 759.72 1469.32 758.66 1470.24 759.56 1471.82 759.53"/>
        <polygon class="cls-35" points="1465.81 756.37 1464.89 757.27 1465.41 758.31 1463.91 757.96 1462.66 758.63 1462.66 757.53 1461.37 756.9 1462.87 756.56 1463.32 755.51 1464.24 756.4 1465.81 756.37"/>
        <polygon class="cls-35" points="1464.31 760.58 1463.39 761.48 1463.91 762.52 1462.41 762.17 1461.16 762.84 1461.16 761.74 1459.87 761.11 1461.37 760.77 1461.82 759.72 1462.74 760.61 1464.31 760.58"/>
        <polygon class="cls-35" points="1458.31 763.74 1457.38 764.63 1457.91 765.67 1456.41 765.33 1455.16 766 1455.16 764.9 1453.87 764.27 1455.36 763.93 1455.81 762.87 1456.74 763.77 1458.31 763.74"/>
        <polygon class="cls-35" points="1453.81 769 1452.88 769.89 1453.41 770.94 1451.91 770.59 1450.66 771.26 1450.66 770.16 1449.37 769.53 1450.86 769.19 1451.31 768.13 1452.24 769.03 1453.81 769"/>
        <polygon class="cls-35" points="1452.31 778.47 1451.38 779.37 1451.91 780.41 1450.41 780.07 1449.16 780.74 1449.16 779.63 1447.86 779 1449.36 778.66 1449.81 777.61 1450.74 778.5 1452.31 778.47"/>
        <polygon class="cls-35" points="1449.31 773.21 1448.38 774.1 1448.9 775.15 1447.41 774.8 1446.16 775.47 1446.16 774.37 1444.86 773.74 1446.36 773.4 1446.81 772.34 1447.74 773.24 1449.31 773.21"/>
        <polygon class="cls-35" points="1441.81 774.26 1440.88 775.16 1441.4 776.2 1439.91 775.86 1438.66 776.53 1438.66 775.42 1437.36 774.79 1438.86 774.46 1439.31 773.4 1440.23 774.29 1441.81 774.26"/>
        <polygon class="cls-35" points="1434.31 772.16 1433.38 773.05 1433.9 774.09 1432.4 773.75 1431.15 774.42 1431.16 773.32 1429.86 772.69 1431.36 772.35 1431.81 771.29 1432.73 772.19 1434.31 772.16"/>
        <polygon class="cls-35" points="1440.31 769 1439.38 769.89 1439.9 770.94 1438.41 770.59 1437.16 771.26 1437.16 770.16 1435.86 769.53 1437.36 769.19 1437.81 768.13 1438.73 769.03 1440.31 769"/>
        <polygon class="cls-35" points="1447.81 765.85 1446.88 766.74 1447.4 767.78 1445.91 767.44 1444.66 768.11 1444.66 767 1443.36 766.38 1444.86 766.04 1445.31 764.98 1446.24 765.87 1447.81 765.85"/>
        <polygon class="cls-35" points="1450.81 761.64 1449.88 762.53 1450.41 763.57 1448.91 763.23 1447.66 763.9 1447.66 762.79 1446.36 762.17 1447.86 761.83 1448.31 760.77 1449.24 761.66 1450.81 761.64"/>
        <polygon class="cls-35" points="1456.81 757.43 1455.88 758.32 1456.41 759.36 1454.91 759.02 1453.66 759.69 1453.66 758.58 1452.37 757.96 1453.86 757.62 1454.31 756.56 1455.24 757.45 1456.81 757.43"/>
        <polygon class="cls-35" points="1453.81 753.13 1452.88 754.02 1453.41 755.07 1451.91 754.72 1450.66 755.39 1450.66 754.29 1449.37 753.66 1450.86 753.32 1451.31 752.26 1452.24 753.16 1453.81 753.13"/>
        <polygon class="cls-35" points="1446.31 756.29 1445.38 757.18 1445.9 758.22 1444.41 757.88 1443.16 758.55 1443.16 757.45 1441.86 756.82 1443.36 756.48 1443.81 755.42 1444.74 756.32 1446.31 756.29"/>
        <polygon class="cls-35" points="1441.81 762.6 1440.88 763.5 1441.4 764.54 1439.91 764.2 1438.66 764.87 1438.66 763.76 1437.36 763.13 1438.86 762.79 1439.31 761.74 1440.23 762.63 1441.81 762.6"/>
        <path class="cls-15" d="m1419.34,785.22c.43-1.06.35-1.97,1.4-1.8.83.14,1.41.79,3.43,1.61,1.7.68,3.16.98,4.47,1.28,1.97.45,4.29,1.15,8.94,2.56,9.8,2.96,16.32,6.79,20.28,7.05.3.02,1,.05,1.38.24.84.41-.48,1.29-1.54,1.74-1.54.67-3.35,1.45-6.79.9-1.54-.25-4.15-1.21-9.28-3.12-4.9-1.82-5.44-2.16-7.9-2.89-2.21-.66-2.49-.6-7.23-1.75-5.39-1.31-8.1-1.97-8.94-2.56-1.31-.9.84-.99,1.77-3.26Z"/>
        <path class="cls-14" d="m1461.91,793.93c.03.44-.16,1.17-1.5,2.1-.26.34-.72.81-1.5,1.05-2.73.86-6.33-1.98-11.67-4.43-2.82-1.3-6.08-2.05-12.34-3.98-8.91-2.75-14.31-2.8-15-5.26-.33-1.19.61-2.34,1.5-3.16,3.11.76,7.22,1.81,12,3.16,4.25,1.2,5.1,1.53,7.34,2.22,1.55.48,2.69.8,3.17.94,11.91,3.43,17.87,5.15,18,7.37Z"/>
        <path class="cls-15" d="m1497.92,820.24c-.29.54-.76,1.19-.76,1.19-.28.38-.54.69-.74.92-.54.51-1.11.85-1.5,1.05-6.09-3.1-13.09-6.32-21.01-9.47-7.41-2.95-14.48-5.37-21.01-7.37l-3-2.1c1.15-.38,2.81-1.03,4.5-2.1.87-.55,1.26-.89,1.5-1.05,3.37-2.22,19.32,4.88,22.51,6.31,0,0,21.16,9.52,19.5,12.63Z"/>
        <path class="cls-15" d="m1506.92,810.77c-.14.16-.73.41-1.37,1.12-.36.4-.38.58-.74.92-.54.51-1.11.85-1.5,1.05-4.04-3.02-10.23-6.99-18.89-10.45-9.34-3.74-17.99-5.46-24.01-6.31h-1.5c1.24-.41,2.67-1.08,3-2.1.49-1.53-1.9-2.65-1.5-3.16.81-1.04,12.46,1.56,27.01,7.37,17.45,6.96,20.06,10.94,19.5,11.58Z"/>
        <path class="cls-15" d="m1518.92,803.4c-.3.36-2.07.15-3.02,1.12-.27.28-.3.5-.74.92-.54.51-1.11.85-1.5,1.05-4.65-3.22-10.88-6.96-18.89-10.45-10.11-4.41-19.61-6.93-26.86-8.42.8-1.03,2.19-2.4,4.5-3.16,4.55-1.49,9.67.42,25.36,7.37,0,0,22.48,9.95,21.15,11.58Z"/>
        <path class="cls-15" d="m1529.43,800.25c-.23.19-1.37.98-3,1.05-.66.03-1.2-.07-1.55-.16-5.88-5.9-12.24-9.44-16.45-11.42-5.83-2.74-11.2-4.22-15-5.26-5.88-1.62-11.08-2.57-15-3.16,1.14.08,1.74-.25,2.39-.71,0,0,1.07-.63,2.11-2.44,0,0,10.3,1.88,19.5,4.21,8.58,2.17,12.86,3.26,16.5,5.26,8.18,4.5,12.31,11.12,10.5,12.63Z"/>
        <path class="cls-15" d="m1511.42,833.92c.08.38.03.81-1.5,3.16-1.17,1.8-2.24,3.24-3,4.21-.99-1.64-3.15-4.56-7.5-7.08-2.77-1.6-5.51-2.51-7.5-3.04.92-2.16,1.83-4.32,2.75-6.47.08-.08.17-.16.25-.25,3.4,2.62,6.63,4.25,9,5.26,3.86,1.65,7.13,2.39,7.5,4.21Z"/>
        <path class="cls-15" d="m1515.92,822.35c2.47,1.82,4.44,3.62,6,5.26-1.5.7-3,1.4-4.5,2.1-3.48-2.02-7.46-4.11-11.96-6.15-2.57-1.17-5.08-2.22-7.5-3.16,1.49-1.81,2.97-3.62,4.46-5.43,3.88,1.53,8.76,3.86,13.5,7.37Z"/>
        <path class="cls-15" d="m1527.93,813.93c3.47,2.64,5.87,5.25,7.5,7.37-2,1.05-4,2.1-6,3.16-3.08-2.92-7.02-6.19-12-9.47-3.1-2.04-6.14-3.78-9-5.26,2-1.05,4-2.1,6-3.16,3.65,1.39,8.67,3.69,13.5,7.37Z"/>
        <path class="cls-15" d="m1545.93,810.77c1.28,1.38,1.76,2.78,1.97,3.73-2,1.05-4,2.1-6,3.16-1.19-3.54-3.26-5.09-4.97-5.84-.63-.28-1.05-.38-6-2.1,0,0-1.57-.55-3-1.05-2.09-.74-5.47-2.01-10.5-4.21l1.5-1.05c.35,0,.87-.01,1.5,0,4.4.08,7.77.9,12,2.1,7.82,2.23,11.76,3.39,13.5,5.26Z"/>
        <path class="cls-5" d="m1377.21,849.25c-2.78,1.92-4.51,2.73-5.17,2.42-1.72-.8,3.61-9.03,15.98-24.69,3.3-5.88,6.59-11.76,9.89-17.64.94-4.57,2.52-9.91,5.17-15.73,3.08-6.75,6.83-12.42,10.35-16.93,3.17-4.85,7.12-10.17,12.07-15.73,3.58-4.03,7.22-7.65,10.76-10.89.39-.1.95-.19,1.31,0,2.83,1.51-14.49,16.93-25.87,37.5-1.88,3.39-3.52,7.22-3.52,7.22-4.3,9.45-6.35,16.61-6.83,18.18-1.98,6.47-7.73,17.27-24.14,36.29Z"/>
        <path class="cls-29" d="m1376.58,848.61c-1.95,1.73-2.49,2.11-2.56,2.08-.11-.06,1.02-1.2,2.32-2.79,1.31-1.61,1.95-2.64,3-4.21,0,0,1.5-2.11,4.5-6.31,9.54-13.38,10.63-14.87,12-17.89.72-1.59.06-.37,2.76-8,.51-1.43,2.77-7.77,6.24-16.2,0,0,2.47-6,6-11.58.61-.97,1.18-1.7,1.5-2.1,1.27-1.58,2.35-2.52,3-3.16,2.28-2.22,1.22-2.58,4.5-7.37.05-.08,0,.01,3-4.21,1.49-2.1,1.48-2.08,1.5-2.1,1.22-1.62,2.98-3.93,6-6.31.68-.54,1.68-1.28,3-2.1-7.9,8.2-11.59,13.48-13.5,16.84-.59,1.04-2.05,3.73-4.5,7.37-2.28,3.39-3.15,4.24-4.5,6.31-2.17,3.34-2.3,4.79-4.5,10.52-3.39,8.82-4.02,7.79-6.77,15.43-1.16,3.22-1.77,5.41-3.73,8.78-1.88,3.24-3.81,5.49-4.5,6.31-2.96,3.52-7.56,9.57-14.77,20.71Z"/>
        <path class="cls-32" d="m1446.22,744.8c-1.04.43-2.46.08-2.82-.5-.48-.76.79-1.98,2.12-1.98.59,0,1.22.23,1.53.62.49.61.08,1.48-.82,1.86Z"/>
      </g>
    </g>
    <g id="Komet_færdige_spilside_" data-name="Komet (færdige spilside)">
      <path class="cls-16" d="m295.91,561.73c-19.96,10.08-21.06,6.67-31.36,13.65-3.8,2.58-11.3,7.66-16,15.83-3.75,6.52-2.45,9.3-7.04,15.25-6.21,8.06-14.38,10.46-13.56,11.45,1.6,1.95,37.02-3.21,57.28-22.73,14.45-13.91,19.3-33.29,15.02-34.79-1.04-.36-2.46.39-4.34,1.34Z"/>
      <path class="cls-16" d="m1,695.46c.98.95,30.03,1.32,49.21-5.54,13.68-4.89,20.53-12.81,17.35-13.76-.77-.23-2.03-.01-3.67.26-17.48,2.85-17.83,1.32-27.12,3.55-3.43.82-10.2,2.45-15.21,5.59-4,2.51-3.39,3.79-7.97,6-6.2,2.99-13.08,3.42-12.59,3.9"/>
      <path class="cls-20" d="m150.85,650.37c-2.37,2.23-9.98-1.84-19.7-.84-12.3,1.26-21.42,9.95-22.94,8.88-.16-.11-.07-.22-.28-2.1-.1-.92-.21-1.66-.28-2.1,3.3-1.63,7.6-3.46,12.9-5.06,4.91-1.48,9.42-2.39,13.17-2.96,5.52,0,11.05,0,16.57-.01.89,1.38,1.67,3.14.55,4.19Z"/>
      <path class="cls-20" d="m244.29,398.08c.63.01,1.16-.05,1.49-.1l-.41-3.14c-.72.23-1.75.62-2.85,1.24-.91.51-1.43.82-1.36,1.14.13.56,1.99.83,3.13.85Z"/>
      <path class="cls-20" d="m.85,696.73c-.96-11.68-1.91-23.36-2.87-35.04.34-45.78.68-91.56,1.02-137.33,1.63-39.32,1.11-69.39.32-89.91-.39-10.05-.85-17.88,5.11-27.05,16.05-24.7,66.85-40.84,101.43-32.06,18.65,4.73,18.24,13.14,40.47,18.04,21.05,4.64,34.7-.8,56.98-1.25,23.15-.47,40.65,5.44,56.85,10.9,20.38,6.88,34.6,11.68,37.35,20.67,3.73,12.2-18.36,16.84-18.05,33.96.3,16.76,21.79,29.4,23,30.1,10.5,6.01,14.43,3.89,20.15,8.42,15.38,12.15,6.23,42.59-18.01,60.69-16.32,12.19-28.58,8.26-45.55,22.38-16.98,14.12-7.96,20.74-23.05,35.5-17.34,16.96-50.55,29.05-80.82,30.73-12.2.68-20.93-.5-34.19,3.42-17.16,5.08-26.36,14.11-30.57,17.77-12.02,10.46-36.08,22.99-89.56,30.08"/>
      <path class="cls-16" d="m129.89,558.42c-13.19,13.01-22.53,32.77-14.14,37.36,7.43,4.06,28.32-4.05,39.79-13.5,10.22-8.42,12.6-17.62,16.49-32.65,2.69-10.39,1.01-11.7.14-12.16-6.34-3.31-28.68,7.54-42.27,20.95Z"/>
      <path class="cls-16" d="m28.96,422.81c-7.53,9.92-19.11,25.17-13.66,28.42,5.63,3.36,30.28-5.6,40.69-20.45,9.43-13.45,6.52-30.81-.36-32.16-7.22-1.42-19.4,14.63-26.66,24.19Z"/>
      <path class="cls-16" d="m248.26,391.64c.27,3.85-17.87,9.53-33.71,7.04-5.91-.93-14.81-3.51-14.69-6.34.15-3.4,13.34-6.37,24.27-6.43,10.29-.05,23.9,2.45,24.13,5.73Z"/>
      <path class="cls-3" d="m182.24,403.19c1.62.06,5.93.08,10.14-1.87,6.55-3.03,7.38-8.26,7.48-8.99"/>
      <path class="cls-3" d="m263.29,413.75c-1.92-.25-8.19-1.25-12.81-5.25-7.04-6.09-3.91-13.67-3.62-14.34"/>
      <path class="cls-16" d="m279.22,508.68c-1.4,4.24-6.28,9.26-11.77,9.26-7.06,0-12.82-8.26-13.22-14.94-.34-5.68,3.03-13.3,8.56-13.92,7.23-.81,19.53,10.18,16.43,19.59Z"/>
      <path class="cls-3" d="m261.07,489.2c-5.22,3.63-12.86,4.56-18.73,2.42-6.48-2.36-7.82-7.37-7.98-7.99"/>
      <path class="cls-3" d="m240.22,528.21c.43-1.55,1.72-4.95,5.92-7.67,5.61-3.64,14.15-4.6,22.17-2.65"/>
      <path class="cls-16" d="m108.52,659.41c1.07,3.21,18.08,2.55,24.51,2.06,11.75-.9,15.21-3.33,16.7-4.72.8-.75,3.54-3.31,2.31-5.25-2.24-3.57-16.61-3.14-27.3-.42-7.02,1.78-17.09,5.73-16.22,8.34Z"/>
      <path class="cls-3" d="m79.14,646.73c8.33-1.79,17.14-.54,22.96,3.38,5.11,3.44,6.15,7.76,6.42,9.3"/>
      <path class="cls-3" d="m162.49,635.27c-1.28.4-6.7,2.21-9.51,6.69-2.93,4.67-.91,8.87-.45,9.75"/>
      <path class="cls-43" d="m155.06,551.1c-2.91-.61-9.25,6.97-14,12.66-.75.89-1.47,1.8-3.01,3.6-4.76,5.58-5.7,6.09-7,7.95-2.92,4.17-4.32,10.37-1.5,11.58,2.72,1.17,9.29-2.36,12.91-5.51,1.74-1.51,1.9-2.16,5.8-7.14,4.34-5.56,4.67-5.44,5.8-7.14,4.47-6.73,3.85-15.39,1.01-15.99Z"/>
      <path class="cls-43" d="m56.03,416.39c-1.78-2.27-9.95-2.53-15,0-1.59.79-2.07,1.46-6,7.37-4.9,7.37-6.24,9.47-6,12.63.12,1.51.29,3.78,2.24,4.49,2.95,1.06,8.36-2.04,11.26-4.49,1.89-1.59,1.38-1.79,5.42-6.8,2.77-3.43,3.51-3.96,5.17-6.37,2.58-3.74,3.87-5.61,2.91-6.83Z"/>
      <path class="cls-43" d="m272.08,497.43c-2-1.78-6.12-4.05-9-3.16-3.05.94-3.02,4.91-3,7.37.03,4.19,1.82,11.19,6,11.58,3.15.29,6.3-3.28,7.5-5.26,1.86-3.08,2.02-7.38-1.5-10.52Z"/>
      <path class="cls-43" d="m224.07,389.03c-6.67.33-13.77,2.66-13.5,4.21.28,1.64,8.74,2.4,15,2.1,5.5-.26,13.47-1.55,13.5-3.16.03-1.6-7.8-3.51-15-3.16Z"/>
      <path class="cls-43" d="m132.38,658.49c5.29-.88,10.54-3.41,10.04-4.63-.53-1.29-7.47-1.12-12.43-.3-4.37.72-10.52,2.49-10.24,3.79.28,1.29,6.92,2.1,12.63,1.14Z"/>
      <path class="cls-43" d="m261.58,585.83c-1.26.95-3.59,2.86-6,6.31-.7,1-7.6,11-4.5,12.63,2.99,1.57,14.64-5.03,22.51-11.58,11.42-9.5,17.39-20.99,15-22.1-1.77-.82-6.48,4.77-19.5,10.52-1.56.69-4.46,1.92-7.5,4.21Z"/>
      <path class="cls-45" d="m27.53,683.71c-5.81,1.63-18.48,5.2-18,6.31.24.57,3.85.29,7.5,0,9.73-.77,17-2.53,19.5-3.16,5.96-1.5,9.98-2.93,16.5-5.26,10.14-3.63,18.43-6.6,18-7.37-.71-1.28-25.04,4.3-43.51,9.47Z"/>
      <path class="cls-45" d="m180.49,620.25c-5.81,1.63-18.48,5.2-18,6.31.24.57,3.85.29,7.5,0,9.73-.77,17-2.53,19.5-3.16,5.96-1.5,9.98-2.93,16.5-5.26,10.14-3.63,18.43-6.6,18-7.37-.71-1.28-25.04,4.3-43.51,9.47Z"/>
      <path class="cls-45" d="m45.53,383.76c-7.06,2.9-14.4,7.29-13.5,8.42.68.86,6.02-.37,9-1.05,10.54-2.43,12.19-4.91,21.01-7.37,6.24-1.74,5.81-.61,18-3.16,3.56-.75,15.29-3.2,15-4.21-.27-.96-11.31-.16-13.5,0-8.36.61-14.58,1.74-16.5,2.1-6.06,1.14-12.39,2.34-19.5,5.26Z"/>
      <path class="cls-45" d="m325.55,511.65c.29-5.73-1.07-12.43-2.91-12.51-1.41-.06-2.78,3.77-3.55,5.9-2.72,7.55-.61,9.85-2.37,16.39-1.25,4.63-2.38,3.77-5.83,12.36-1.01,2.51-4.33,10.77-2.96,11.14,1.3.35,6.24-6.62,7.23-8,3.74-5.28,5.7-9.57,6.3-10.91,1.86-4.2,3.81-8.59,4.1-14.37Z"/>
      <path class="cls-45" d="m249.58,522.69c1.05-.55,2.7-1.07,6-2.1,4.42-1.38,6.9-1.84,6.81-2.15-.1-.33-2.94-.26-5.31.04-3.7.48-6.34,1.58-7.5,2.1-2.29,1.04-4.65,2.12-6,4.21-1.9,2.93-.79,6.26,0,6.31,1.03.07.52-5.54,6-8.42Z"/>
      <path class="cls-45" d="m242.08,493.22c-4.7-1.78-7.5-4.21-7.5-4.21-.55-.47-1.24-1.14-1.5-1.05-.37.13.24,1.8,1.5,3.16.36.38,1.21,1.22,3,2.1.95.47,4.95,2.46,10.5,2.1,4.15-.26,7.66-1.73,7.5-2.1-.22-.53-7.6,2.24-13.5,0Z"/>
      <path class="cls-45" d="m66.75,461.68c-5.81,1.63-18.48,5.2-18,6.31.24.57,3.85.29,7.5,0,9.73-.77,17-2.53,19.5-3.16,5.96-1.5,9.98-2.93,16.5-5.26,10.14-3.63,18.43-6.6,18-7.37-.71-1.28-25.04,4.3-43.51,9.47Z"/>
      <path class="cls-45" d="m38.03,564.78c-10.86,7.65-27.62,4.41-28.29,7.4-.58,2.59,11.43,7.73,23.79,7.33,12.35-.4,20.53-6.05,27.01-10.52,5.46-3.77,12.77-8.82,10.72-12.6-2.33-4.31-13.87-6.8-21.22-4.24-6.97,2.43-4.78,7.54-12,12.63Z"/>
      <path class="cls-45" d="m190.71,469.24c1.83,1.93,11.76.52,17.8-2.41,20.25-9.83,10.25-43.34,6.26-43.45-3.09-.09,1.23,19.89-17.34,37.13-3.24,3.01-8.35,7.02-6.72,8.74Z"/>
    </g>
    <g id="Raket_færdige_spilside_" data-name="Raket (færdige spilside)">
      <g>
        <g>
          <path class="cls-44" d="m523.32,154.48c-4.4,0-7.33-.44-9.21-1.37-.57-.28-1.15-.71-1.16-.71-3.38-2.28-5.87-5.81-6.21-8.79-.17-1.52.2-2.79,1.1-3.77,1.11-1.19,2.81-1.67,4.18-2.06,1.44-.41,2.68-.76,2.85-1.83.2-1.31-1.35-1.95-3.32-2.75-1.95-.79-4.38-1.79-5.35-3.61-2.24-4.2,4.75-10.02,5.05-10.27.14-.12,1.46-1.18,3.04-2.05,9.09-4.99,29.94-5.06,37.79-5.08.8,0,1.46,0,1.97-.01,1.16-.02,3.23-.04,5.8-.04,25.42,0,28.01,2.52,28.19,3.29.04.16-.04.27-.57.81-.29.29-.64.66-1.06,1.17-3.75,4.63-3.31,10.34-1.79,13.82,1.58,3.63,4.68,5.3,7.17,6.64,1.98,1.07,3.2,1.78,3.14,2.8-.08,1.33-4.06,5.01-39.24,10.42-14.8,2.28-25.39,3.38-32.37,3.38h0Z"/>
          <path class="cls-26" d="m559.86,112.63c24.37,0,27.32,2.36,27.66,2.83-.09.11-.26.28-.4.43-.29.3-.66.68-1.09,1.21-3.89,4.81-3.44,10.73-1.86,14.34,1.65,3.78,4.97,5.58,7.39,6.88,1.57.85,2.92,1.58,2.87,2.34-.04.67-2.09,4.31-38.82,9.96-14.78,2.27-25.34,3.38-32.3,3.38-4.32,0-7.18-.42-8.98-1.32-.52-.26-1.06-.65-1.09-.67l-.26-.19h-.01c-3.12-2.19-5.41-5.48-5.73-8.26-.16-1.37.17-2.51.97-3.37,1.01-1.09,2.57-1.53,3.95-1.92,1.54-.44,2.99-.85,3.2-2.24.26-1.7-1.63-2.47-3.63-3.29-1.88-.76-4.21-1.72-5.1-3.38-1.64-3.08,2.5-7.65,4.93-9.64.14-.12,1.42-1.15,2.96-2,8.98-4.93,29.75-4.99,37.56-5.02.8,0,1.46,0,1.97-.01,1.13-.02,3.23-.04,5.8-.04m0-1c-2.58,0-4.65.03-5.81.04-5.51.07-29.86-.4-40,5.15-1.64.9-2.98,1.99-3.12,2.1-.56.46-7.59,6.36-5.17,10.89,1.97,3.69,8.93,4.05,8.62,6.05-.24,1.59-4.6,1.16-6.9,3.63-3.17,3.4-.08,9.76,5.17,13.31,0,0,.62.45,1.23.76,1.58.79,4.14,1.42,9.43,1.42,6.18,0,16.07-.87,32.45-3.39,38.03-5.85,39.59-9.6,39.66-10.89.18-3.1-7.6-3.38-10.35-9.68-1.25-2.86-2.14-8.54,1.72-13.31,1.16-1.43,1.89-1.73,1.72-2.42-.79-3.25-18.58-3.67-28.67-3.67h0Z"/>
        </g>
        <g>
          <path class="cls-22" d="m598.45,140.26c-.42,0-.84-.02-1.26-.05-8.27-.69-13.64-8.4-14.2-13.47-.3-2.71.59-5.82,2.51-8.74,1.25-1.91,1.82-2.78,3.24-3.45,1.1-.52,2.46-.78,4.04-.78,4.22,0,9.07,1.81,12.27,3.01l.55.21c4.82,1.79,8.62,3.21,10.08,5.82,1.15,2.05.82,4.92-.91,7.86-2.8,4.77-9.3,9.6-16.32,9.6Z"/>
          <path class="cls-26" d="m592.78,114.26h0c4.13,0,8.92,1.79,12.1,2.98l.55.2c4.72,1.76,8.45,3.15,9.82,5.6,1.06,1.89.73,4.57-.9,7.36-2.72,4.65-9.06,9.35-15.89,9.35-.41,0-.82-.02-1.22-.05-8-.66-13.21-8.12-13.75-13.02-.29-2.6.58-5.58,2.43-8.41,1.2-1.83,1.74-2.66,3.04-3.27,1.03-.49,2.32-.73,3.83-.73m0-1c-1.54,0-3,.24-4.25.83-1.55.73-2.2,1.72-3.45,3.63-.64.97-3.06,4.78-2.59,9.07.62,5.65,6.38,13.22,14.66,13.91.44.04.87.05,1.3.05,11.18,0,21.28-11.75,17.67-18.2-1.55-2.77-5.45-4.22-10.35-6.05-3.1-1.16-8.42-3.25-12.99-3.25h0Z"/>
        </g>
        <ellipse class="cls-12" cx="541.11" cy="132.24" rx="14.64" ry="8.48" transform="translate(-3.85 16.89) rotate(-1.78)"/>
        <ellipse class="cls-10" cx="540.25" cy="132.24" rx="6.9" ry="3.63"/>
        <line class="cls-3" x1="555.77" y1="129.82" x2="583.36" y2="128.61"/>
        <ellipse class="cls-11" cx="560.94" cy="133.45" rx="1.72" ry="1.21"/>
        <ellipse class="cls-11" cx="569.56" cy="133.45" rx="1.72" ry="1.21"/>
        <ellipse class="cls-11" cx="578.18" cy="132.24" rx="1.72" ry="1.21"/>
        <path class="cls-38" d="m450.17,140.75c2.6,3.41,7.28,6.43,6.79,11.43,0,0-.18,1.88-1.36,3.81-5.86,9.65-40.37,16.18-42.11,13.34-1.84-3.01,31.67-14.65,29.88-17.15-2.08-2.91-47.7,12.01-50.26,8.58-1.14-1.53,6.4-6.6,14.94-9.53,12.26-4.2,24.44-3.24,24.45-3.81.01-.94-32.72.57-35.32-5.72-.94-2.28,2.25-5.21,5.43-6.67,11.66-5.33,33.59,4.38,33.96,3.81.25-.4-11.32-3.48-21.73-10.48-4.78-3.22-10.87-8.3-9.51-9.53,1.84-1.66,16.65,4.23,20.38,5.72,10.91,4.35,17.02,8.11,17.66,7.62,1.31-.99-25.07-16.17-21.73-20.01,2.38-2.74,21.32-.83,27.17,6.67,5.53,7.09-5.24,13.25,1.36,21.92Z"/>
        <path class="cls-9" d="m502.76,159.62h0c-8.65-1.76-12.89-3-12.72-3.71.18-.77,5.42-.93,15.72-.5-2.56-9.18-2.31-16.17-1.5-21.05.74-4.48,2.28-9.18-1.5-13.68-2.22-2.65-5.41-4.19-4.67-5.44.85-1.43,6.14-1.27,10.67-.87,1.46.06,4.16.32,6.71,1.6,5.89,2.97,5.34,8.54,5.29,8.92v22.1c0,6.95-8.1,12.63-18,12.63Z"/>
        <path class="cls-4" d="m519.55,154.01c1.1,1.79-3.85,5.37-8.62,7.26-5.45,2.15-7.44.82-25.87,1.21-9,.19-16.87.69-18.73-1.99-.12-.17-.19-.33-.24-.43,1.29-1.46,3.45-3.43,6.9-4.84,5.77-2.36,10.94-1.44,19.76-1.16,17.51.57,25.52-2.13,26.8-.05Z"/>
        <path class="cls-4" d="m465.08,112.3c-1.1,1.79,3.85,5.37,8.62,7.26,5.45,2.15,7.44.82,25.87,1.21,9,.19,16.87.69,18.73-1.99.12-.17.19-.33.24-.43-1.29-1.46-3.45-3.43-6.9-4.84-5.77-2.36-10.94-1.44-19.76-1.16-17.51.57-25.52-2.13-26.8-.05Z"/>
        <path class="cls-33" d="m555.65,115.39c-11.07-.13-12.8-.18-16.5,0-9.41.45-14.84.75-16.5,3.16-1.48,2.14.39,5.4,1.72,5.45,1.02.04,1.14-1.84,2.78-3.35,5.33-4.91,23.49-2.85,30.01-2.1,2.47.28,9.53,1.16,15-1.05,1.31-.53,1.55-.84,1.5-1.05-.19-.87-5.32-.9-18-1.05Z"/>
        <path class="cls-33" d="m546.65,141.7c-4.65.92-8.6.31-10.5,0-6.43-1.05-10.14-3.5-10.5-3.16-.29.28,2.09,1.96,4.5,3.16,2.73,1.35,5.23,1.94,6,2.1,1.05.23,9.22,1.94,16.5-1.05,3.33-1.37,4.29-2.82,4.5-3.16,1.17-1.87.76-4.08,0-4.21-.82-.14-1.16,2.3-4.5,4.21-2.27,1.3-4.54,1.82-6,2.1Z"/>
        <ellipse class="cls-25" cx="539.59" cy="130.57" rx="2.56" ry="1.5"/>
        <path class="cls-42" d="m609.4,120.36c1.36,2.04-2.64,5.83-6.87,5.53-3-.21-5.08-2.52-5.31-4.24-.17-1.31.71-2.47.94-2.77.45-.58.69-.88,1.25-1.11,1.8-.72,4.74.27,6.25.74,1.77.56,3.18,1,3.75,1.84Z"/>
        <path class="cls-42" d="m510.64,118.55c-.04.62-5.61,1.17-10.5,1.05-5.02-.12-5.63-.85-10.11-.65-3.51.15-4.23.65-7.89.65-2.25,0-7.31-.18-7.5-1.05-.18-.83,4.05-2.16,7.89-2.76,2.2-.34,4.89-.52,14.61.65,9.02,1.09,13.53,1.63,13.5,2.1Z"/>
        <path class="cls-42" d="m509.59,159.95c-.04.62-5.61,1.17-10.5,1.05-5.02-.12-5.63-.85-10.11-.65-3.51.15-4.23.65-7.89.65-2.25,0-7.31-.18-7.5-1.05-.18-.83,4.05-2.16,7.89-2.76,2.2-.34,4.89-.52,14.61.65,9.02,1.09,13.53,1.63,13.5,2.1Z"/>
        <path class="cls-36" d="m507.64,122.76c1.7-.29,5.6,4.03,6.7,8.58,1.18,4.87-1.88,5.71-.7,11.42.75,3.63,2.45,5.55.7,7.53-1.16,1.31-3.63,2.4-5.2,1.95-2.39-.69-1.71-4.65-1.5-10.52.47-12.91-1.88-18.62,0-18.94Z"/>
        <path class="cls-4" d="m514.38,135.26c-.02,2.71-14.33,5.23-25.87,5.44-12.36.23-27.45-2.06-27.59-4.84-.14-2.76,14.5-6.05,27.59-6.05,12.01,0,25.88,2.77,25.87,5.44Z"/>
        <path class="cls-42" d="m507.64,136.44c-.02.21-.54.44-6,1.05-5.71.64-8.56.95-12,1.05-5.67.16-14.87-.06-15-1.05-.1-.74,4.87-1.63,7.5-2.1,2.84-.51,7.4-1.3,13.5-1.05,5.69.23,12.07,1.35,12,2.1Z"/>
        <path class="cls-39" d="m428.89,140.9c-.17,1.06-7.12,1.87-12.61,1.95-6.99.1-16.32-.93-16.19-2.74.09-1.27,4.83-2.68,8.1-3.15,1.37-.2,3.97-.44,14.01,1.85,6.53,1.49,6.72,1.88,6.69,2.09Z"/>
        <path class="cls-39" d="m427.84,150.58c.36.71-5.66,2.97-10.7,4.4-6.41,1.82-15.53,3.53-16.3,2.36-.53-.82,3.15-2.9,5.94-4.02,1.17-.47,3.45-1.27,13.85-2.37,6.76-.71,7.14-.51,7.21-.38Z"/>
        <path class="cls-39" d="m448.12,157.88c.5.67-5.04,3.48-9.76,5.37-6,2.41-14.72,4.96-15.7,3.87-.69-.76,2.57-3.17,5.12-4.54,1.07-.57,3.18-1.59,13.27-3.65,6.57-1.34,6.97-1.18,7.07-1.05Z"/>
        <path class="cls-39" d="m432.41,131.98c-.56.64-6.85-1.24-11.59-3.1-6.03-2.37-13.64-6.3-12.81-7.45.58-.81,5.2-.09,8.18.74,1.25.35,3.58,1.09,11.29,6.1,5.02,3.26,5.03,3.59,4.92,3.71Z"/>
        <path class="cls-39" d="m449.65,126.29c-1.16.87-7.66-1.22-12.25-3.37-5.84-2.74-12.53-7.42-10.67-8.97,1.3-1.09,6.56-.42,9.69.49,1.31.38,3.68,1.22,9.74,7.3,3.94,3.96,3.71,4.39,3.49,4.56Z"/>
        <path class="cls-41" d="m449.79,140.18c2.04,2.68,5.72,5.05,5.33,8.98,0,0-.14,1.47-1.07,2.99-4.6,7.58-31.7,12.7-33.07,10.47-1.45-2.37,24.87-11.5,23.47-13.47-1.63-2.28-37.46,9.43-39.47,6.73-.9-1.2,5.02-5.19,11.73-7.48,9.63-3.29,19.19-2.54,19.2-2.99,0-.74-25.69.44-27.73-4.49-.74-1.79,1.77-4.09,4.27-5.24,9.16-4.19,26.38,3.44,26.67,2.99.2-.31-8.89-2.73-17.07-8.23-3.76-2.52-8.54-6.51-7.47-7.48,1.44-1.31,13.07,3.32,16,4.49,8.57,3.41,13.36,6.37,13.87,5.99,1.03-.78-19.68-12.69-17.07-15.71,1.87-2.16,16.74-.65,21.33,5.24,4.34,5.56-4.11,10.4,1.07,17.21Z"/>
        <path class="cls-23" d="m445.63,155.38c.36.54-4.15,2.61-7.96,3.98-4.85,1.74-11.85,3.52-12.56,2.64-.5-.62,2.19-2.43,4.27-3.44.87-.42,2.58-1.17,10.64-2.53,5.24-.89,5.55-.75,5.62-.64Z"/>
        <path class="cls-23" d="m432.45,148.84c.22.57-4.74,2.05-8.84,2.93-5.21,1.11-12.55,2-13.03,1.05-.34-.67,2.76-2.12,5.07-2.86.97-.31,2.84-.83,11.11-1.17,5.38-.22,5.65-.05,5.69.06Z"/>
        <path class="cls-23" d="m438.93,140.1c-.19,1.13-7.17,2.05-12.67,2.18-7,.16-16.34-.85-16.18-2.78.12-1.35,4.89-2.89,8.17-3.41,1.38-.22,3.98-.5,14.01,1.85,6.52,1.53,6.71,1.95,6.67,2.16Z"/>
        <path class="cls-23" d="m435.26,134.49c-.49.47-5.16-1.27-8.64-2.92-4.43-2.1-9.93-5.48-9.19-6.33.52-.6,4.02.17,6.24.94.93.33,2.66,1.01,8.14,5.22,3.57,2.74,3.54,2.99,3.45,3.09Z"/>
        <path class="cls-23" d="m448.36,127.35c-.6.58-5.45-.85-9.02-2.32-4.54-1.86-10.08-5.03-9.15-6.06.65-.72,4.35-.25,6.66.37.97.26,2.76.83,8.16,4.94,3.52,2.67,3.46,2.96,3.34,3.07Z"/>
        <path class="cls-30" d="m448.23,138.97c1,1.31,2.8,2.47,2.61,4.39,0,0-.07.72-.52,1.46-2.25,3.71-15.51,6.22-16.18,5.13-.71-1.16,12.17-5.63,11.48-6.59-.8-1.12-18.33,4.62-19.31,3.3-.44-.59,2.46-2.54,5.74-3.66,4.71-1.61,9.39-1.24,9.4-1.46,0-.36-12.57.22-13.57-2.2-.36-.88.86-2,2.09-2.56,4.48-2.05,12.91,1.68,13.05,1.46.1-.15-4.35-1.34-8.35-4.03-1.84-1.24-4.18-3.19-3.65-3.66.71-.64,6.4,1.63,7.83,2.2,4.19,1.67,6.54,3.12,6.79,2.93.5-.38-9.63-6.21-8.35-7.69.91-1.05,8.19-.32,10.44,2.56,2.12,2.72-2.01,5.09.52,8.42Z"/>
        <path class="cls-42" d="m438.54,138.65c.79.29,1.07-.08,3.08-.1,1.81-.02,2.81.27,3,0,.11-.15-.16-.34-.66-.84-1.42-1.41-1.38-2.06-2.34-2.32-.54-.15-.8,0-1.5,0-2.43,0-4.78-1.74-4.5-2.1.36-.48,6.11.34,7.5,2.1.13.17.57.78,1.5,1.05.49.14,1.27.23,1.5,0,.29-.28-.45-.84-1.5-2.1-1.16-1.41-1.87-2.3-1.5-3.16.26-.59,1-1.13,1.5-1.05.63.09.34,1.08,1.5,2.1.7.61,1.12.53,1.5,1.05.15.2.44.69,0,2.1-.52,1.64-1.19,1.83-1.5,3.16-.22.95-.09,1.74,0,2.1.34,1.43,1.13,1.7,1.5,3.16.2.78.36,1.42,0,2.1-.97,1.85-5.05,2.74-6,2.1-.36-.24-.35-.83,0-1.05.34-.21.81.03,1.5,0,1.45-.06,2.57-1.28,3-2.1.18-.35.61-1.23,0-2.1-.14-.2-.59-.85-1.5-1.05-1.7-.38-3.05,1.21-7.5,2.1,0,0,0,0,0,0-3.9.85-5.85,1.28-6,1.05-.19-.27,1.82-1.83,4.5-2.1,1.89-.2,3.65.29,5.01-.45.13-.07.12-.07.99-.6,1.21-.73,1.48-.83,1.5-1.05.05-.44-.9-.87-1.5-1.05-1.32-.41-2.8-.22-4.5,0-.16.02-.56.07-1.11.12-.42.03-.93.06-1.51.06-.32,0-3.34.02-3.37-.56-.02-.4,1.09-.88,1.69-1.13.64-.27,1.66-.7,3.7-.43,1.2.16,1.36.74,2.04.99Z"/>
      </g>
    </g>
  </g>
</svg>