<?xml version="1.0" encoding="UTF-8"?>
<svg id="Sketches" xmlns="http://www.w3.org/2000/svg" viewBox="0 0 294.99 352.13">
  <defs>
    <style>
      .cls-1 {
        fill: #f4c531;
      }

      .cls-1, .cls-2, .cls-3, .cls-4, .cls-5, .cls-6, .cls-7, .cls-8, .cls-9, .cls-10, .cls-11, .cls-12, .cls-13, .cls-14, .cls-15, .cls-16 {
        stroke-width: 0px;
      }

      .cls-17, .cls-18, .cls-19, .cls-20, .cls-21 {
        stroke: #000;
        stroke-miterlimit: 10;
      }

      .cls-17, .cls-3 {
        fill: #3768b7;
      }

      .cls-18 {
        fill: none;
      }

      .cls-2 {
        fill: #c1b991;
      }

      .cls-4 {
        fill: #f44831;
      }

      .cls-5 {
        fill: #ccc;
        opacity: .19;
      }

      .cls-7 {
        fill: #cebf80;
      }

      .cls-19 {
        fill: #efef3c;
      }

      .cls-20 {
        fill: #c1b665;
      }

      .cls-8 {
        fill: #f7f5f5;
      }

      .cls-9 {
        fill: #ef807b;
      }

      .cls-10 {
        fill: #363a70;
      }

      .cls-11 {
        fill: #e5e138;
      }

      .cls-12 {
        fill: #144791;
      }

      .cls-13 {
        fill: #d1d1d1;
      }

      .cls-14 {
        fill: #ede57c;
      }

      .cls-15 {
        fill: #8fa8b7;
      }

      .cls-21 {
        fill: #afa777;
      }

      .cls-16 {
        fill: #fcfcfc;
      }
    </style>
  </defs>
  <path class="cls-19" d="m77.34,169.74c0,.14,0,.28-.01.41-.42,10.33-8.01,17.19-10.98,19.87-8.15,7.37-24.97,15.86-37.96,7.63-3.04-1.92-5.44-4.49-7.26-7.39-2.76-4.39-4.17-9.55-4.43-14.38,2.88.67,9.34-1.11,20.28-4.12,4.36-1.2,14.16-4.06,27.69-10.14,3.97-1.79,7.12-3.2,9.44-4.36,2.13,3.83,3.33,8.1,3.24,12.47Z"/>
  <path class="cls-20" d="m90.59,159.8c-3.61,3.74-7.54,6.97-13.26,10.35-5.81,3.44-13.48,7.03-24.53,11.49-19.68,7.94-25.27,8.6-30.03,8.62-.44,0-.99,0-1.64,0-5.7-.04-18.46-.57-20.38-6.19-1.84-5.4,6.55-14.69,18.91-22.63,0,0,0,0,0,0-.38.9-.76,1.79-1.14,2.69,0,0,0,0,0,0-3.36,4.8-4.65,9.2-3.03,11.01.26.29.64.57,1.21.74,2.88.67,9.34-1.11,20.28-4.12,4.36-1.2,14.16-4.06,27.69-10.14,3.97-1.79,7.12-3.2,9.44-4.36.69-.22,9.33-3.05,9.01-5.63-.2-1.64-3.98-2.87-4.78-3.13-1.6-.52-3.01-.61-4.15-.68-1.25-.08-2.51-.16-4.12.14-1.84.34-2.26.83-3.28.66-1.33-.22-2.25-1.32-2.82-2.2.33-.14.85-.35,1.48-.6h0s2.64-1.18,5.62-1.77c2.85-.57,24.03-1.86,25.76,4.8.81,3.13-2.77,7.34-6.26,10.96Z"/>
  <path class="cls-19" d="m73.91,157.2c-2.32,1.16-5.46,2.58-9.41,4.38-13.49,6.1-23.25,8.97-27.59,10.17-10.89,3.02-17.33,4.81-20.21,4.13-.08-1.39-.05-2.76.06-4.07.22-2.63.83-5.23,1.75-7.74,0,0,0,0,0,0,.38-.9.75-1.8,1.13-2.7,5.95-12.58,19.9-22.1,33.87-19.38,3.52.68,6.93,2.12,10.02,4.13.12.08.22.15.29.19,3.23,2.14,5.75,4.73,7.73,7.43.79,1.15,1.57,2.31,2.36,3.46Z"/>
  <path class="cls-20" d="m50.5,151.71c-1.89,2.34-3.46,6.39-1.94,7.96,1.55,1.61,5.96.27,8.45-2.19,2.94-2.9,4-8.1,2.2-9.55-1.77-1.43-6.31.79-8.72,3.78Z"/>
  <path class="cls-21" d="m52.7,151.32c-1.89,1.83-3.86,4.97-2.95,6.1.69.87,2.95.42,4.41-.47,3.28-2,4.09-7.19,2.88-8-1.11-.74-4.05,2.08-4.34,2.36Z"/>
  <path class="cls-20" d="m23.61,169.06c-.7.72-1.71,2.18-1.23,3.02.53.92,2.72.74,4.18.04,2.11-1.02,3.63-3.58,3-4.53-.68-1.02-4.09-.45-5.95,1.47Z"/>
  <path class="cls-21" d="m23.06,171.29c.18.53,2.04.72,3.16-.11.2-.15.34-.32.61-.65.17-.21,1.8-2.22,1.49-2.58-.46-.54-5.59,2.36-5.26,3.34Z"/>
  <path class="cls-21" d="m72.04,184.88c-.54-.52-3.07,1.4-4.4,2.4-1.21.91-2.17,1.8-2.64,3.14-.1.29-.39,1.11-.06,1.4.12.1.41.22,1.49-.31.96-.47,1.75-1.07,3.3-2.58,1.27-1.23,1.62-1.69,1.91-2.3.24-.49.71-1.45.4-1.75Z"/>
  <path class="cls-18" d="m72.61,180.77c-.3.15-.74.44-1.03.95-.53.93-.33,2.22.5,3.26"/>
  <path class="cls-18" d="m61.64,190.95c.1-.08.78-.58,1.69-.39.95.2,1.37.98,1.43,1.09"/>
  <path class="cls-20" d="m42.03,194.19c.46,1.17-2.03,3.69-3.19,3.27-.54-.2-.36-.87-1.02-1.61-1.4-1.58-4.22-.61-4.31-1.36-.09-.77,1.49-1.86,2.96-1.89.44,0,.73.08,1.24.23,3.6,1.05,4.12.89,4.31,1.36Z"/>
  <path class="cls-21" d="m35.15,194.02c.03.22,1.08-.11,2.22.47.32.16.26.2,1.41,1.05,1.03.76,1.22.83,1.4.78.46-.14.77-1.05.49-1.67-.23-.51-.9-.68-2.23-1.02-1.18-.3-1.71-.24-1.93-.21-.69.1-1.38.42-1.35.6Z"/>
  <path class="cls-11" d="m30.5,150.61c1.17-1.62,1.69-2.41,1.56-2.53-.27-.25-3.27,2.69-3.74,3.15-3.09,3.03-5.1,5.04-6.62,8.22-1.1,2.3-1.76,4.83-1.44,4.98.24.11.96-1.25,2.41-3.42,2.48-3.7,3.66-4.6,7.83-10.4Z"/>
  <path class="cls-11" d="m46.21,198.74c-1.52.75-2.23,1.14-2.18,1.28.11.29,3.53-.72,4.06-.88,3.53-1.04,5.83-1.75,8.24-3.54,1.74-1.29,3.24-2.93,3.06-3.16-.14-.18-1.22.56-3.17,1.61-3.33,1.79-4.57,1.99-10.01,4.69Z"/>
  <path class="cls-11" d="m70.19,157.8c1.35-.61,1.98-.92,1.94-1.05-.08-.26-3.09.52-3.56.64-3.1.8-5.14,1.35-7.29,2.83-1.55,1.07-2.91,2.45-2.76,2.66.11.16,1.08-.45,2.81-1.31,2.96-1.46,4.05-1.6,8.87-3.79Z"/>
  <path class="cls-11" d="m52.93,143.51c1.06.05,1.56.05,1.58-.04.03-.19-2.14-.67-2.48-.75-2.24-.5-3.72-.81-5.57-.56-1.34.18-2.66.62-2.63.8.02.14.83.06,2.22.08,2.36.03,3.1.29,6.89.46Z"/>
  <path class="cls-11" d="m73.67,177.77c-.19.71-.26,1.04-.17,1.07.18.06.94-1.3,1.06-1.52.78-1.41,1.28-2.34,1.28-3.64,0-.94-.26-1.93-.44-1.95-.14-.02-.17.55-.37,1.48-.34,1.59-.7,2.03-1.36,4.55Z"/>
  <path class="cls-2" d="m70.65,186.2c-.31-.3-1.76.8-2.52,1.38-.69.52-1.24,1.03-1.52,1.8-.06.17-.23.64-.04.8.07.06.23.13.86-.18.55-.27,1-.61,1.9-1.48.73-.71.93-.97,1.1-1.32.14-.28.4-.83.23-1Z"/>
  <path class="cls-2" d="m56.07,150.83c-.5-.33-1.52.42-2.17.9-1.14.84-1.68,1.77-2.11,2.55-.43.76-.73,1.31-.49,1.67.24.36.92.36,1.38.23.62-.18.74-.58,1.6-1.43,1-.99,1.23-.83,1.6-1.43.53-.86.68-2.15.19-2.48Z"/>
  <path class="cls-2" d="m27.12,168.67c-.11-.1-.4.21-1.62,1-.35.23-.78.5-.91.97-.04.15-.02.21,0,.24.18.18,1-.36,1.29-.55.75-.49.96-.83,1.02-.94.04-.07.34-.59.21-.72Z"/>
  <path class="cls-7" d="m29.17,168.15c-.06-.01-.13.52-.5,1.21-.29.55-.65.97-.79,1.13-.32.37-.55.55-.53.57.03.03.6-.3,1.07-.86.5-.59.65-1.17.69-1.33.08-.34.1-.7.06-.71Z"/>
  <path class="cls-7" d="m24.2,172.15c-.02-.05-.28.08-.66.02-.31-.05-.56-.21-.7-.3-.21-.14-.31-.25-.32-.24-.02.02.21.34.58.56.18.11.4.23.66.2.24-.03.45-.19.43-.23Z"/>
  <path class="cls-7" d="m24,169.23s.39-.34,1.04-.74c.53-.32,1.03-.54,1.22-.62.46-.19.73-.26.72-.28,0-.03-.63.07-1.31.36-.71.31-1.14.68-1.26.79-.25.22-.46.47-.43.49Z"/>
  <path class="cls-7" d="m6.5,187.23c.37-.07-1.69-1-2.85-2.59-.93-1.29-.88-2.45-.86-2.91.06-1.06.5-1.67.32-1.67-.29,0-1.95,1.36-1.96,2.94-.01,1.66,1.82,2.76,2.36,3.07,1.13.64,2.69,1.22,2.99,1.16Z"/>
  <path class="cls-7" d="m66.19,146.28c.08.19,2.1-.51,5.65-1.14,3.31-.59,5.42-.66,5.41-.88-.01-.18-1.51-.29-2.51-.3-.8,0-2.82.03-5.41.88-1.53.5-3.22,1.27-3.14,1.44Z"/>
  <path class="cls-7" d="m83.47,164.18c.13.19-2.9,2.65-6.36,4.85-3.55,2.27-6.72,3.72-11.22,5.83-1.4.66-2.88,1.32-4.48,2-4.6,1.95-9.08,3.42-9.15,3.23-.06-.16,3.15-1.37,8.52-4.13,3.31-1.7,2.95-1.68,6.48-3.52,5.35-2.79,6.19-2.84,10.91-5.38,3.44-1.85,5.21-3.02,5.3-2.87Z"/>
  <path class="cls-7" d="m20.99,177.88c6.57-2.01,12-3.88,11.96-3.99-.05-.13-8.31,2.69-14.47,2.97-1.1.05-3.17.07-4.17-1.23-.48-.62-.55-1.34-.62-1.9-.12-1.11.1-2.11.96-4.16,1.16-2.79,2.09-4.17,2.05-4.19-.08-.05-5.23,5.33-3.8,9.48.75,2.18,3.02,3.14,3.13,3.19,1.83.75,3.61.24,4.94-.17Z"/>
  <path class="cls-7" d="m66.32,161.67c.06.11-1.6,1.29-3.47,2.32-1.92,1.07-3.62,1.73-6.03,2.68-.75.3-1.54.6-2.4.9-2.46.87-4.84,1.49-4.87,1.39-.03-.09,1.69-.62,4.57-1.88,1.78-.78,1.59-.78,3.49-1.63,2.88-1.29,3.32-1.28,5.85-2.46,1.85-.86,2.81-1.41,2.85-1.33Z"/>
  <path class="cls-11" d="m52.43,149.03c-.12-.21-2.79.29-4.15,2.47-1.13,1.82-.84,3.98-.67,4.01.12.02.17-1.02.75-2.27,1.36-2.95,4.2-3.98,4.07-4.21Z"/>
  <path class="cls-11" d="m29.15,190.71c-1.48.38-2.42.63-2.4.79.03.25,2.34.19,4.15-.01,3.71-.41,6.44-1.5,7.25-1.84,3.3-1.38,6.03-3.32,5.93-3.5-.06-.11-1.09.46-2.98,1.2-2.07.81-3.45,1.16-11.96,3.36Z"/>
  <path class="cls-11" d="m40.54,169.25c1.2-.35,1.96-.57,1.93-.73-.05-.25-1.96-.23-3.45-.07-3.05.33-5.24,1.35-5.89,1.67-2.63,1.29-4.76,3.15-4.66,3.34.06.11.87-.43,2.39-1.13,1.66-.76,2.78-1.07,9.68-3.07Z"/>
  <path class="cls-2" d="m40.07,194.78c0-.1-.27-.13-1.16-.44-.26-.09-.57-.21-.86-.08-.1.04-.11.07-.12.1-.02.16.58.37.79.45.55.19.81.16.89.15.05,0,.44-.06.45-.17Z"/>
  <path class="cls-7" d="m28.89,183.65c5.3-.85,9.86-2.32,9.81-2.54-.03-.14-1.83.32-5.75.75-2.37.26-4.74.64-7.12.8,0,0-1.97.13-4.86,1.78,0,0-.02.01-.02.02.02.15,4.48-.25,7.94-.81Z"/>
  <path class="cls-11" d="m63.16,185.48c1.2-.35,1.96-.57,1.93-.73-.05-.25-1.96-.23-3.45-.07-3.05.33-5.24,1.35-5.89,1.67-2.63,1.29-4.76,3.15-4.66,3.34.06.11.87-.43,2.39-1.13,1.66-.76,2.78-1.07,9.68-3.07Z"/>
  <path class="cls-11" d="m42.04,157.29c1.2-.35,1.96-.57,1.93-.73-.05-.25-1.96-.23-3.45-.07-3.05.33-5.24,1.35-5.89,1.67-2.63,1.29-4.76,3.15-4.66,3.34.06.11.87-.43,2.39-1.13,1.66-.76,2.78-1.07,9.68-3.07Z"/>
  <path class="cls-11" d="m48.58,147.36c1.2-.35,1.96-.57,1.93-.73-.05-.25-1.96-.23-3.45-.07-3.05.33-5.24,1.35-5.89,1.67-2.63,1.29-4.76,3.15-4.66,3.34.06.11.87-.43,2.39-1.13,1.66-.76,2.78-1.07,9.68-3.07Z"/>
  <path class="cls-7" d="m49.83,173.87c5.3-.85,9.86-2.32,9.81-2.54-.03-.14-1.83.32-5.75.75-2.37.26-4.74.64-7.12.8,0,0-1.97.13-4.86,1.78,0,0-.02.01-.02.02.02.15,4.48-.25,7.94-.81Z"/>
  <g>
    <path class="cls-16" d="m190.97,351.63c-.87,0-1.72-.1-2.51-.3-4.54-1.13-6.94-5.24-10.91-12.05-3.37-5.77-7.18-12.3-6.15-19.87.62-4.55,2.62-7.22,4.38-9.59,1.7-2.28,3.17-4.25,2.5-7.1-.8-3.39-3.89-4.68-7.46-6.18-3.52-1.48-7.91-3.32-11.5-7.75-5.51-6.8-7.45-17.5-3.76-20.81.62-.56,1.3-.81,2.2-.81,1.1,0,2.41.37,4.07.84,2.69.76,6.04,1.71,10.62,1.71.42,0,.84,0,1.28-.02,6.67-.26,11-2.39,14.47-4.1,2.35-1.16,4.21-2.07,6.09-2.07.86,0,1.68.19,2.52.59,1.69.8,4.38,7.56,9.26,19.83,2.31,5.8,3.16,8.33,3.04,11.93-.07,1.96-.4,3.18-.72,4.36-.39,1.45-.77,2.82-.55,5.25.22,2.46.88,3.96,1.45,5.28.64,1.46,1.19,2.73,1.18,5.07-.01,1.71-.32,2.58-.71,3.69-.35.99-.74,2.12-1,4.06-.46,3.42.01,5.58.43,7.49.25,1.14.48,2.21.46,3.4-.1,7.85-10.22,17.14-18.67,17.14Z"/>
    <path class="cls-6" d="m194.28,264.03h0c.78,0,1.53.18,2.31.54,1.52.72,4.5,8.21,9.01,19.56,2.28,5.73,3.13,8.22,3,11.73-.07,1.9-.39,3.09-.71,4.24-.41,1.5-.79,2.91-.56,5.43.23,2.54.9,4.08,1.49,5.44.62,1.41,1.15,2.63,1.13,4.87-.01,1.62-.31,2.46-.68,3.52-.36,1.01-.76,2.16-1.03,4.16-.47,3.51.01,5.72.44,7.67.25,1.16.47,2.16.45,3.29-.1,7.47-10.12,16.65-18.17,16.65-.83,0-1.64-.1-2.39-.28-4.33-1.08-6.69-5.12-10.6-11.82-3.49-5.98-7.1-12.16-6.09-19.55.6-4.42,2.56-7.04,4.29-9.35,1.7-2.28,3.31-4.44,2.59-7.51-.86-3.64-4.05-4.98-7.75-6.53-3.65-1.53-7.79-3.27-11.31-7.61-5.69-7.02-6.97-17.29-3.82-20.13.52-.47,1.1-.68,1.86-.68,1.03,0,2.31.36,3.93.82,2.58.73,6.11,1.73,10.76,1.73.42,0,.85,0,1.29-.03,6.77-.26,11.16-2.42,14.68-4.15,2.29-1.13,4.11-2.02,5.87-2.02m0-1c-4.88,0-9.49,5.74-20.58,6.17-.43.02-.85.02-1.26.02-7.39,0-11.68-2.55-14.69-2.55-.95,0-1.78.26-2.53.93-3.84,3.45-2.04,14.41,3.71,21.5,7.28,8.98,17.36,7.39,18.86,13.74,1.26,5.33-5.64,7.31-6.89,16.5-1.05,7.74,2.75,14.26,6.22,20.19,3.97,6.79,6.48,11.1,11.22,12.28.86.21,1.74.31,2.64.31,8.81,0,19.07-9.7,19.17-17.64.04-3.24-1.62-5.42-.9-10.84.54-4.06,1.69-4.45,1.71-7.81.03-4.68-2.18-5.41-2.63-10.4-.39-4.27,1.11-5.08,1.27-9.54.13-3.72-.79-6.41-3.07-12.13-5.09-12.81-7.64-19.21-9.51-20.1-.95-.45-1.84-.64-2.73-.64h0Z"/>
  </g>
  <path class="cls-5" d="m17.94,300.1c2.87-3.4,11.19-12.31,24.91-15.17,3.97-.83,13.74-2.86,24.03,2.14,5.47,2.66,9.06,6.32,11.09,8.76-.26,1.37-.62,2.69-1.04,3.93-.85,2.49-2.07,4.87-3.58,7.08,0,0,0,0,0,0-.58.78-1.17,1.56-1.75,2.34-8.82,10.76-24.66,16.62-37.55,10.6-3.24-1.52-6.21-3.74-8.72-6.44-.1-.11-.18-.2-.24-.25-2.61-2.86-4.43-5.98-5.7-9.08-.48-1.31-.97-2.62-1.45-3.93Z"/>
  <g>
    <path class="cls-7" d="m76.52,233.31c.41.46,6.3-2.82,17.17-6.93,10.11-3.83,16.8-5.46,16.59-6.05-.18-.49-5.07.21-8.27.85-2.56.51-8.98,1.97-16.59,6.05-4.49,2.4-9.28,5.66-8.9,6.08Z"/>
    <g>
      <path class="cls-16" d="m200.38,250.89c-16.63,0-38.82-3.37-50.1-19.43-8.37-11.92-7.51-26.42-6.74-39.21,1.15-19.21,7.65-36.58,18.79-50.26,10.09-12.38,19.2-15.67,30.73-19.82,8.57-3.08,18.27-6.58,31-14.38l.13-.08c2.32-1.42,7.15-4.38,12.85-4.38,1.12,0,2.23.12,3.3.35,4.18.92,7.06,3.39,9.1,5.43,29.9,30.05,40.37,75.86,40.47,76.32,5.93,26.65,2.38,33.97-.8,37.17-1.65,1.65-3.13,2.29-7.51,4.19-2.37,1.02-5.6,2.43-10.13,4.54-7.7,3.6-13.04,6.42-16.23,8.11-1.08.57-1.92,1.01-2.54,1.32-8.42,4.21-30.22,10.13-52.31,10.13Z"/>
      <path class="cls-6" d="m237.04,102.83v1c1.09,0,2.16.11,3.19.34,4.06.89,6.86,3.3,8.85,5.3,29.8,29.95,40.24,75.61,40.34,76.07,5.88,26.41,2.43,33.6-.67,36.71-1.58,1.59-3.04,2.22-7.36,4.09-2.37,1.02-5.61,2.43-10.15,4.55-7.72,3.61-13.07,6.43-16.26,8.12-1.07.57-1.91,1.01-2.52,1.31-8.38,4.18-30.08,10.07-52.09,10.07-16.51,0-38.53-3.33-49.69-19.22-8.27-11.78-7.41-26.18-6.65-38.89,1.14-19.1,7.6-36.38,18.67-49.97,10.01-12.28,18.61-15.38,30.51-19.67,8.59-3.09,18.32-6.6,31.09-14.43l.13-.08c2.28-1.4,7.03-4.31,12.59-4.31v-1m0,0c-5.96,0-11.04,3.19-13.24,4.54-30.47,18.67-44.42,12.91-61.86,34.31-16.79,20.6-18.5,43.9-18.9,50.54-.78,13.02-1.64,27.46,6.83,39.53,10.44,14.87,30.52,19.65,50.51,19.65,21.83,0,43.56-5.7,52.54-10.18,2.45-1.22,8.48-4.62,18.76-9.42,12.85-6.01,15.14-6.18,17.79-8.83,2.91-2.92,7.15-9.74.94-37.63,0,0-10.26-46.06-40.61-76.56-1.8-1.81-4.85-4.58-9.34-5.57-1.16-.25-2.3-.36-3.41-.36h0Z"/>
    </g>
    <path class="cls-17" d="m287.6,210.82c-.38,5.58-3.57,12.64-7.23,12.7-3.67.06-6.52-6.92-7.07-11.8-.2-1.76-.46-4.43.93-7.22,1.68-3.38,5.63-6.64,8.85-5.73,4.06,1.15,4.78,8.32,4.52,12.05Z"/>
    <g>
      <path class="cls-16" d="m279.46,208.8c-4.85,0-8.88-4.25-16.16-12.39-10.45-11.69-15.7-17.56-14.1-24,1.82-7.31,10.99-12.99,17.66-12.99,1.07,0,2.07.14,2.96.42.17.05.21.07.47.19.23.1.61.27,1.34.57,5.29,2.22,8.79,3.34,11.11,4.07,1.43.46,2.46.78,3.25,1.15,2.8,1.32,5.19,4.46,6.75,8.84,2.63,7.39,2.25,16.51-.97,23.23-3.21,6.7-7.04,10.35-11.37,10.84-.32.04-.63.05-.94.05h0Z"/>
      <path class="cls-6" d="m266.87,159.92c1.02,0,1.97.13,2.81.39.15.05.19.07.41.16.23.1.62.27,1.35.58,5.31,2.23,8.82,3.35,11.15,4.09,1.41.45,2.43.77,3.18,1.13,2.67,1.26,4.98,4.3,6.49,8.56,2.59,7.27,2.21,16.24-.95,22.85-3.13,6.54-6.82,10.09-10.98,10.56-.3.03-.59.05-.89.05-4.64,0-8.6-4.19-15.79-12.23-10.34-11.56-15.52-17.36-13.98-23.54,1.77-7.1,10.69-12.61,17.18-12.61m0-1c-7.12,0-16.3,5.96-18.15,13.37-1.67,6.69,3.62,12.61,14.21,24.45,7.01,7.83,11.34,12.56,16.53,12.56.33,0,.66-.02,1-.06,6.81-.78,10.72-8.95,11.76-11.13,5.79-12.09,1.87-29.02-6.02-32.74-2.14-1.01-5.88-1.66-14.37-5.23-1.62-.68-1.52-.67-1.86-.78-.96-.3-2.01-.44-3.11-.44h0Z"/>
    </g>
    <g>
      <path class="cls-16" d="m114.16,240.03c-1.94,0-5.45-.81-11.83-2.27-2.51-.58-4.54-1.1-6.33-1.56-3.75-.97-6.23-1.6-8.8-1.6-1.09,0-2.18.12-3.35.36-1.64.34-2.49.73-3.31,1.12-.89.41-1.81.84-3.85,1.25-1.68.34-4.22.86-6.74.86s-4.44-.5-5.87-1.48c-2.12-1.45-3.65-4.38-4.19-8.02-.74-5.02.51-10.41,3.19-13.75,2.08-2.58,4.34-3.22,7.21-4.04,3.11-.88,6.98-1.99,11.67-6.1,1.17-1.02,2.05-1.94,2.84-2.74,1.68-1.73,2.79-2.88,5.06-3.4.64-.15,1.24-.22,1.86-.22,1.21,0,2.3.28,3.57.6,1.71.43,3.64.92,6.48.92,3.07,0,4.79-.57,6.31-1.08,1.07-.35,1.99-.66,3.22-.72.16,0,.32-.01.48-.01,4.82,0,10.95,3.5,15.25,8.7,4.29,5.2,6.05,11.19,4.96,16.87-1.75,9.1-10.13,15.43-17.22,16.29-.18.02-.38.03-.6.03Z"/>
      <path class="cls-6" d="m111.77,198.63c4.61,0,10.72,3.51,14.86,8.52,4.19,5.08,5.92,10.92,4.85,16.45-1.71,8.88-9.88,15.05-16.78,15.89-.16.02-.34.03-.54.03-1.88,0-5.38-.8-11.74-2.26-2.48-.57-4.51-1.09-6.3-1.55-3.79-.98-6.29-1.62-8.92-1.62-1.12,0-2.25.12-3.45.37-1.7.35-2.58.76-3.42,1.15-.9.42-1.76.81-3.74,1.22-1.66.34-4.17.85-6.64.85s-4.24-.47-5.59-1.4c-2.01-1.37-3.46-4.17-3.98-7.68-.72-4.89.49-10.13,3.09-13.36,1.98-2.46,4.18-3.08,6.96-3.87,3.16-.9,7.09-2.02,11.86-6.2,1.18-1.04,2.08-1.96,2.86-2.77,1.67-1.73,2.68-2.77,4.81-3.26.6-.14,1.17-.21,1.74-.21,1.14,0,2.21.27,3.44.58,1.74.44,3.7.94,6.62.94,3.13,0,4.9-.59,6.45-1.1,1.03-.34,1.92-.64,3.09-.7.15,0,.3-.01.45-.01m0-1c-.17,0-.34,0-.5.01-3.12.16-4.39,1.8-9.49,1.8h-.02c-4.91,0-7.13-1.52-10.05-1.52-.61,0-1.26.07-1.97.23-3.51.81-4.42,3.02-8.11,6.26-8.82,7.73-14.39,4.54-18.95,10.2-5.18,6.44-4.49,18.67,1.1,22.49,1.74,1.19,3.96,1.57,6.16,1.57,2.57,0,5.12-.52,6.84-.87,4-.82,3.83-1.68,7.16-2.37,1.16-.24,2.21-.35,3.25-.35,3.7,0,7.27,1.37,15,3.15,6.41,1.47,9.97,2.29,11.96,2.29.24,0,.46-.01.66-.04,7.45-.9,15.89-7.59,17.65-16.69,2.68-13.88-11.61-26.17-20.7-26.17h0Z"/>
    </g>
    <g>
      <path class="cls-16" d="m117,239.14c-1.09,0-1.81-.23-2.19-.71-.94-1.17,0-2.97,1.3-5.46,1.64-3.14,3.88-7.44,3.35-12.92-.61-6.27-4.39-10.39-7.43-13.7-2.21-2.41-3.95-4.3-3.38-6,.55-1.63,3.42-3.58,13.97-3.58,3.54,0,7.8.22,12.64.65l.38.03.13-.36c3.46-9.17,8.19-21.73,11.65-30.91,2.41-6.42,6.88-18.31,9.32-24.78,6.32-6.35,28.64-26.62,55.74-26.62,3.14,0,6.28.28,9.33.84,10.07,1.83,22.64,11.14,47.68,29.68,5.96,4.41,18.36,13.59,16.62,18.33-.57,1.55-2.38,1.88-5.13,2.38-2.93.54-6.94,1.27-11.12,4.06-5.84,3.89-8.45,9.4-10.36,13.43-1.58,3.33-2.72,5.73-4.78,5.78-3.58,0-6.8-6.69-8.93-11.12-1.7-3.55-2.5-5.11-3.47-5.11-.09,0-.18.01-.27.04-2.46.84,1.08,14.8,1.12,14.94.87,3.38,1.69,5.62,2.29,7.25.75,2.03,1.09,2.96.71,3.85-.75,1.76-3.81,2.65-9.1,2.65-5.99,0-14.88-1.18-26.42-3.5l-.11-.02-.11.03c-14.47,3.43-25.23,5.17-32,5.17-4.78,0-7.59-.84-8.34-2.51-.33-.74-.31-1.76-.29-2.57.02-.96.04-1.79-.65-1.97l-.06-.02h-.12c-1.15,0-2.23,2.5-6.61,13.12l-.49,1.19c-4.62,11.19-4.93,11.79-5.49,12.53-2.22,2.93-5.31,4.99-17.75,9.44-11.49,4.12-18.16,6.45-21.65,6.45Z"/>
      <path class="cls-6" d="m212.48,115.29c3.11,0,6.22.28,9.25.83,9.95,1.81,22.49,11.09,47.47,29.59,5.4,4,18.06,13.37,16.45,17.76-.45,1.22-1.94,1.55-4.75,2.07-2.97.54-7.04,1.29-11.31,4.14-5.96,3.97-8.6,9.55-10.53,13.63-1.65,3.48-2.67,5.46-4.34,5.5h-.06c-3.2,0-6.33-6.52-8.41-10.84-1.84-3.84-2.64-5.4-3.92-5.4-.15,0-.29.02-.43.07-.98.34-1.53,1.49-1.01,6.03.31,2.74.99,6.3,1.81,9.51.87,3.41,1.7,5.66,2.31,7.3.76,2.06,1.01,2.81.72,3.48-.64,1.51-3.71,2.35-8.64,2.35-5.96,0-14.81-1.18-26.32-3.49l-.21-.04-.21.05c-14.43,3.42-25.15,5.15-31.88,5.15-5.69,0-7.43-1.2-7.88-2.21-.29-.64-.27-1.59-.25-2.36.02-1.03.05-2.19-1.03-2.46-.1-.03-.2-.04-.31-.04-1.49,0-2.32,1.92-7.08,13.46l-.48,1.17c-4.59,11.13-4.89,11.72-5.42,12.42-2.16,2.84-5.2,4.86-17.52,9.27-10.4,3.73-17.91,6.42-21.48,6.42-.92,0-1.52-.18-1.81-.53-.7-.87.02-2.36,1.36-4.92,1.67-3.19,3.95-7.57,3.4-13.2-.63-6.44-4.64-10.8-7.56-13.99-2.09-2.28-3.75-4.09-3.27-5.5.41-1.21,2.7-3.24,13.5-3.24,3.53,0,7.77.22,12.6.65l.76.07.27-.71c3.46-9.17,8.19-21.73,11.65-30.91,2.4-6.38,6.84-18.18,9.28-24.68,6.39-6.4,28.51-26.39,55.31-26.39m0-1c-28.88,0-52.46,23.1-56.17,26.84-2.42,6.45-6.93,18.43-9.35,24.88-3.45,9.18-8.18,21.73-11.65,30.91-5.08-.45-9.26-.65-12.69-.65-10.25,0-13.73,1.79-14.45,3.92-1.5,4.47,9.72,8.98,10.79,19.91.96,9.76-7.07,15.51-4.54,18.65.49.61,1.34.9,2.58.9,3.65,0,10.66-2.48,21.82-6.48,12.84-4.6,15.74-6.66,17.98-9.61.6-.79.84-1.24,5.55-12.64,3.88-9.4,5.74-14.01,6.64-14.01.02,0,.04,0,.06,0,.64.16-.12,2.65.61,4.26.76,1.69,3.31,2.8,8.8,2.8,6.28,0,16.41-1.46,32.11-5.18,12.61,2.54,21.01,3.51,26.52,3.51,6.33,0,8.85-1.28,9.56-2.95.81-1.9-.99-3.66-2.98-11.43-1.61-6.29-2.67-13.92-1.44-14.34.03-.01.07-.02.11-.02,1.92,0,6.32,16.24,12.32,16.24.03,0,.05,0,.08,0,5.18-.13,4.85-12.26,15.4-19.29,8-5.33,15.08-2.96,16.45-6.69,1.68-4.59-7.59-12.09-16.79-18.91-25.14-18.62-37.71-27.93-47.89-29.77-3.19-.58-6.34-.84-9.42-.84h0Z"/>
    </g>
    <g>
      <path class="cls-16" d="m227.1,284.56c-1.63,0-3.02-.31-4.13-.93-.86-.48-2.87-1.6-5.86-15.15-1.68-7.61-2.83-15.34-3.43-22.99l-.03-.41-.41-.05c-1.62-.19-3.15-.29-4.55-.29-5.28,0-9.18,1.36-11.57,4.04-2.39,2.67-2.44,5.72-2.5,8.95-.06,3.13-.12,6.67-2.3,10.56-3.26,5.82-9.63,9.95-16.22,10.51-.53.05-1.07.07-1.6.07-8.09,0-15.05-5.31-18.36-10.57-6.25-9.96-3.09-24.24,3.27-33.21,2.65-3.73,5.75-6.34,8.49-8.63,3.95-3.31,7.06-5.92,6.81-10.2-.16-2.68-1.59-4.37-2.74-5.72-1.02-1.21-1.83-2.16-1.59-3.44.76-4.08,11.18-5.3,28.44-7.33,2.2-.26,4.52-.53,6.96-.82,2.85-.34,5.55-.68,8.09-.99,9.92-1.23,17.75-2.21,23.17-2.21s8.25.95,9.36,3.08c.19.37.21.51.38,3.75.05.93.11,2.1.19,3.6.09,1.59.26,3.19.43,4.75.3,2.82.62,5.73.43,8.57-.97,14.57.96,23.61,2.52,30.88,1.6,7.46,2.65,12.38-.62,18.76-4.73,9.23-15.52,15.44-22.63,15.44Z"/>
      <path class="cls-6" d="m237.03,196.23h0c5.15,0,7.9.87,8.92,2.81.14.27.16.5.32,3.55.05.93.11,2.11.19,3.61.09,1.6.26,3.21.43,4.77.3,2.79.61,5.68.43,8.48-.98,14.64,1.05,24.1,2.53,31.02,1.57,7.35,2.61,12.21-.57,18.43-4.64,9.07-15.22,15.16-22.19,15.16-1.55,0-2.85-.29-3.89-.87-.73-.41-2.67-1.49-5.62-14.82-1.67-7.58-2.82-15.3-3.42-22.92l-.06-.82-.82-.1c-1.63-.19-3.19-.29-4.61-.29-5.43,0-9.45,1.41-11.94,4.2-2.51,2.81-2.56,5.95-2.62,9.28-.06,3.22-.12,6.54-2.24,10.32-3.18,5.68-9.4,9.71-15.83,10.26-.52.04-1.04.07-1.56.07-7.9,0-14.71-5.19-17.94-10.34-6.14-9.77-3.01-23.82,3.26-32.66,2.61-3.68,5.69-6.26,8.41-8.54,3.89-3.27,7.25-6.08,6.99-10.61-.17-2.84-1.66-4.6-2.86-6.02-1.07-1.27-1.67-2.03-1.48-3.02.69-3.72,11.56-4.99,28.01-6.92,2.2-.26,4.52-.53,6.96-.82,2.85-.34,5.55-.68,8.09-.99,9.9-1.23,17.72-2.2,23.11-2.2m0-1c-6.82,0-17.11,1.49-31.31,3.2-22.5,2.71-34.9,3.58-35.83,8.56-.59,3.14,4.04,4.45,4.32,9.28.41,6.9-8.77,9.43-15.21,18.52-6.23,8.79-9.75,23.48-3.29,33.77,3.57,5.69,10.69,10.81,18.79,10.81.54,0,1.09-.02,1.64-.07,7.11-.61,13.48-5.17,16.62-10.77,4.5-8.02.22-14.38,4.73-19.42,2.65-2.96,6.88-3.87,11.19-3.87,1.51,0,3.03.11,4.49.28.42,5.4,1.31,13.43,3.44,23.06,2.92,13.23,4.93,14.83,6.11,15.48,1.22.68,2.71,1,4.38,1,7.43,0,18.28-6.35,23.08-15.71,6.53-12.75-3.84-20.08-1.85-49.83.3-4.46-.61-8.92-.86-13.38-.38-6.75-.31-6.95-.63-7.56-1.28-2.43-4.48-3.35-9.81-3.35h0Z"/>
    </g>
    <g>
      <path class="cls-16" d="m230.06,344.92c-1.93,0-3.77-.28-5.46-.83-12.15-3.95-15.52-21.71-14.79-31.98.33-4.68,1.43-7.1,2.7-9.89,1.3-2.86,2.77-6.11,3.57-12.42.94-7.43.29-13.68-.18-18.24-.37-3.57-.66-6.39.29-6.76.07-.03.14-.04.22-.04.83,0,2.07,1.58,3.39,3.26,2.45,3.12,5.8,7.39,10.79,7.78.24.02.48.03.72.03,3.7,0,6.56-2.27,9.08-4.27,2.1-1.67,4.09-3.25,6.21-3.25.44,0,.87.06,1.31.2,3.93,1.19,6.29,7.25,6.7,11.17.17,1.62,0,2.81-.2,4.31-.25,1.81-.56,4.07-.31,7.89.08,1.25.17,1.98.25,2.57.1.74.17,1.28.17,2.44,0,3.19-.52,5.35-1.18,8.08-.16.66-.33,1.35-.49,2.1-.51,2.27-.65,3.31-.86,4.87-.16,1.22-.37,2.75-.83,5.44-2.01,11.67-3.01,17.52-4.83,19.99-3.33,4.53-9.86,7.57-16.24,7.57Z"/>
      <path class="cls-6" d="m216.41,265.24c.58,0,1.98,1.77,2.99,3.07,2.5,3.19,5.93,7.56,11.14,7.97.26.02.51.03.76.03,3.87,0,6.8-2.33,9.39-4.38,2.03-1.62,3.95-3.14,5.9-3.14.39,0,.77.06,1.16.18,3.71,1.12,5.95,6.96,6.35,10.74.16,1.56,0,2.72-.19,4.19-.25,1.83-.56,4.12-.32,7.99.08,1.26.18,2,.25,2.6.09.72.16,1.25.16,2.38,0,3.13-.51,5.26-1.16,7.97-.16.66-.33,1.36-.5,2.1-.52,2.3-.67,3.39-.87,4.92-.16,1.22-.36,2.74-.83,5.43-1.93,11.22-2.99,17.4-4.74,19.77-3.24,4.41-9.6,7.37-15.84,7.37-1.88,0-3.67-.27-5.31-.8-11.88-3.86-15.16-21.35-14.44-31.47.33-4.59,1.41-6.97,2.65-9.72,1.31-2.89,2.8-6.17,3.61-12.57.95-7.49.3-13.77-.18-18.35-.26-2.54-.62-6.02-.02-6.25.02,0,.03,0,.04,0m0-1c-.14,0-.27.02-.4.08-2.71,1.06,1.37,11.18-.43,25.41-1.55,12.26-5.57,12.61-6.27,22.34-.76,10.61,2.72,28.46,15.13,32.49,1.79.58,3.69.85,5.62.85,6.45,0,13.17-3.05,16.64-7.77,1.89-2.57,2.9-8.45,4.92-20.2,1.05-6.11.77-6.24,1.68-10.29.86-3.79,1.69-6.26,1.68-10.29,0-2.16-.24-2.29-.42-5.04-.43-6.85.9-8.47.51-12.22-.43-4.05-2.85-10.32-7.05-11.59-.5-.15-.98-.22-1.45-.22-4.94,0-8.7,7.53-15.28,7.53-.22,0-.45,0-.68-.03-7.73-.6-11.42-11.04-14.21-11.04h0Z"/>
    </g>
    <g>
      <path class="cls-16" d="m162.51,136.52c-30.24,0-59.61-19.59-69.85-46.58-2.3-6.06-9-27.55,1.43-49.46C107.16,13.01,139.94.5,164.87.5c14.1,0,26.93,3.7,36.13,10.43,13.01,9.51,18.78,24.85,21.55,32.23,3,7.99,10.04,26.69,3.57,47.46-6.18,19.85-23.6,36.76-44.4,43.09-6.12,1.86-12.59,2.81-19.21,2.81Z"/>
      <path class="cls-6" d="m164.87,0v1c13.99,0,26.72,3.67,35.83,10.33,12.88,9.42,18.62,24.67,21.38,32,2.99,7.94,9.98,26.53,3.57,47.14-6.13,19.7-23.43,36.48-44.07,42.76-6.08,1.85-12.49,2.79-19.07,2.79-14.4,0-29.25-4.55-41.81-12.81-12.78-8.4-22.57-20.28-27.57-33.45-2.28-6.02-8.93-27.34,1.41-49.07,5.76-12.11,15.92-22.3,29.38-29.47,12.37-6.59,26.92-10.23,40.95-10.23V0M164.87,0c-27.9,0-58.81,14.16-71.23,40.26-11.1,23.33-2.77,46.37-1.45,49.85,10.6,27.94,40.5,46.9,70.32,46.9,6.53,0,13.05-.91,19.36-2.83,19.46-5.92,38-21.78,44.74-43.42,6.51-20.94-.46-39.48-3.58-47.79-2.85-7.57-8.6-22.86-21.72-32.45C191.57,3.42,178.59,0,164.87,0h0Z"/>
    </g>
    <g>
      <path class="cls-10" d="m130.67,143.22c-10.28,0-18.86-2.56-25.49-7.6-21.33-16.22-20.04-56.23-4.63-81.16,12.85-20.8,37.28-35.33,59.4-35.33,6.07,0,11.79,1.1,16.98,3.26,18.73,7.79,27.51,27.88,32.75,39.88,3.87,8.85,7.86,17.99,5.58,29.05-2.55,12.35-11.43,20.18-19.26,27.09-7.61,6.71-16.34,12.02-25.94,15.78-6.91,2.7-23.1,9.03-39.38,9.03,0,0,0,0,0,0Z"/>
      <path class="cls-6" d="m159.94,19.62c6,0,11.65,1.08,16.79,3.22,18.54,7.71,27.27,27.69,32.49,39.62,3.83,8.77,7.8,17.85,5.54,28.75-2.52,12.19-11.33,19.96-19.11,26.82-7.56,6.67-16.24,11.95-25.79,15.69-6.89,2.69-23.01,9-39.2,9-10.17,0-18.64-2.52-25.19-7.5-9.79-7.45-15.46-20.48-15.97-36.69-.48-15.28,3.7-31.25,11.46-43.81,12.76-20.66,37.01-35.09,58.97-35.09m0-1c-22.61,0-47.16,15.07-59.82,35.57-15.8,25.57-16.74,65.46,4.76,81.82,7.52,5.72,16.66,7.71,25.79,7.71,16.37,0,32.71-6.39,39.56-9.07,5.95-2.33,16.01-6.98,26.09-15.87,7.85-6.93,16.84-14.85,19.42-27.37,2.27-10.99-1.53-20.01-5.61-29.35-5.18-11.86-14.1-32.28-33.02-40.14-5.42-2.26-11.23-3.3-17.18-3.3h0Z"/>
    </g>
    <g>
      <path class="cls-16" d="m206.92,52.22c-.87,0-1.72-.1-2.54-.3-8.2-2.02-12.58-14.13-11.02-23.61,1.88-11.43,12.57-20.64,20.17-20.64.83,0,1.62.11,2.34.33,3.45,1.07,6.44,4.92,8.19,10.58,2.39,7.71,2.21,18.75-3.56,26.04-2.78,3.51-8,7.6-13.59,7.6Z"/>
      <path class="cls-6" d="m213.53,8.17h0c.78,0,1.52.11,2.19.31,3.25,1,6.19,4.84,7.86,10.25,2.35,7.58,2.19,18.43-3.47,25.58-2.92,3.69-8.13,7.41-13.19,7.41-.82,0-1.64-.1-2.42-.29-7.94-1.96-12.17-13.78-10.65-23.04,1.79-10.89,12.32-20.22,19.68-20.22m0-1c-7.92,0-18.79,9.63-20.67,21.06-1.54,9.38,2.64,22.02,11.39,24.18.89.22,1.77.32,2.66.32,5.64,0,11.05-4.1,13.98-7.79,9.44-11.92,4.65-34.46-4.88-37.4-.78-.24-1.62-.36-2.48-.36h0Z"/>
    </g>
    <path class="cls-6" d="m213.1,13.5h0c1.68,0,2.96.38,3.31.5,5.24,1.76,8.8,8.12,7.95,14.18-.89,6.31-6.4,11.84-11.81,11.84-.41,0-.82-.03-1.22-.1-2.73-.43-4.56-2.34-5.62-3.87-2.44-3.51-3.54-8.95-2.68-13.22.79-3.92,2.59-6.67,5.36-8.18,1.41-.77,3-1.16,4.71-1.16m0-1c-1.53,0-3.37.29-5.19,1.29-4.58,2.5-5.6,7.55-5.86,8.86-1.4,6.93,1.97,17.14,9.13,18.27.46.07.92.11,1.38.11,6.08,0,11.88-6.16,12.8-12.7.89-6.33-2.8-13.32-8.63-15.27-.3-.1-1.72-.55-3.63-.55h0Z"/>
    <g>
      <path class="cls-16" d="m181.67,209.49c-3.08,0-5.18-.54-6.81-1.76-3.54-2.65-5.42-7.37-5.73-10.88-.21-2.43.26-4.39,1.33-5.52.71-.75,1.6-1.05,3.16-1.05.94,0,2.04.1,3.44.23,1.58.15,3.55.33,5.91.41.72.02,1.37.04,1.98.04,3.62,0,5.61-.4,7.92-.87,2.4-.49,5.4-1.09,11.27-1.43,1.93-.11,3.66-.16,5.29-.16,2.49,0,4.45.12,6.72.26,2.72.17,5.81.36,10.5.36.9,0,1.85,0,2.88-.02h.38c1.42,0,2.87.11,4.28.22,1.42.11,2.89.23,4.34.23.9,0,1.72-.04,2.49-.13l.71-.09c.79-.1,1.54-.19,2.23-.19,1.04,0,1.75.22,2.3.7.91.81,1.05,2.09,1.03,4.85-.05,6.67-.07,10.34-1.18,11.73-1.79,2.24-4.94,2.55-8.07,2.55-1.24,0-2.52-.06-3.89-.11l-.61-.03c-5-.21-7.96-1.21-10.83-2.18-2.77-.93-5.38-1.82-9.56-1.97-.35-.01-.66-.02-.96-.02-2.06,0-3.2.3-5.08.8-1.89.5-4.48,1.19-9.56,2.04-7.44,1.24-12.22,2-15.88,2Z"/>
      <path class="cls-6" d="m209.43,189h0c2.48,0,4.43.12,6.69.26,2.73.17,5.83.36,10.53.36.9,0,1.86,0,2.88-.02.13,0,.25,0,.38,0,1.4,0,2.84.11,4.24.22,1.43.11,2.91.23,4.38.23.92,0,1.76-.04,2.55-.14.24-.03.48-.06.71-.09.77-.1,1.51-.19,2.16-.19.91,0,1.52.18,1.97.58.76.68.88,1.87.86,4.48-.05,6.55-.07,10.16-1.07,11.41-1.34,1.68-3.56,2.36-7.69,2.36-1.23,0-2.51-.06-3.86-.11l-.61-.03c-4.93-.21-7.86-1.2-10.69-2.15-2.68-.9-5.45-1.84-9.71-1.99-.35-.01-.68-.02-.98-.02-2.13,0-3.28.31-5.2.82-1.88.5-4.46,1.18-9.51,2.02-7.41,1.24-12.18,1.99-15.8,1.99-2.97,0-4.98-.51-6.51-1.66-3.41-2.56-5.24-7.12-5.53-10.52-.19-2.25.24-4.12,1.19-5.13.61-.65,1.37-.89,2.8-.89.92,0,2.01.1,3.39.23,1.59.15,3.56.33,5.94.41.72.02,1.39.04,2,.04,3.67,0,5.68-.41,8.01-.88,2.51-.51,5.36-1.08,11.2-1.42,1.92-.11,3.64-.16,5.26-.16m0-1c-1.54,0-3.26.05-5.32.16-11.49.66-11.81,2.29-19.16,2.29-.61,0-1.26-.01-1.97-.03-4.37-.15-7.29-.64-9.37-.64-1.56,0-2.65.28-3.52,1.21-3.2,3.39-1.13,12.95,4.47,17.14,1.77,1.33,4.03,1.86,7.11,1.86,3.83,0,8.94-.83,15.97-2,10.3-1.72,10.6-2.83,14.55-2.83.29,0,.61,0,.95.02,8.49.31,10.56,3.73,20.39,4.14,1.56.07,3.08.14,4.51.14,3.6,0,6.66-.47,8.47-2.74,1.21-1.52,1.24-5.03,1.29-12.03.02-2.71-.09-4.25-1.2-5.23-.72-.64-1.63-.83-2.64-.83-.93,0-1.95.16-2.99.28-.81.09-1.62.13-2.44.13-2.86,0-5.75-.45-8.62-.45-.13,0-.26,0-.39,0-1.02.02-1.97.02-2.87.02-8.47,0-11.63-.62-17.22-.62h0Z"/>
    </g>
    <g>
      <path class="cls-4" d="m184.46,209.47c-.74,0-1.68-.06-2.88-.14-3-.2-4.5-.29-5.06-1.11-.99-1.43.48-4.22,1.51-5.64.76-1.05,1.61-2.23,2.73-2.33.05,0,.11,0,.16,0,1.73,0,3.62,2.33,4.66,4.49.91,1.9,1.17,3.7.62,4.37-.21.26-.74.37-1.73.37Z"/>
      <path class="cls-6" d="m180.91,200.74c1.25,0,3.06,1.81,4.21,4.2.97,2.03.99,3.47.69,3.84,0,0-.16.19-1.34.19-.72,0-1.66-.06-2.85-.14-2.65-.17-4.25-.28-4.68-.9-.77-1.12.47-3.64,1.5-5.06.69-.96,1.48-2.05,2.37-2.13.04,0,.08,0,.11,0m0-1c-.07,0-.14,0-.2,0-1.34.12-2.29,1.43-3.09,2.54-.27.37-2.94,4.15-1.51,6.22.7,1.02,2.28,1.12,5.44,1.32,1.2.08,2.16.14,2.92.14,1.11,0,1.78-.14,2.12-.56,1.66-2.06-2.25-9.67-5.67-9.67h0Z"/>
    </g>
    <g>
      <path class="cls-16" d="m212.46,205.49c-3.14,0-6.56-4.53-6.64-8.81-.05-2.49,1.07-5.34,2.77-7.09.99-1.01,2.05-1.55,3.07-1.56,1.35,0,2.46.9,3.16,1.66,1.89,2.06,3.05,5.52,2.8,8.43-.24,2.84-2.02,6.97-4.76,7.34-.14.02-.27.03-.41.03Z"/>
      <path class="cls-6" d="m211.69,187.54v1c1.15,0,2.15.81,2.77,1.5,1.81,1.96,2.91,5.27,2.67,8.05-.26,3.08-2.06,6.57-4.33,6.88-.11.02-.23.02-.35.02-2.85,0-6.06-4.35-6.14-8.32-.05-2.36,1.01-5.07,2.63-6.73.88-.9,1.84-1.4,2.72-1.41v-1m.01,0h-.02c-3.31.02-6.43,4.82-6.35,9.15.09,4.54,3.72,9.3,7.14,9.3.16,0,.32-.01.48-.03,3.01-.41,4.93-4.63,5.19-7.79.41-4.86-2.81-10.63-6.44-10.63h0Z"/>
    </g>
    <g>
      <path class="cls-1" d="m191.27,208.44c-.08,0-.09-.01-.12-.03-.48-.36-.62-2.09-.02-4.25.64-2.28,1.77-3.88,2.82-3.99.04,0,.08,0,.12,0,1.08,0,2.52,1.4,3.52,3.4.76,1.52,1.01,3,.61,3.54-.09.12-.26.16-1.19.29-.48.07-1.11.16-1.98.31-1.26.22-2.11.41-2.71.54-.52.12-.86.19-1.05.19Z"/>
      <path class="cls-6" d="m194.07,200.66c.85,0,2.2,1.37,3.07,3.12.78,1.56.83,2.64.69,2.96-.16.04-.52.09-.9.15-.48.07-1.12.16-1.99.32-1.27.22-2.15.42-2.73.55-.33.07-.63.14-.81.17-.26-.49-.29-2.31.45-4.38.68-1.91,1.57-2.82,2.15-2.88.02,0,.05,0,.07,0m0-1c-.06,0-.11,0-.17,0-2.85.28-4.69,7.9-3.05,9.13.12.09.25.13.42.13.49,0,1.38-.31,3.84-.74,2.73-.48,3.16-.36,3.49-.8,1.26-1.68-1.87-7.74-4.53-7.74h0Z"/>
    </g>
    <g>
      <path class="cls-1" d="m229.73,208.49c-.92,0-2.61-.41-4.96-.99-3.47-.85-3.97-1.36-4.03-1.55-.2-.68.17-1.84.94-2.96.8-1.17,2.16-2.46,3.6-2.6.08,0,.16-.01.23-.01,1.98,0,3.38,2.27,3.89,3.24,1.06,2.03,1.33,4.12.91,4.73-.02.03-.13.13-.58.13Z"/>
      <path class="cls-6" d="m225.51,200.89c1.17,0,2.45,1.09,3.42,2.93,1.03,1.95,1.17,3.67,1.01,4.16-.05,0-.12.01-.21.01-.85,0-2.53-.41-4.85-.97-2.82-.69-3.52-1.13-3.68-1.25-.09-.45.14-1.4.88-2.49.92-1.35,2.19-2.28,3.23-2.38.06,0,.13,0,.19,0m0-1c-.09,0-.19,0-.28.01-2.77.25-5.52,4.3-4.97,6.2.1.34.39.92,4.39,1.89,2.46.6,4.11,1,5.08,1,.5,0,.82-.11.99-.34,1.15-1.65-1.43-8.76-5.21-8.76h0Z"/>
    </g>
    <g>
      <path class="cls-4" d="m236.89,208.79c-.41,0-.52-.04-.53-.04-.25-.29-.15-1.58.62-3.31.97-2.18,2.73-4.4,4.22-4.4.06,0,.11,0,.17,0,.92.11,1.98,1.22,2.63,2.78.65,1.55.73,3.06.18,3.77-.37.48-2.26.7-4.89,1-1.07.12-1.87.19-2.39.19Z"/>
      <path class="cls-6" d="m241.2,201.54s.07,0,.1,0c.74.09,1.65,1.1,2.23,2.47.64,1.52.61,2.8.25,3.26-.35.33-2.49.58-4.56.82-1.05.12-1.84.18-2.33.18-.05,0-.09,0-.13,0-.06-.6.29-2.17,1.37-3.98,1.01-1.68,2.22-2.77,3.07-2.77m0-1c-3.05,0-6.46,7.14-5.16,8.58.07.07.18.17.85.17.47,0,1.23-.05,2.45-.19,3.16-.37,4.74-.56,5.23-1.2,1.44-1.87-.69-7.06-3.15-7.35-.07,0-.15-.01-.22-.01h0Z"/>
    </g>
    <g>
      <path class="cls-3" d="m211.1,201.8c-1.21,0-2.47-1.4-2.55-2.82-.09-1.51,1.06-2.92,2.03-2.98h0c.62,0,1.25.42,1.76,1.12.7.96.96,2.16.67,3.06-.23.72-.9,1.5-1.71,1.61-.07,0-.13.01-.2.01Z"/>
      <path class="cls-6" d="m210.64,196.5c.38,0,.89.36,1.3.92.6.82.84,1.87.6,2.61-.18.56-.7,1.19-1.3,1.27-.05,0-.09,0-.14,0-.95,0-1.99-1.19-2.05-2.35-.07-1.25.92-2.41,1.56-2.45h.03m0-1s-.06,0-.09,0c-1.31.08-2.6,1.81-2.5,3.51.1,1.69,1.56,3.29,3.05,3.29.09,0,.18,0,.27-.02,1.05-.14,1.84-1.08,2.12-1.95.67-2.05-1.12-4.83-2.85-4.83h0Z"/>
    </g>
    <path class="cls-18" d="m18.53,164.12c.34-.91.72-1.8,1.13-2.68,0,0,0,0,0,0-.38.9-.76,1.79-1.14,2.69Z"/>
    <path class="cls-12" d="m278.06,216.86c.94.86,1.6,1,2.32,2.07.5.75.87,1.86.52,2.07-.64.38-4.23-1.89-5.72-5.21-1.47-3.26-.53-6.64-.31-6.65.1,0,.12.44.39,1.53.69,2.75,1.18,4.72,2.8,6.19Z"/>
    <path class="cls-12" d="m284.08,211.55c.26-1.84.29-2.32.71-3.03.34-.56,1.13-1.61,1.57-1.45.83.3.36,4.8-1.3,8.63-1.05,2.42-2.49,4.38-2.69,4.28-.09-.05.11-.53.57-2.33,0,0,.17-.67.38-1.55.32-1.36.48-2.47.77-4.55Z"/>
    <path class="cls-8" d="m216.25,208.17c-1.15-.86-3.02.3-5.45,1.24-3.28,1.28-3.14.43-13.32,1.9-7.52,1.08-7.07,1.47-10.65,1.65-6.05.31-10.19-.64-10.25-.31-.05.31,3.84,1.53,8.5,2.07,5.67.66,5.99-.43,14.24-.39,4.35.02,8.68-.52,13.03-.68,1.21-.05,3.29-.12,4.23-1.54.81-1.21.66-3.2-.33-3.94Z"/>
    <path class="cls-15" d="m105.18,62c-1.46,2.6-15.14,27.42-7.11,35.59,2.8,2.85,8.33,3.77,10.07,1.95,1.2-1.26.34-3.57-.36-6.85,0,0-1.48-6.98-.72-15.75.66-7.62,4.15-13.76,8.34-21.09,2.09-3.67,2.96-5.43,4.7-8.96,1.92-3.9,2.88-5.86,2.61-6.06-.83-.61-10.53,8.71-17.52,21.17Z"/>
    <path class="cls-15" d="m189.75,58.51c-.71,2.34-2.94,6.3-6.32,6.29-4.73-.02-11.62-7.82-8.94-13.14,1.77-3.51,7.66-5.84,11.81-3.91,4.43,2.06,4.35,7.79,3.45,10.76Z"/>
    <path class="cls-15" d="m195.89,74.16c-.43,1.42-1.79,3.83-3.84,3.82-2.87-.01-7.06-4.75-5.43-7.98,1.07-2.13,4.65-3.55,7.17-2.37,2.69,1.25,2.64,4.73,2.09,6.53Z"/>
    <path class="cls-12" d="m211.38,200.88c-.19.28-.69.36-1.01.2-.62-.29-.58-1.41-.41-2.02.05-.19.16-.56.4-.61.23-.05.46.23.61.4.43.52.46,1.11.48,1.47.02.4-.05.51-.07.55Z"/>
    <path class="cls-9" d="m179.42,208.05c-.51-.03-.86-.18-1-.24-.32-.15-.75-.36-.88-.75-.22-.67.59-1.55,1.34-1.93.26-.13.65-.33,1.12-.26,1.07.17,1.95,1.67,1.52,2.49-.4.77-1.83.7-2.09.68Z"/>
    <path class="cls-9" d="m239.92,207.82c-.51-.03-.86-.18-1-.24-.32-.15-.75-.36-.88-.75-.22-.67.59-1.55,1.34-1.93.26-.13.65-.33,1.12-.26,1.07.17,1.95,1.67,1.52,2.49-.4.77-1.83.7-2.09.68Z"/>
    <path class="cls-14" d="m193.33,206.82c-.29.01-.48-.09-.55-.13-.17-.11-.4-.25-.45-.57-.08-.55.45-1.35.9-1.73.16-.13.39-.33.66-.3.6.07.98,1.28.68,2-.29.68-1.09.72-1.24.73Z"/>
    <path class="cls-14" d="m224.57,206.99c-.29.01-.48-.09-.55-.13-.17-.11-.4-.25-.45-.57-.08-.55.45-1.35.9-1.73.16-.13.39-.33.66-.3.6.07.98,1.28.68,2-.29.68-1.09.72-1.24.73Z"/>
    <path class="cls-13" d="m213.08,115.87c-2.8,9.73-6.45,13.45-9.41,14.99-1.18.61-2.86,1.19-4.83,2.94-3.03,2.69-3.06,4.85-5.59,6.05-1.48.7-2.93.54-5.82.23-5.01-.55-6.29-2.2-9.51-1.49-1.96.43-1.78,1.11-3.68,1.57-4.85,1.18-10.17-2.29-9.91-3.24.19-.71,3.35.51,9.11-.25,2.96-.39,5.52-1.31,10.65-3.17,3.79-1.37,6.99-2.54,11.03-4.72,3.01-1.62,5.21-3.12,5.8-3.53,2.43-1.67,3.64-2.76,8.11-6.26,1.76-1.37,3.19-2.47,4.05-3.13Z"/>
    <path class="cls-13" d="m251.97,304.31c.25,3.26.02,5.19-.26,6.36-.02.09-.07.27-.89,3.64-.21.86-.29,1.2-.3,1.21-1.1,4.54-.3,15.42-5.32,21.85-1.14,1.46-2.27,2.28-3.31,3.05-1.42,1.04-8.41,6.15-16.34,3.73-7.05-2.15-9.96-8.76-11.28-11.75-1.87-4.23-2.48-9.01-1.57-9.38.87-.35,2.34,3.59,7.02,8.14,2.89,2.81,5.69,5.53,10.04,6.3.57.1,6.35,1.03,10.89-2.49,6.51-5.05,7.25-16.74,7.46-20.04.06-1.03.19-3.98,1.77-7.28.73-1.53,1.55-2.66,2.1-3.35Z"/>
    <path class="cls-13" d="m158.23,235.18c.25.41-.22,1.1-.3,1.21-.47.67-1.21.86-1.51.92-1-1.04-2.02-2.15-3.05-3.31-1.44-1.64-2.76-3.26-3.97-4.82,2.17-1.71,2.86-1.99,3.02-1.84.14.14-.17.54-.3,1.21-.2,1.09.26,2,.62,2.72.08.17,1.79,3.49,4.26,3.61.42.02,1-.04,1.21.3Z"/>
    <path class="cls-13" d="m219.3,111.18c2.8-1.98,4.33-2.55,10.27-5.21,1.58-.71,2.59-1.19,4.23-1.54,1.59-.34,2.97-.37,3.94-.33.78.03,3.33.2,6.07,1.48,1.64.77,2.97,1.76,6.4,5.42,2.7,2.88,4.63,5.22,7.02,8.14,6.34,7.77,6.55,8.3,6.44,8.42-.44.43-6.17-4.66-7.2-5.59-9.93-8.99-11.92-12.98-17.18-13.63-1.12-.14-2.97.22-6.66.95-8.79,1.72-14.46,4.56-14.87,3.75-.17-.33.54-1.14,1.55-1.86Z"/>
    <path class="cls-13" d="m208.14,320.64c-1.71,8,1.68,11.43-.5,17.88-.15.43-.83,2.39-2.4,4.56-3.17,4.39-9.73,9.28-16.01,7.67-3.19-.82-5.18-3.02-7.61-5.71-.68-.75-.48-.63-5.51-9.06-1.65-2.76-3.08-5.15-3.08-8.47,0-.81.01-2.23.59-2.43,1.09-.36,3.02,3.95,6.72,9.35,4.05,5.9,6.07,8.85,9.15,9.94,4.77,1.69,11.25-.27,13.91-4.33,1.88-2.86.38-4.51,1.45-11.22,1.18-7.41,4.23-13.14,4.47-13.06.13.04-.56,1.91-1.18,4.86Z"/>
    <path class="cls-13" d="m193.85,263.15c-1.36.4-3.46,1.05-5.99,2.06-1.19.47-1.46.62-2.48,1.02-1.04.41-3.86,1.51-6.96,2.16-3.26.69-5.83.68-7.87.65-5.16-.06-5.62-1-12.43-1.74-.31-.03-.72-.08-1.21-.3-2.45-1.09-3-4.77-3.38-7.25-.36-2.37-.42-5.09-.03-5.15.45-.07.68,3.53,3.38,7.25,1.33,1.83,2.48,3.42,4.26,3.61,1.52.16,4.22-.63,5.53-1.01.23-.07.69-.21,1.3-.18,1.04.05,1.61.55,2.25.83,1.22.52,2.13,0,3.94-.33,2.36-.42,2.43.18,5.15-.03,4.53-.34,4.58-2.02,8.17-1.87,1.64.07,2.81.47,3.94-.33,1.14-.8,1.37-2.2,1.81-2.13.25.04.53.56.62,2.72Z"/>
    <path class="cls-13" d="m249.92,265.24c.08.84.07,1.94-.59,2.43-.54.4-1.27.2-1.8.14-1.51-.2-2.75.51-5.16,2.03-7.18,4.53-7.2,5.22-9.06,5.51-3.21.5-6.07-1.1-7.28-1.77-1.26-.7-2.26-1.67-4.26-3.61-3.98-3.85-4.69-5.75-4.89-6.33-.64-1.88-.68-3.83-.33-3.94.35-.1.76,1.69,2.47,3.75.61.73.83.83,4.26,3.61,2.49,2.02,2.71,2.23,3.63,2.88,2.31,1.63,3.46,2.44,4.56,2.4,1.77-.08,1.83-1.55,4.53-2.75,2.55-1.14,3.01-.05,5.45-1.24,1.49-.73,2.04-1.49,4.53-2.75.51-.26,1.48-.74,2.72-.62.52.05.94.19,1.21.3Z"/>
    <path class="cls-13" d="m211.64,248.19c.67-.3,1.18-.66,1.51-.92.21.91.41,1.82.62,2.72-2.2.26-4.64.44-7.3.45-3.49.01-6.64-.26-9.37-.65.6-.76,1.7-1.89,3.02-1.84.31.01.61.11,1.21.3,1.42.45,1.92.82,2.58,1.06.76.27.73,0,5-.5,1.02-.12,1.77-.19,2.72-.62Z"/>
    <path class="cls-13" d="m70.66,235.71c.93.63,2.43,1.27,4.86,1.18-.77.36-4.87,2.21-9.09.36-2.47-1.09-3.78-2.92-4.26-3.61-4.37-6.27-.49-14.63-.09-15.45.72-1.5,1.53-2.62,2.1-3.35,4.43-2.36,5.6-2.68,5.74-2.46.27.41-3.14,2.24-5.42,6.4-.74,1.35-2.11,3.93-1.77,7.28.12,1.21.41,4.09,2.46,5.74.91.73,1.57.74,3.35,2.1,1.25.96,1.36,1.28,2.13,1.81Z"/>
    <path class="cls-13" d="m110.36,236.38c2.31-.03,3.9-1.88,4.23-1.54.25.26-.79,1.19-.59,2.43.11.66.53,1.16.92,1.51-.92.2-2.29.42-3.94.33-1.98-.11-2.9-.59-6.07-1.48t-6.07-1.48c-2.02-.49-4.05-.99-6.07-1.48.31-.23.83-.59,1.51-.92.84-.41,3.81-1.7,6.62-.58,1.25.5.84.82,2.36,1.49,1.33.59,1.84.43,4.67,1.12,1.97.48,1.86.6,2.43.59Z"/>
    <path class="cls-13" d="m137.71,198.03c-.04.7.07,1.06-.18,1.25-.48.36-1.21-.61-2.54-.63-1.35-.02-1.93.96-2.72.62-.51-.22-.78-.83-.92-1.51.4.1.81.2,1.21.3,1.13,0,2.25.02,3.38.03l.56-.35c.3-1.21.59-2.43.89-3.64h0s.91-.04,1.21.3c.46.51-.77,1.57-.89,3.64Z"/>
    <path class="cls-13" d="m290.96,186.51c.76-2.04,1.71-3.58,2.4-4.56.1,2.94.13,5.43.13,7.38,0,2.23-.04,3.04-.36,4.13-.32,1.08-1.02,2.26-2.4,4.56-.98,1.63-1.46,2.44-2.1,3.35-1.06,1.51-2.06,2.92-3.61,4.26-.65.57-2.65,2.3-4.53,2.75-6.62,1.6-15.83-11.65-14.92-12.64.09-.1.29-.09,1.21.3,6.77,2.85,8.61,8.11,12.17,8.11,1.94,0,3.4-1.63,6.33-4.89,1.25-1.39,3.13-3.48,4.2-6.69.8-2.38.47-3.35,1.48-6.07Z"/>
    <path class="cls-8" d="m161.22,179.27c1.52-2.09,4.11-5.66,3.38-9.21-.21-1-.6-1.62-.86-2.1-3.42-6.3.75-16.63.31-16.76-.31-.09-2.38,4.96-5.89,16.66-1.17,3.9-1.22,4.27-1.79,6.11-4.19,13.65-10.22,21.94-9.53,22.38.7.45,6.5-8.22,12.75-15.06.07-.08.79-.87,1.64-2.03Z"/>
    <path class="cls-8" d="m229.64,142.06c3.86,1.96,4.33,5.62,7.79,5.96,1.02.1,1.73-.09,2.26-.2,7.03-1.4,15.65,5.66,15.91,5.27.18-.27-4.03-3.74-14.15-10.58-1.56-1.05-3.41-1.66-5.31-3.52-2.99-2.93-3.07-5.28-4.9-8.19-3.71-5.89-11.57-9.28-13.64-7.56-1.49,1.23-.09,5.18,1.53,9.76,1.26,3.56,2.18,6.04,4.59,7.55,2.38,1.48,3.1.07,5.92,1.51Z"/>
    <path class="cls-8" d="m200.61,177.35c1.32-1.63,3.79-4.69,4.79-9.12,1.29-5.68-1.11-7.9-2.17-15.78-1.32-9.87,1.07-16.53.31-16.76-.31-.09-2.38,4.96-5.89,16.66-.41,1.35-.68,2.28-.88,2.99-.24.83-.81,2.76-.91,3.12-.91,3.35,1.91,6.21,1.96,9.21.1,6.38-12.36,9.65-11.49,13.17.44,1.76,3.97,2.58,6.43,2.32,3.45-.37,5.53-2.94,7.84-5.8Z"/>
    <path class="cls-8" d="m286.93,189.02c1.52-2.64,3.06-5.29,3.38-9.21.14-1.7.27-3.25-.33-5.11-1.5-4.72-6.43-7.65-7.31-6.93-.95.78,4.15,4.77,3.7,11.19-.08,1.1-.56,5.81-1.15,10.01-.08.54-.28,1.96.08,2.08.11.04.45.03,1.64-2.03Z"/>
    <path class="cls-8" d="m259.84,218.46c1.52-2.64,3.06-5.29,3.38-9.21.14-1.7.27-3.25-.33-5.11-1.5-4.72-6.43-7.65-7.31-6.93-.95.78,4.15,4.77,3.7,11.19-.08,1.1-.56,5.81-1.15,10.01-.08.54-.28,1.96.08,2.08.11.04.45.03,1.64-2.03Z"/>
    <path class="cls-8" d="m215.78,239.82c-2.71-1.39-5.43-2.79-9.36-2.91-1.7-.05-3.26-.1-5.09.58-4.64,1.74-7.32,6.81-6.55,7.65.83.91,4.56-4.38,10.99-4.26,1.11.02,5.83.27,10.05.65.54.05,1.97.18,2.07-.18.03-.11,0-.45-2.11-1.54Z"/>
    <path class="cls-8" d="m167.45,223.09c1.04-1.8,2.09-3.61,2.3-6.29.09-1.16.18-2.22-.22-3.49-1.03-3.22-4.39-5.22-4.99-4.73-.65.53,2.83,3.26,2.53,7.64-.05.75-.38,3.96-.79,6.83-.05.37-.19,1.33.05,1.42.07.03.31.02,1.12-1.39Z"/>
    <path class="cls-8" d="m114.03,223.87c.73-2.59,1.47-5.19,1.06-8.69-.18-1.51-.34-2.9-1.1-4.42-1.94-3.86-6.22-5.51-6.78-4.72-.6.86,3.98,3.42,4.71,9.12.13.98.54,5.19.78,8.98.03.49.11,1.76.4,1.81.09.01.35-.06.92-2.08Z"/>
    <path class="cls-8" d="m97.87,201.46c-2.69-.06-5.39-.12-8.68,1.14-1.42.55-2.72,1.05-4,2.17-3.25,2.85-3.78,7.4-2.87,7.74.98.37,2.31-4.71,7.65-6.84.92-.37,4.89-1.82,8.5-3,.47-.15,1.68-.55,1.65-.84,0-.09-.14-.32-2.25-.37Z"/>
    <path class="cls-8" d="m165.39,234.43c-2.23,1.5-4.48,3.01-6.43,5.94-.84,1.27-1.62,2.43-2.02,4.08-1.01,4.2,1.18,8.23,2.12,7.98,1.02-.27-.83-5.18,2.3-10,.54-.83,2.95-4.31,5.21-7.35.29-.39,1.06-1.42.86-1.64-.06-.07-.3-.18-2.05.99Z"/>
    <path class="cls-8" d="m250.56,220.39c-.07,1.62.31,2.84.42,3.24.91,3.22-1.05,4.66-.95,9.49.05,2.62.69,5.44,1.24,5.45.58,0,1.03-3.07,1.48-6.07.52-3.49.78-5.23.56-7.58-.32-3.5-1.54-7.03-2.16-6.96-.48.06-.58,2.27-.59,2.43Z"/>
    <path class="cls-8" d="m255.29,184.28c1.08-1.09,1.63-1.64,2.01-2.11,1.65-2.04,1-2.71,2.4-4.56,1.36-1.8,2.26-1.55,3.37-3.42.73-1.23,1.29-2.94.83-3.27-.56-.41-2.49,1.36-3.41,2.21-3.05,2.8-4.83,5.87-4.83,5.87-1.36,2.33-1.42,3.32-2.29,3.5-1.9.39-3.87-3.83-4.26-3.61-.5.28,2.22,7.32,4.31,7.04.29-.04.82-.57,1.88-1.64Z"/>
    <path class="cls-8" d="m157.9,273.8c.35,3.02.7,6.07,2.78,9.41.9,1.45,1.72,2.77,3.31,3.91,4.02,2.89,9.72,2.3,10,1.2.3-1.2-6.17-1.36-9.64-6.78-.6-.93-3.01-5-5.04-8.72-.26-.48-.94-1.74-1.3-1.63-.11.03-.38.25-.1,2.61Z"/>
    <path class="cls-8" d="m252.18,287.65c-.35-4.3.24-5.4-.36-9.09-.27-1.67-.41-2.5-.8-3.13-2.39-3.78-9.68-2.99-9.77-2.47-.06.36,3.41.34,6.01,3.2,1.09,1.2,1.6,2.43,1.84,3.02,1.03,2.55.38,3.69.95,6.66.61,3.19,2.1,5.84,2.46,5.74.24-.07-.12-1.32-.33-3.94Z"/>
    <path class="cls-8" d="m213.02,310.01c-.76,1.52-1.52,3.06-1.57,5.26-.02.95-.04,1.82.36,2.84,1,2.58,3.85,4.05,4.32,3.62.51-.47-2.48-2.52-2.45-6.12,0-.62.11-3.26.3-5.63.02-.31.09-1.1-.11-1.16-.06-.02-.25,0-.85,1.19Z"/>
    <path class="cls-8" d="m217.54,271.49c.31,1.2.37,2.11.48,3.92.18,2.82-.16,2.9.17,3.95.62,1.97,2.42,3.62,3.05,3.31.67-.32-.66-2.53-.98-7.54-.17-2.58.04-4.25-1.22-5.5-.71-.69-1.78-1.17-2.12-.87-.32.28.2,1.07.62,2.72Z"/>
    <path class="cls-8" d="m228.03,309.38c1.61-4,2.64-4.72,3.75-8.29.15-.47.03-.16.68-3.15,1.44-6.62,1.9-7.82,1.24-8.36-.86-.71-3.14.11-4.23,1.54-.87,1.15-.82,2.71-.69,5.79.1,2.45.39,2.26.29,3.52-.22,2.74-1.31,3.47-2.13,6.38-.88,3.12-.74,6.17-.37,6.24.24.05.49-1.24,1.47-3.67Z"/>
    <path class="cls-8" d="m235.4,259.74c1.61-4,2.64-4.72,3.75-8.29.15-.47.03-.16.68-3.15,1.44-6.62,1.9-7.82,1.24-8.36-.86-.71-3.14.11-4.23,1.54-.87,1.15-.82,2.71-.69,5.79.1,2.45.39,2.26.29,3.52-.22,2.74-1.31,3.47-2.13,6.38-.88,3.12-.74,6.17-.37,6.24.24.05.49-1.24,1.47-3.67Z"/>
    <path class="cls-8" d="m131.78,227.78c4.23-.82,5.4-.35,8.99-1.36.48-.13.15-.06,3.02-1.14,6.34-2.39,7.59-2.66,7.69-3.5.13-1.11-1.8-2.58-3.59-2.71-1.44-.11-2.72.78-5.24,2.57-2,1.42-1.68,1.56-2.8,2.16-2.42,1.31-3.62.79-6.52,1.68-3.1.95-5.58,2.74-5.44,3.08.09.23,1.3-.26,3.88-.76Z"/>
    <path class="cls-8" d="m242.28,177.87c.15.68.44,1.15.53,1.3.73,1.24.07,2.05.63,4.05.31,1.09.88,2.19,1.11,2.13.24-.06.1-1.39-.04-2.68-.16-1.51-.24-2.26-.59-3.21-.51-1.42-1.4-2.76-1.65-2.66-.19.08,0,1.01.02,1.07Z"/>
    <path class="cls-8" d="m262.75,180.92c-.52-.14-1.4,1.1-1.81,2.13-.31.8-.12.93-.59,2.43-.27.87-.5,1.34-.78,1.76-.19.28-.25.32-.39.57-.18.33-.59,1.07-.36,1.74.28.84,1.43,1.24,1.57,1.08.13-.16-.85-.66-.92-1.51-.12-1.46,2.62-1.89,3.61-4.26.71-1.7.27-3.78-.33-3.94Z"/>
  </g>
</svg>