<?xml version="1.0" encoding="UTF-8"?>
<svg id="Sketches" xmlns="http://www.w3.org/2000/svg" viewBox="0 0 231.04 299.37">
  <defs>
    <style>
      .cls-1 {
        fill: #3768b7;
      }

      .cls-1, .cls-2, .cls-3, .cls-4, .cls-5, .cls-6, .cls-7 {
        stroke: #000;
        stroke-miterlimit: 10;
      }

      .cls-2 {
        fill: #7a7084;
      }

      .cls-3, .cls-8 {
        fill: none;
      }

      .cls-4 {
        fill: #363a70;
      }

      .cls-8, .cls-9, .cls-10, .cls-11, .cls-12, .cls-13, .cls-14 {
        stroke-width: 0px;
      }

      .cls-5 {
        fill: #f44831;
      }

      .cls-9 {
        fill: #f7f5f5;
      }

      .cls-10 {
        fill: #ef807b;
      }

      .cls-6 {
        fill: #f4c531;
      }

      .cls-11 {
        fill: #144791;
      }

      .cls-12 {
        fill: #d1d1d1;
      }

      .cls-13 {
        fill: #ede57c;
      }

      .cls-7 {
        fill: #fcfcfc;
      }

      .cls-14 {
        fill: #8fa8b7;
      }
    </style>
  </defs>
  <path class="cls-3" d="m85.51,152.62c-3.03-.91-7.79-2.68-12.06-6.06-7.86-6.21-8.54-13.47-8.62-15.76"/>
  <path class="cls-2" d="m53.87,135.85c1.97.46,4.51.9,7.5,1.05,1.65.09,3.16.07,4.5,0-.5-2.11-1-4.22-1.5-6.33-3.5,1.76-7,3.52-10.5,5.27Z"/>
  <line class="cls-8" x1="52.9" y1="145.01" x2="54.51" y2="148.97"/>
  <path class="cls-7" d="m143.97,118.93c-3.87.17-7.73.33-11.6.5-8.28.14-16.92.51-25.9,1.18-16.4,1.22-31.65,3.26-45.62,5.74,2.74-11.64,5.49-23.27,8.23-34.91,3.02,1.31,7.79,3.15,13.83,4.49,25.77,5.74,40.94-5.06,52.15,3.02,3.6,2.6,7.82,7.88,8.91,19.97Z"/>
  <path class="cls-7" d="m57.88,55.87c-.13,4.67-.25,9.35-.38,14.02-2.43-.37-6.76-1.35-9.81-4.32-1.54-1.5-2.83-3.59-3.13-13.17-.26-8.67-.43-16.81,3.5-17.62.9-.18,1.08.21,5.34.51,4.02.28,4.65-.01,5.34.51,1.75,1.33-.47,4.69-1.35,9.35-.49,2.61-.67,6.19.48,10.72Z"/>
  <path class="cls-7" d="m150.79,180.71c3.62,5.56,1.23,15.64-4.56,20.87-7.3,6.59-15.63,1.48-38.94.43-29.07-1.32-39.79,5.56-49.46-3.2-5.39-4.89-9.04-13.35-6.54-18.91,2.87-6.37,13.08-7.3,31.47-8.99,11.65-1.07,20.69-.7,25.68-.36,9.03.61,14.71,1.78,25.43,3.99,13.64,2.81,15.66,4.24,16.92,6.18Z"/>
  <path class="cls-7" d="m59.18,129.01c1.14,1.38,2.73,2.83,4.86,3.62,2.96,1.09,5.8.47,7.82-.31-1.81,8.16-3.61,16.31-5.42,24.47-1.45,4.33-2.9,8.65-4.36,12.98-4.67-4.35-9.33-8.71-14-13.06,3.7-9.23,7.4-18.46,11.1-27.69Z"/>
  <path class="cls-7" d="m150.23,74.68c-.51,1.35-13.43,34.06-39.73,37.28-14.24,1.75-25.45-6.01-39.19-15.52-6.04-4.18-10.27-8.29-13.11-14.01-2.06-4.16-2.95-8.3-3.37-14.12-.5-6.82-1.6-21.89,3.67-34.34C68.39,10.6,101.84-6.06,129.22,3.02c15.02,4.98,31.86,18.91,31.96,33.05.02,3.29-2.07,10.18-6.25,23.96-1.7,5.6-3.42,11.27-4.71,14.65Z"/>
  <path class="cls-4" d="m147,66.78c-8.34,20.01-13.44,24.76-15.81,26.76-9.59,8.09-20.15,9.59-22.88,9.91-20.52,2.4-35.02-11.17-37.14-13.22-1.9-1.83-15.26-15.2-14.54-35.56.77-21.83,17.26-38.19,33.59-44.18,10.57-3.87,19.7-2.89,25.29-2.22,3.07.37,35.59,4.62,41.38,24.03,1.87,6.28-2.05,15.68-9.88,34.48Z"/>
  <path class="cls-7" d="m161.04,70.44c-2.56,6.38-3.55,7.28-4.63,7.61-2.16.67-4.65-1.25-6.39-2.55-1.87-1.39-3.04-2.91-3.48-3.56-4.04-5.96-.03-18.34,6.9-26.44,2.28-2.67,6.29-7.35,9.59-6.32,3.34,1.04,4.25,7.39,4.24,10.81,0,1.72-.94,4.75-2.8,10.74-.73,2.35-1.77,5.6-3.41,9.7Z"/>
  <path class="cls-7" d="m101.55,176.68c-4.27,1.33-5.84-.75-12.21-.54-4.04.14-3.27.98-8.3,1.36-2.96.22-6.08-.03-12.21-.54-4.67-.39-7.02-.6-7.65-1.11-3.08-2.52-1.34-8.04-.21-19.47.88-8.86,1.18-19.2-.21-19.47-1.37-.26-1.31,9.78-8.01,13.79-7.15,4.28-16.88-1.37-20.33,3.52-.86,1.21-.5,1.89-2.12,4.74-1.16,2.04-3.34,5.85-5.03,5.75-2.87-.18-7.24-11.77-4.74-22.41,3.37-14.38,18.16-22.3,27.41-27.26,11.38-6.1,17.29-5.17,25.36-9.26.72-.37,2.9-1.5,5.6-1.18,3.26.38,5.42,2.65,6.18,3.38,6.54,6.35,20.23,7.35,21.87,7.47,11.66.86,11.62-6.41,25.54-6.57,9.2-.1,12,3.04,18.43.4,9.15-3.77,12.07-5.67,12.07-5.67,1.7-1.11,3.75-2.62,5.82-2.01,1.61.48,1.99,1.87,4.53,2.95,2,.85,2.5.29,3.3.86,2.73,1.94-2.12,9.12-1.22,18.21.36,3.69.34,7.96,2.98,12.25,1.67,2.71,2.58,3.05,2.44,4.17-.61,5.07-21.46,1.33-27.66,11.31-1.99,3.2-.38,4.45-2.7,20.47-.57,3.92-1.14,7.14-1.55,9.3-4.17-.04-8.82-.31-13.86-.97-6.32-.83-11.94-2.11-16.74-3.49-.53-.73-1.45-1.77-2.87-2.51-2.94-1.54-6.02-.77-7.87-.29-3.4.9-3.22,1.96-6.03,2.84Z"/>
  <path class="cls-7" d="m193.07,137.04c8.78-.9,13.58,1.19,15.34-1.29,1.83-2.58-2.67-5.86-3.59-13.29-1.28-10.39,5.95-16.63,3.31-19.43-1.94-2.05-6.36.76-17.42,2.51-5.18.82-9.55,1.06-12.64,1.11-1.2,3.19-2.88,8.91-2.44,16.13.49,8.17,3.44,14.2,5.21,17.24,2.6-1.02,6.86-2.43,12.25-2.98Z"/>
  <path class="cls-7" d="m227.59,123.11c-2.88,1.53-7.77,5.72-7.76,9.45,0,.86.26.86,1.01,2.91.85,2.36,2.41,6.93,1.54,10.99-.9,4.2-4.58,7.72-6.29,7.18-1.84-.58.06-6.66-2.55-13.9-1.59-4.4-4.23-7.55-6.32-9.59-1.06-1.97-2.49-5.27-2.8-9.55-.54-7.39,2.61-12.89,3.88-14.87,6.54-1.08,9.19-.2,10.34.94.51.5,1.26,1.57,2.87,2.51,1,.58,1.59.69,2.26,1.47.8.94.44,1.36,1.22,2.08.82.76,1.5.55,2.26,1.47.4.49.22.56.61,1.04.87,1.07,1.84.79,2.4,1.67.28.44.27.88.26,1.67,0,.42-.08,1.48-.65,2.48-.71,1.24-1.86,1.81-2.3,2.05Z"/>
  <path class="cls-7" d="m56.79,199.41c-1.59.11-8.2.4-13-4.28-3.72-3.63-5.89-9.78-4.02-11.64,2.25-2.23,9.92,2.21,10.13,1.76.36-.79-25.32-10.93-24.24-18.68.08-.54.23-.73,1.69-3.09,2.77-4.49,4.91-8.19,6.32-10.7,5.04-.16,10.08-.31,15.12-.47,1.74-1.02,3.47-2.04,5.21-3.05-.1,2.58.07,6.51,1.54,10.99,1.16,3.53,2.75,6.24,4.06,8.12-.94,10.34-1.87,20.69-2.81,31.03Z"/>
  <path class="cls-7" d="m120.14,260.95c-3.11-1.94-2.01-6.82-3.37-14.12-1.06-5.68-2.5-10.24-3.59-13.29-9.01,2-13.78,5.85-16.45,8.94-5.75,6.65-5.79,14.38-11.14,15.62-2.99.69-3.66-1.56-8.26-2.16-8.56-1.11-12.54,5.86-19.11,5.6-3.63-.14-8.86-2.51-14.98-13.61,5.01-16.93,10.01-33.86,15.02-50.79,15.27-1.02,30.53-2.03,45.8-3.05.17.26,1.98,3.01,5.35,3.16,2.56.11,5-1.32,6.25-3.66,10.62,1.01,21.24,2.01,31.86,3.02,5.6,23.17,7.47,40.96,6.14,47.49-1.1,5.37-4.02,8.66-4.02,8.66-1.06,1.19-2.72,3.04-5.42,3.88-2.55.79-3.61-.08-6.43.97-2.07.77-1.81,1.35-4.17,2.44-3.07,1.42-5.89,1.53-7.47,1.58-3.12.09-4.68.14-6-.68Z"/>
  <path class="cls-7" d="m85.59,258.11c-3.31,5.42-6.65,11.32-9.92,17.71-4.1,8.02-7.52,15.7-10.38,22.88-12.32-5.7-21.82-5.97-28.29-5.1-10.73,1.44-16.44,6.44-25.12,3.51-4.48-1.51-10.43-5.35-11.28-10.88-1.13-7.37,7.17-15.4,15.3-18.07,10.12-3.31,16.55,2.82,22.38-1.22,3.04-2.11,5.87-6.96,4.96-19,1.81,4.17,4.12,6.93,5.71,8.55,1.86,1.88,3.41,3.42,5.96,4.2,3.57,1.09,6.76,0,8.08-.54,1.76-1.2,5.85-3.65,11.64-4.02,5.09-.33,9.03,1.12,10.96,1.98Z"/>
  <path class="cls-7" d="m163.68,293.79c-2.64.64-9.86,1.77-28.16,2.94-2.8.18-6.19.41-10.34-.94-3.89-1.26-6.71-3.33-8.44-4.85-.74-3.19-1.39-7.53-1.11-12.64.42-7.72,2.76-13.73,4.53-17.35,1.47.3,3.22.51,5.17.47,5.74-.12,10.11-2.35,12.46-3.81,1.79.03,5.13-.2,8.51-2.19,2.27-1.34,3.77-3.01,4.6-4.09,2.85-3.73,2.82-7.04,3.59-7,.35.02,1.24.74,2.15,12.03.94,11.65.65,12.29,1.72,13.69,4.76,6.17,17.55-.59,20.87,4.56,2.51,3.9-1.75,12.52-7.83,16.49-.83.54-2.25,1.36-7.72,2.7Z"/>
  <path class="cls-7" d="m159.05,182.87c1,11.42.53,20.92-.07,27.33-2.69.18-5.39.36-8.08.54-1.32-3.22-2.92-8.08-3.37-14.12-.45-5.95.45-9.88,1.4-15.52,3.18-18.71,2.09-27.19,3.59-27.3,2.03-.15,5.32,15.2,6.53,29.06Z"/>
  <path class="cls-7" d="m45.22,196.4c1.18.72,2.77,1.52,4.74,2.12,2.74.84,5.15.95,6.82.9-.52,3.1-1.03,6.2-1.55,9.3-.71,1.58-1.41,3.16-2.12,4.74-4.67-2.4-9.34-4.79-14.01-7.19,2.04-3.29,4.07-6.58,6.11-9.88Z"/>
  <path class="cls-7" d="m115.66,193.6c-1.13,1.78-3.49,3.92-6.25,3.66-2.47-.23-4.01-2.27-4.53-2.95-1.88-2.48-1.86-5.24-1.76-10.17.1-4.77.15-7.15,1.33-8.48,3.31-3.73,12.03-2.6,13.86.97.87,1.69-.51,2.52-1.33,8.48-.7,5.08.06,6.29-1.33,8.48Z"/>
  <path class="cls-6" d="m132.69,189.22c.84,2.88-.34,5.34-.68,6-2.83-.44-5.65-.89-8.48-1.33-.19-.88-.51-2.96.47-5.17.25-.56,1.95-4.24,4.6-4.09,2.75.16,4.01,4.3,4.09,4.6Z"/>
  <path class="cls-5" d="m146.95,192.06c-.39,1.73-.79,3.14-1.08,4.13-2.35-.02-4.69-.05-7.04-.07-.08-2.81.38-4.99.79-6.41.52-1.79.83-2.8,1.8-3.5,1.8-1.31,4.97-.91,6,.68.21.33.49.96-.47,5.17Z"/>
  <path class="cls-5" d="m78.16,195.29c-1.52.49-3.41.95-5.6,1.18-3.17.33-5.88.07-7.87-.29,1.79-7.17,6.8-10.69,9.63-9.84,2.3.69,3.89,4.5,3.84,8.94Z"/>
  <path class="cls-6" d="m98.67,194.46c-4.42.02-8.84.05-13.25.07.07-.99.38-3.51,2.34-5.57,2.17-2.28,6.56-4.18,9.34-1.97,1.9,1.51,2.54,4.54,1.58,7.47Z"/>
  <path class="cls-1" d="m112.32,186.11c-.1,2.11-2.04,4.15-3.66,3.9-1.77-.28-3.08-3.3-2.12-5.41.56-1.24,2.08-2.55,3.65-2.14,1.59.42,2.2,2.35,2.14,3.65Z"/>
  <path class="cls-3" d="m50.08,147.37c.45.43,1.19,1.05,2.26,1.47.62.25,1.19.37,1.65.43"/>
  <path class="cls-14" d="m71.02,31.69c-6.45,7.84-10.9,20.91-6,27.58,1.13,1.54,3.45,3.69,5.53,3.23,2.52-.56,3.74-4.73,3.93-7.57.37-5.39-2.95-6.37-3.07-10.93-.17-6.18,5.72-11.46,10.82-16.02,4.69-4.2,9.41-6.83,9.04-7.52-.08-.15-.47-.34-2.9.47-4.4,1.47-11.73,3.91-17.35,10.75Z"/>
  <path class="cls-14" d="m142.56,44.28c-.61,1.9-2.48,5.09-5.23,5.03-3.85-.08-9.36-6.52-7.1-10.81,1.49-2.83,6.31-4.65,9.67-3.02,3.58,1.74,3.44,6.4,2.66,8.8Z"/>
  <path class="cls-14" d="m139.26,57.53c-.3.95-1.21,2.55-2.52,2.54-1.83-.01-4.41-3.19-3.31-5.34.73-1.42,3.03-2.36,4.62-1.57,1.69.84,1.59,3.17,1.21,4.37Z"/>
  <path class="cls-1" d="m154.21,199.41c-.35,2.43-1.6,5.58-2.68,5.72-1.09.14-1.63-2.79-1.58-4.89.02-.75.05-1.9.58-3.15.64-1.52,1.95-3.05,2.86-2.75,1.15.37,1.06,3.45.82,5.07Z"/>
  <path class="cls-12" d="m116.35,277.17c-.06,1.85.06,4.88,1.36,8.3.63,1.67,1.36,3.56,3.05,5.21,1.67,1.63,3.99,2.68,8.87,3.2,3.62.38,6.93.28,14.3-.68,8.14-1.06,9.67-1.67,15.55-2.12,3.74-.28,10.47-.59,10.56.11.09.7-6.39,2.12-7.69,2.41-1.07.24-3.53.75-8.3,1.36-5.22.67-8.77.89-15.34,1.29-1.55.09-3.55.21-6.21.14-1.6-.04-3.4-.14-4.35-.25-1.8-.21-5.77-1.05-10.92-5.5-.67-2.03-1.34-4.87-1.36-8.3-.01-1.97.19-3.72.47-5.17Z"/>
  <path class="cls-12" d="m67.54,291.78c-.85,2.13-1.7,4.26-2.55,6.39-2.54-1.12-5.5-2.25-8.87-3.2-4.39-1.24-8.4-1.87-11.78-2.19-3.45-.09-6.21.23-8.08.54-2.98.49-5.73,1.27-10.38,2.59-3.47.98-4.94,1.5-7.47,1.58-.98.03-2.87.03-5.17-.47-1.55-.33-3.92-.86-6.39-2.55-1.75-1.2-3.77-3.12-3.48-3.56.39-.6,4.32,2.67,10.52,3.63,4.13.64,7.48-.03,10.78-.72,6.99-1.45,6.82-3.08,11.64-4.02,8.01-1.56,11.16,2.43,23.17,2.52,3.54.03,6.4-.3,8.08-.54Z"/>
  <path class="cls-12" d="m89.88,253.49c-.75,1.88-1.96,4.05-3.77,4.31-.86.12-1.49-.23-2.48-.65,0,0-3.2-1.35-6.61-1.72-3.5-.38-6.34.76-9.34,1.97-2.36.95-2.49,1.37-4.99,2.23-4.03,1.38-5.91,1.07-6.43.97-1.54-.3-2.72-1-3.91-1.9-5.46-4.11-9.13-10.67-8.58-11.06.7-.5,6.03,10.77,13.97,10.71,2.94-.02,2.79-1.57,9.77-3.63,5.61-1.65,8.56-2.52,11.82-1.33,2.76,1.01,3.9,2.82,6.39,2.55,1.89-.2,3.3-1.47,4.17-2.44Z"/>
  <path class="cls-12" d="m53.47,210.46c.38.36-.12,1.5-.65,2.48-3.98-2.11-7.96-4.21-11.95-6.32l-1.24-.65c.49-.75.98-1.51,1.47-2.26-.04.5,0,1.21.39,1.87.58.95,1.61,1.25,2.26,1.47,4.4,1.51,5.27,4.32,7.83,3.81.92-.18,1.55-.69,1.87-.39Z"/>
  <path class="cls-12" d="m56.48,198.89c-1.32.13-6.18.45-10.74-2.8-3.25-2.32-4.73-5.3-5.32-6.68,2.58,2.65,4.97,4.29,6.57,5.24.84.5,2.14,1.04,4.74,2.12,1.21.5,2,.8,2.87.52,1.1-.35,1.67-1.4,1.91-1.92-.01,1.17-.02,2.35-.04,3.52Z"/>
  <path class="cls-12" d="m53.69,148.75c-.7.03-1.43-.32-1.65-.43-.38-.18-1.46-.71-1.44-1.26.03-.69,1.77-.85,3.22-1.54,3.93-1.86,4.69-7.02,5.15-6.86.34.12-.21,3-1.51,5.78-.74,1.57-1.99,4.23-3.77,4.31Z"/>
  <path class="cls-12" d="m223.88,111.99c-.21.21-1.22-.95-2.48-.65-.39.1-.48.26-1.04.61-1.25.79-2.78,1.23-2.91,1.01-.11-.18.7-.8,2.3-2.05,1.47-1.14,1.77-1.24,2.08-1.22,1.33.07,2.29,2.05,2.05,2.3Z"/>
  <path class="cls-12" d="m227.33,115.59c-.21.21-1.22-.95-2.48-.65-.39.1-.48.26-1.04.61-1.25.79-2.78,1.23-2.91,1.01-.11-.18.7-.8,2.3-2.05,1.47-1.14,1.77-1.24,2.08-1.22,1.33.07,2.29,2.05,2.05,2.3Z"/>
  <path class="cls-12" d="m229.77,119.75c-.44.07-.6-1.14-1.41-1.3-.71-.14-1.46.61-2.11,1.26-.83.83-1.08,1.45-1.23,1.39-.2-.08,0-1.33.62-2.43.38-.69,1.07-1.94,2.33-2.09.74-.09,1.35.24,1.65.43h0c.17.16.49.51.61,1.04.17.74-.09,1.63-.46,1.7Z"/>
  <path class="cls-12" d="m217.26,150.85c.59.44,1.45.72,1.44,1.26-.01.6-1.09,1.27-2.08,1.22-.35-.02-.64-.12-.83-.22-.21-2.96-.5-5.43-.75-7.26-.71-5.16-1.32-6.8-1.58-7.47-1.3-3.3-3.07-5.19-3.05-5.21.03-.02,4.86,3.71,5.49,9.38.36,3.21-.66,6.78,1.36,8.3Z"/>
  <path class="cls-12" d="m71.94,105.86c-1.23.55-2.55,1.09-3.95,1.62-1,.37-1.97.7-2.91,1.01.42-1.53,1.03-3.81,1.72-6.61,1.09-4.37,1.33-6.63,1.72-6.61.39.02.85,2.26.57,4.56-.49,4.05-3.1,6.98-2.77,7.22.24.17,1.29-1.62,3.13-1.83.95-.11,1.81.24,2.48.65Z"/>
  <path class="cls-10" d="m70.24,194.76c-.85-.06-1.42-.32-1.65-.43-.52-.26-1.24-.62-1.44-1.26-.35-1.11,1.02-2.54,2.26-3.15.44-.21,1.09-.53,1.87-.39,1.77.32,3.18,2.82,2.44,4.17-.69,1.26-3.04,1.1-3.48,1.07Z"/>
  <path class="cls-13" d="m88.74,193.55c-.48.02-.79-.16-.91-.24-.28-.18-.66-.43-.72-.95-.11-.91.78-2.23,1.53-2.84.27-.21.66-.54,1.1-.48.98.13,1.59,2.14,1.07,3.33-.49,1.12-1.82,1.16-2.07,1.17Z"/>
  <path class="cls-13" d="m126.55,193.22c-.53-.01-.88-.19-1.02-.27-.32-.18-.75-.42-.85-.91-.18-.84.74-1.98,1.54-2.5.28-.18.7-.45,1.19-.37,1.1.17,1.88,2.03,1.37,3.09-.48.99-1.95.96-2.22.95Z"/>
  <path class="cls-10" d="m141.43,194.62c-.47,0-.77-.16-.89-.23-.27-.17-.65-.41-.72-.9-.12-.86.73-2.07,1.47-2.63.26-.2.64-.49,1.07-.43.97.14,1.59,2.02,1.09,3.13-.47,1.04-1.77,1.06-2.01,1.07Z"/>
  <path class="cls-11" d="m151.49,203.39c-.17-.08.45-1.29.86-3.3.55-2.72.28-4.75.63-4.79.17-.02.35.43.45.66.85,2.11-.12,4.38-.47,5.17-.53,1.2-1.3,2.34-1.47,2.26Z"/>
  <path class="cls-9" d="m76.86,147.3c-.37,2.99-3.34,3.01-5.18,7.25-.94,2.16-.53,2.98-1.93,5.66-.32.61-1.98,3.76-3,3.49-.68-.18-.87-1.84-.79-2.98.12-1.75.93-3.1,2.74-5.38,3.53-4.46,4.19-4.07,4.63-5.64.63-2.22-.31-4.37-1.83-7.84-1.61-3.67-2.42-3.57-2.66-5.42-.61-4.82,4.49-8.81,4.93-9.14,2.56-1.95,5.88-2.93,6.23-2.38.23.37-.84,1.5-1.64,2.15-1.23,1-2.22,1.14-3.25,1.6-1.54.69-3.55,2.25-4.08,4.02-.57,1.92.9,3.06,3.98,9.48,1.93,4.02,1.9,4.72,1.85,5.14Z"/>
  <path class="cls-9" d="m151.33,144.81c-1.25,2.46-4.19,4.01-5.1,4.48-.61.32-.62.27-2.46,1.1,0,0-2.45,1.11-4.86,2.34-5.5,2.8-7.36,5.49-8.14,4.96-1.63-1.11,4.37-14.21,7.23-13.59.92.2.77,1.65,2.31,2.52,1.98,1.12,5.41.54,6.78-1.39,1.45-2.04-.6-3.91.3-8.58.19-1.01.71-3.08,2.11-5.22,1.83-2.79,4.08-4.02,7.43-5.86,3.63-1.99,4.85-1.8,5.51-1.58,1.4.47,2.63,1.86,2.37,2.65-.21.63-1.19.35-2.46,1.1-2.1,1.24-1.69,3.35-3.26,3.96-1.54.59-2.52-1.21-4.2-.78-2.18.56-3.01,4.23-3.25,5.3-1.02,4.53,1.12,5.78-.3,8.58Z"/>
  <path class="cls-9" d="m28.4,130.68c-7.86,8.42-5.8,22.39-5,22.52.66.1.81-8.86,7.44-18.35,2.34-3.35,4.71-5.66,6.29-7.18,7.29-7.03,14.32-10.19,14.19-10.41-.09-.16-3.66,1.54-9.16,4.67-7.92,4.5-11.88,6.75-13.76,8.76Z"/>
  <path class="cls-9" d="m91.46,231.78c-6.13,7.1-7.1,16.22-6.39,16.49.61.24,2.18-6.07,8.13-13.29,6.84-8.29,14.05-11.22,13.68-11.87-.39-.69-9.27,1.54-15.42,8.66Z"/>
  <path class="cls-9" d="m54.97,220.5c-3.03,10-7.25,15.99-6.39,16.49.6.36,2.99-2.41,4.45-4.59,2-2.97,2.8-5.61,3.68-8.7,3.49-12.25,2.74-12.17,4.22-14.83,3.05-5.44,7.37-7.83,6.72-8.84-.48-.74-3.36-.25-5.6,1.18-4.81,3.09-3.89,8.77-7.08,19.27Z"/>
  <path class="cls-9" d="m149.41,242.97c3.34-8.23,1.98-16.49,1.33-16.49-.55,0-.35,6.01-3.52,14.29-3.65,9.51-8.87,14.47-8.41,14.91.49.47,7.24-4.45,10.6-12.71Z"/>
  <path class="cls-12" d="m141.48,109.9c-9.27,2.38-16.02,5.43-20.58,7.86-3.23,1.72-3.93,2.37-6.03,2.84-6.91,1.53-10.25-3.05-19.28-2.24-3.53.32-3.54,1.06-5.68.74-7.62-1.15-13.34-11.46-11.74-13.37.56-.67,2.03-.33,2.69-.18,2.34.54,3.2,2.26,5.14,3.99,1.75,1.56,3.5,2.24,7,3.59.98.38,4.02,1.51,8.26,2.16,2.91.45,7.81,1.19,13.25-.07,5.54-1.29,6.11-3.37,11.03-5.06,3.42-1.18,8.6-2.06,15.95-.25Z"/>
  <path class="cls-9" d="m106.86,157.65c-.89.57-1.25.16-2.28.87-1.34.92-2.21,2.64-2.26,4.19-.1,3.47,3.99,5.56,3.54,6.22-.45.66-5.25-.37-6.28-3.51-.83-2.52,1.1-5.37,2.43-6.63.48-.45.91-.73,2.52-2.15,1.28-1.14,1.92-1.71,2.05-1.92.94-1.61.31-3.67-.51-6.74-.68-2.57-1.26-3.12-1.44-4.02-.07-.35-.06-.63-.06-.82.02-3.64.05-8.77,1.65-9.19,1.05-.28,1.45,1.8,3.61,2.25,2.21.46,3.15-1.43,5.47-1.17,2.59.29,4.78,3.03,4.34,3.97-.39.85-2.61-.4-5.74.63-2.46.81-4.99,2.87-5.48,5.43-.23,1.23.24,1.35.52,3.62.1.83.81,7.12-2.08,8.97Z"/>
  <path class="cls-9" d="m132.44,217.02c-.05,1.29-.07,3.15.09,5.4.45,6.56,1.64,9.23,1.09,9.47-.92.39-6.56-5.98-6.05-13.3.24-3.48,1.64-3.86,1.58-6.74-.15-7.59-10.07-12.6-9.72-13.07.27-.36,6.56,2.05,10.08,8.06,2.4,4.11,2.99,8.69,2.94,10.18Z"/>
  <path class="cls-12" d="m195.89,134.69c1.2-.06,5.2-.26,7.57-1,.61-.19.98-.25,1.73-.37,1.37-.23,2.07-.33,2.52.05.49.41.65,1.25.39,1.87-.33.8-1.28,1.04-2.08,1.22-1.35.31-2.36.11-3.52-.04,0,0-.24-.03-4.35-.25-2.33-.13-4.03.17-7.26.75-6.56,1.19-9.07,2.51-9.34,1.97-.32-.63,2.57-3.61,6.47-4.49,2.75-.62,2.69.55,7.87.29Z"/>
  <path class="cls-12" d="m154.05,75.24c6.11.06,11.18-20.94,11.6-20.8.11.04-.21,1.41-1.51,5.78-1.3,4.41-2.61,7.98-3.63,10.52-2.05,5.15-3.01,6.47-4.42,6.79-1.76.4-3.59-.92-5.57-2.34-1.16-.84-2.46-1.79-3.48-3.56-1.33-2.3-1.8-5.33-1.18-5.6,1.14-.51,4.06,9.15,8.19,9.2Z"/>
  <path class="cls-12" d="m44.97,50.3c-.32-.07-.28-1.44-.18-2.69,0-.88,0-2.09.04-3.52.06-2.86.14-3.91.47-5.17.45-1.72,1.01-2.54,1.69-3.09.39-.31.77-.5,1.04-.61,2,.23,4,.46,6,.68.04,0,0,0-.09,0-.05,0-4.86-.21-6.55,1.8-1.41,1.67.59,3.39-.29,7.87-.49,2.49-1.68,4.84-2.12,4.74Z"/>
  <path class="cls-11" d="m109.39,188.88c-.49.27-1.28.03-1.65-.43-.7-.88.15-2.52.86-3.3.22-.24.65-.71,1.04-.61.38.1.52.68.61,1.04.26,1.08-.12,1.99-.35,2.54-.26.61-.43.72-.51.76Z"/>
  <path class="cls-12" d="m109.11,196.74c-2.01-.25-3.96-1.51-4.85-3.49-.6-1.33-.54-2.56-.46-3.19.88,1.65,1.93,2.71,2.66,3.34.98.84,1.47,1.26,2.26,1.47,1.35.36,2.27-.19,4.35.25.36.08.65.16.83.22-.36.29-2.21,1.72-4.78,1.4Z"/>
  <path class="cls-9" d="m158.07,186.42c-.77-10.96-3.28-21.58-3.78-21.51-.25.04-.05,2.88.04,3.93.44,5.05,1.66,7.47,2.37,11.21.51,2.72.45,4.78.32,8.91-.33,10.79-3.1,17.87-.61,19.25.19.1.45.2.83.22.78-5.35,1.46-12.94.83-22.01Z"/>
  <path class="cls-9" d="m107.31,174.78c-2.89,1.82-2.46,7.71-2,8.28.39.48.63-3.14,3.4-5.13,3.19-2.29,7.19-.62,6.9-1.27-.31-.69-5.4-3.7-8.3-1.88Z"/>
  <path class="cls-9" d="m149.93,53.86c-2.66,5.57-3.13,10.64-2.8,10.74.39.12,2.1-6.74,7.4-14.83.62-.95,5.65-8.53,8.15-7.58.78.29,1.22,1.37,1.44,1.26.29-.15.03-2.36-1.01-2.91-2.32-1.23-9.42,5.44-13.18,13.32Z"/>
  <path class="cls-9" d="m163.24,57.95c1.72-5.93,1.36-11.01,1.02-11.05-.4-.05-.98,6.99-4.9,15.84-.46,1.04-4.19,9.33-6.82,8.8-.82-.16-1.43-1.16-1.62-1.01-.26.2.36,2.33,1.46,2.71,2.49.84,8.41-6.89,10.85-15.29Z"/>
  <path class="cls-9" d="m51.39,60.07c.18,1.16,1.24,7.84,1.69,7.79.25-.03.09-2.15-.07-11.9-.07-4.4-.06-5.1.05-6.2.23-2.34.65-4.21.25-4.35-.36-.13-1.14,1.23-1.26,1.44-1.73,3.01-1.66,6.9-.66,13.22Z"/>
  <path class="cls-9" d="m46.64,60.49c.89,2.79,2.12,5.03,2.31,4.96.24-.09-.66-4.07-1.58-6.82-.27-.8-.55-1.54-.39-2.52.19-1.12.81-1.66.53-2.26-.24-.51-1.07-.89-1.53-.65-1.39.72.55,6.92.67,7.29Z"/>
  <path class="cls-9" d="m119.63,3.22c-2.92.12-5.42.72-5.39.93.03.26,4.1.44,7,.27.84-.05,1.63-.13,2.53.28,1.03.47,1.39,1.22,2.04,1.11.56-.1,1.14-.8,1.03-1.31-.33-1.53-6.82-1.29-7.21-1.28Z"/>
  <path class="cls-9" d="m144.54,13.47c-2.52-1.48-4.94-2.34-5.03-2.15-.12.23,3.2,2.59,5.73,4.03.74.42,1.44.78,1.97,1.61.61.96.5,1.78,1.11,2.04.52.22,1.39-.05,1.58-.54.56-1.46-5.02-4.79-5.36-4.99Z"/>
  <path class="cls-9" d="m55.27,184.64c-.36-.04.2-3.83-.56-8.35-.72-4.31-1.96-5.24-3.12-9.02-2.41-7.85-.51-15.09-.17-15.09.27,0-.4,4.28,1.5,9.96,1.46,4.37,2.58,3.99,3.45,7.74.97,4.15.37,7.9-.11,10.91-.26,1.61-.72,3.87-1,3.84Z"/>
  <path class="cls-9" d="m46.64,181.02c-.06.08-.33.19-3.55-1.59-2.79-1.54-4.66-2.78-6.03-3.65-5.82-3.73-6.15-3.29-7.01-4.57-2.33-3.46-1.01-8.31-.47-8.35.54-.04.06,4.71,3.36,7.74,1.21,1.11,1.38.56,4.79,2.62,1.06.64,3.31,2.06,5.73,4.23.26.23,3.49,3.14,3.17,3.56Z"/>
</svg>