<?xml version="1.0" encoding="UTF-8"?>
<svg id="Sketches" xmlns="http://www.w3.org/2000/svg" viewBox="0 0 235.73 288.55">
  <defs>
    <style>
      .cls-1 {
        opacity: .7;
      }

      .cls-1, .cls-2, .cls-3, .cls-4, .cls-5, .cls-6, .cls-7 {
        stroke-width: 0px;
      }

      .cls-1, .cls-5 {
        fill: #d1d1d1;
      }

      .cls-8 {
        fill: #3768b7;
      }

      .cls-8, .cls-9, .cls-10, .cls-11, .cls-12, .cls-13 {
        stroke: #000;
        stroke-miterlimit: 10;
      }

      .cls-9 {
        fill: none;
      }

      .cls-10 {
        fill: #363a70;
      }

      .cls-11 {
        fill: #f44831;
      }

      .cls-2 {
        fill: #f7f5f5;
      }

      .cls-3 {
        fill: #ef807b;
      }

      .cls-12 {
        fill: #f4c531;
      }

      .cls-4 {
        fill: #144791;
      }

      .cls-6 {
        fill: #ede57c;
      }

      .cls-13 {
        fill: #fcfcfc;
      }

      .cls-7 {
        fill: #8fa8b7;
      }
    </style>
  </defs>
  <path class="cls-13" d="m54.11,112.91c-6.82-6.14-12.81-2.08-20.7-6.89-8.33-5.07-7.77-13.31-11.23-13.2-5.55.17-14.98,21.6-8.6,39.86,4.74,13.57,13.79,12.74,27.33,32.51,7.49,10.94,15.81,23.08,12.14,33.68-4.55,13.13-24.46,14.98-23.59,20.86.49,3.35,7.01,3.29,22.06,8.45,19.48,6.69,21.66,11.3,30.5,10.19,8.87-1.11,10.1-7.5,19.23-7.19,7.23.24,13.15,4.18,14.62,5.22,4.76,3.34,4.22,5.16,7.47,7.41,12.56,8.7,36.38-7.41,38.04-8.55,7.15-4.94,8.14-7.98,8.42-8.98,1.7-6.19-4.38-9.49-8.7-20.24-8.38-20.84-3.81-28.62-12.88-37.45-4.26-4.14-8.91-5.97-9.48-10.94-.55-4.82,3.16-8.93,4.7-10.6,16.25-17.53,60.42-14.91,61.92-23.98.68-4.11-8.31-5.13-14.09-15.78-7.01-12.89-.32-23.31-5.61-27.12-5.05-3.63-14.13,3.68-39.37,17.7-19.82,11.01-29.95,16.56-40.93,19.06-15.23,3.46-20.23.57-34.71,2.93-1.51.25-5.29.9-9.3-.78-3.65-1.53-4.61-3.79-7.23-6.15Z"/>
  <g>
    <path class="cls-13" d="m147.64,75.63c-.69,3.98-3.19,17.4-14.3,28.18-10.53,10.21-22.77,12.22-34.84,14.2-10.65,1.75-27.04,4.43-41.48-4.88-1.87-1.21-5.35-3.67-9.53-8.57-2.88-3.38-29.34-33.98-16.93-65.92C41.26,11.08,74.06-5.73,104.1,2.67c34.99,9.79,47.87,47.93,43.55,72.96Z"/>
    <path class="cls-10" d="m129.85,72.22c-6.72,21.52-27.39,39.74-50.24,38.8-18.87-.78-31.31-14.5-35.71-19.35-2.6-2.86-19.92-21.97-16.09-43.09C33.36,18.03,81.43-7.16,111.04,12.02c18.34,11.88,25.67,38.23,18.81,60.2Z"/>
    <path class="cls-7" d="m44.37,33.44c-9.51,13.15-15.29,34.42-6.82,44.57,1.95,2.34,5.87,5.54,9.14,4.6,3.96-1.14,5.49-7.91,5.51-12.46.05-8.64-5.33-9.86-5.99-17.11-.89-9.84,7.98-18.83,15.66-26.62,7.06-7.16,14.33-11.83,13.66-12.89-.14-.23-.78-.49-4.57,1.04-6.87,2.78-18.31,7.41-26.59,18.86Z"/>
    <path class="cls-13" d="m190.99,78.05c-9.38,11.03.22,41.53,16.49,43.79,12.39,1.73,29.92-12.74,27.53-28.7-2.2-14.7-19.94-21.65-32.21-20.17-2.97.36-8.35,1.01-11.81,5.07Z"/>
    <path class="cls-13" d="m24.43,97.6c.66.95,3.69,5.17,9.17,8.5,2.65,1.61,11.78,7.16,20.57,4.45,6.3-1.94,5.12-6.1,13.2-11.23,10.28-6.53,15.54-3.08,21.5-8.95,5.29-5.22,8.55-14.94,4.68-21.31-4.04-6.66-14.05-6.68-17.79-6.68-5.48-.01-10.02,1.36-20.89,6.74-16.79,8.31-34.12,16.88-32.85,24.26.18,1.04.92,2.1,2.4,4.23Z"/>
    <path class="cls-13" d="m82.01,238.36c.64.97-5.59,4.36-8.33,10.79-1.46,3.43-.31,3.94-1.33,9.15-.3,1.56-3.26,15.82-12.27,18.63-1.38.43-1.24.08-4.88.44-7.45.75-12.31,2.67-15.25,3.53-8.03,2.37-19.57,2.13-28.31-3.04-5.64-3.34-12.48-10.14-10.93-14.31,2.19-5.87,18.96-.99,23.86-8.89,2.6-4.19.77-10.2-1.72-15.34,2.75-16.46,4.23-20.68,5.08-20.61.42.04.51,1.12,1.75,2.27,1.57,1.45,3.53,1.67,4.27,1.77,4.6.64,17.41,4.6,25.13,8.11,4.75,2.16,9.6,4.09,14.32,6.32,1.05.5,2.71,1.3,4.98,1.37,2.22.07,3.34-.61,3.62-.19Z"/>
    <path class="cls-13" d="m124.38,246.46c-1.71,2.49,4.79,8.3,12.47,19.49,9.94,14.47,8.47,18.44,13.83,21.06,5.62,2.75,10.96.2,32.36-9.52,31.53-14.32,36.46-16.28,36.66-20.83.31-6.97-10.68-15.56-20.63-15.79-10.5-.24-18.49,8.86-21.84,5.88-1.41-1.25-.21-3.05-1.19-8.65-.72-4.14-2.83-11.46-5.7-11.68-1.95-.15-2.39,3.1-6.15,7.23-4.56,5.01-10.07,7-16.22,9.21-3.04,1.1-7.12,2.57-12.73,3.04-6.99.58-9.82-.94-10.86.58Z"/>
    <path class="cls-3" d="m80.61,189.04c-.39,0-.64-.14-.74-.2-.23-.14-.54-.33-.6-.71-.11-.66.59-1.57,1.2-1.98.21-.14.53-.36.88-.3.8.13,1.33,1.6.93,2.44-.38.79-1.46.77-1.66.77Z"/>
    <path class="cls-7" d="m118.97,50.19c-.85,2.63-3.26,7.1-6.43,7.15-4.43.07-10.25-8.51-7.31-14.5,1.94-3.96,7.65-6.68,11.38-4.6,3.98,2.22,3.44,8.62,2.36,11.95Z"/>
    <path class="cls-7" d="m118.92,64.37c-.31.88-1.28,2.33-2.8,2.23-2.12-.15-5.24-3.35-4.07-5.32.77-1.3,3.4-2.01,5.27-1.15,1.99.93,1.99,3.12,1.6,4.24Z"/>
    <path class="cls-9" d="m153.98,177.89c.36-2.14-1.55-4.3-5.36-8.61-3.56-4.03-5.35-6.05-7.63-6.86-6.92-2.46-10.6,5.9-24.11,7.63-4.84.62-8.66.1-9.51,2.14-.82,1.96,2.27,3.48,3.4,9.26.36,1.85.93,5.01-.47,8.2-.77,1.75-1.53,2.15-1.31,2.61.76,1.63,10.67-2.16,24.91-6.22,13.58-3.88,19.51-4.7,20.09-8.15Z"/>
    <path class="cls-12" d="m84.14,189.58c.41,2.08-.07,2.74-.21,2.92-.57.71-1.53.78-3.22.9-1.86.13-2.8.2-3.47-.36-1.39-1.16-.71-3.86-.59-4.33.54-2.15,2.37-5,4.29-4.77,2.15.26,2.93,4.23,3.2,5.64Z"/>
    <path class="cls-11" d="m72.32,189.3c.07,1.8.11,2.7-.36,3.47-.85,1.39-2.87,2.34-4.63,1.7-.25-.09-1.41-.55-1.91-1.71-.53-1.26.1-2.5,1.37-4.98.89-1.74,1.45-2.2,1.87-2.46.28-.18,1.56-.97,2.52-.5.98.49,1.05,2.06,1.15,4.48Z"/>
    <path class="cls-12" d="m132.99,182.81c-.92,2.06-3.2,3.47-5.36,3.28-.33-.03-1.87-.16-2.89-1.39-1.03-1.25-.85-2.81-.74-3.77.08-.66.27-2.35,1.62-3.72,1.13-1.14,3.28-2.3,5.18-1.55,2.44.96,3.34,4.59,2.19,7.15Z"/>
    <path class="cls-11" d="m143.91,179.87c-.4,1.96-2.85,3.86-5.09,3.36-2.58-.57-3.39-4-3.05-6.19.41-2.64,2.73-5.1,4.29-4.77.66.14,1.16,1.09,2.16,2.97,1.27,2.42,1.9,3.63,1.7,4.63Z"/>
    <path class="cls-13" d="m190.73,199.91c-4,9.75-26.25,8.28-28.99,8.07-5.36-11.43-10.7-23.01-16.01-34.74-2.36-5.22-4.69-10.42-7-15.61.14-1.48.53-3.69,1.67-6.08.79-1.63,2.36-4.25,6.86-7.63,2.86-2.15,8.03-5.45,15.76-7.55,6.01,11.1,11.04,19.72,14.42,25.38,2.85,4.78,9.42,15.64,13.05,30.36.82,3.33,1.16,5.52.23,7.8Z"/>
    <ellipse class="cls-8" cx="102.31" cy="182.99" rx="2.58" ry="2.01" transform="translate(-101.27 233.04) rotate(-74.6)"/>
    <path class="cls-13" d="m124.9,61.04c2.61,6.84,11.2,9.07,12.3,9.33,7.89,1.93,16.91-1.14,21.19-7.84,7.11-11.12-1.66-27.78-10.84-29.75-11.27-2.42-27.17,16.44-22.65,28.26Z"/>
    <path class="cls-9" d="m136.39,51.71c-.46,1.34-2.79,8.18.42,11.42,4,4.03,16.04,1.88,19.48-5.94,2.98-6.77-1.17-16.22-6.82-17.34-5.62-1.12-11.18,6.28-13.08,11.86Z"/>
    <path class="cls-8" d="m181.42,182.95c1.16,7.46-1.15,17.66-6.23,18.77-5.09,1.11-11.18-7.27-13.41-13.54-.8-2.26-1.98-5.7-.89-9.77,1.32-4.93,5.83-10.34,10.59-10.05,6,.37,9.17,9.61,9.94,14.6Z"/>
    <path class="cls-5" d="m34.02,281.94c3.35-.22,3.79-.88,11.47-2.79,6.08-1.51,9.12-2.26,11.32-2.23.36,0,1.56.04,3.07-.34,0,0,1.38-.35,2.67-1.05,2.28-1.24,3.89-3.41,4.99-5.17,1.66-2.65,3.6-6.65,4.61-12.41.82-4.66-.06-4.24.72-6.94,2.05-7.03,8.21-10.45,7.37-11.65-.38-.54-1.88-.21-2.72.14-1.41.61-2.16,1.83-2.42,2.31-2.58,4.72-7.36,18.09-11.98,24.06-3.71,4.79-8.7,6.61-12.29,7.92-13.94,5.08-27.83-.83-31.73-2.49-8.73-3.72-16.31-9.81-18.03-7.94-.22.24-.25.53-.3,1.11-.37,3.94,3.66,7.38,6.51,9.82.21.18,2.24,1.9,4.72,3.38.22.13.83.47,2.06,1.16,1.91,1.07,2.2,1.21,2.61,1.31.16.04.79.19,1.66.46.14.04.24.08.26.08.66.2,1.9.48,5.42.89,1.68.2,2.52.29,3.47.36,0,0,3.31.23,6.54.02Z"/>
    <path class="cls-5" d="m153.78,136.5c-.45,1.07-.22,2.19.03,2.93,1.33-.58,3.06-1.32,5.1-2.11,1.31-.51,3.76-1.45,6.59-2.35,2.1-.66,5.64-1.45,12.73-3.04,4.59-1.03,5.4-1.15,6.29-1.24,1.34-.14,2.48-.18,4.33-.59,1.09-.24,1.41-.39,3.22-.9,1.94-.54,2.14-.54,4.48-1.15,0,0,1.67-.43,5.89-1.95,0,0,1.98-.71,2.27-1.75l.15-.55c.29-1.02.3-1.11.3-1.11.12-.74-.15-1.76-.65-1.96-.77-.32-2.1,1.27-2.35,1.55-2.69,3.08-10.26,4.91-15.22,6.1-4.79,1.16-17.03,3.72-26.97,5.06-1.48.2-5.19.68-6.19,3.05Z"/>
    <path class="cls-5" d="m38.55,161.86c-.07.02-.32-.88-1.2-2.12-.57-.8-1.1-1.32-1.35-1.56-2.63-2.58-3.35-3.95-6.92-7.26-.02-.02-.97-.87-2.86-2.57-2.81-2.52-2.76-2.48-2.86-2.57-3.1-2.85-5.9-5.41-5.42-6.25.18-.3.75-.3,1.26-.25,9.51,1,15.21,9.54,15.21,9.54,4.16,6.23,4.34,12.98,4.14,13.04Z"/>
    <path class="cls-5" d="m181.44,277.94c-5.86,2.52-9.65,4.27-12.23,5.55-.98.49-3.1,1.56-6.04,2.5-1.08.35-1.96.57-3.22.9-2.6.67-3.93,1.01-5.03.99-2.34-.03-4.02-.99-4.42-1.22-.29-.16-1.67-.98-2.86-2.57-.45-.6-.49-.8-1.6-2.82-.92-1.68-1.07-1.86-1.6-2.82-1.25-2.27-1.36-2.99-2.25-4.78-.6-1.21-.68-1.15-3.76-5.79-2.31-3.49-2.26-3.52-3.36-5.09-1.58-2.27-2.44-3.24-3.91-5.24-4.14-5.64-6.21-8.46-5.91-8.77.69-.71,10.35,4.71,16.76,14.73,5.19,8.11,3.71,12.12,7.55,15.76,3.95,3.73,12.32,5.94,31.89-1.33Z"/>
    <path class="cls-1" d="m109.14,188.44c1.02,1.04-.91,5.24-3.79,7.28-.73.52-1.58,1.12-2.67,1.05-1.81-.11-3.28-1.99-3.72-1.62-.12.1-.03.26-.15.55-.25.58-1.11.74-1.41.8-2.2.41-9.77-.53-11.11-.68-1.42-.16-2.71-.2-5.28-.26-3.32-.09-5.85,0-8.35.08-3.41.11-5.12.17-7.24.38-1.62.16-3.26.2-4.88.44-1.54.22-2.72.48-4.17.04-.74-.23-1.52-.48-2.06-1.16-1.19-1.53.55-3.04-.14-5.99-.42-1.83-1.31-2.17-1.7-4.63-.09-.58-.35-2.21.06-2.36.78-.3,2.41,5.09,6.06,8.21,2.43,2.07,4.89,2.41,14.68,2.85,20.93.95,23.86.07,25.75-.64,5.87-2.19,9.07-5.41,10.12-4.35Z"/>
    <path class="cls-5" d="m151.4,143.01c-1.35,1.31-2.12,1.8-3.13,2.68-.13.11-1.9,1.65-3.43,3.81-1.53,2.17-2.81,3.98-2.93,6.33-.06,1.17.61,2.76,1.95,5.89,1.7,3.98,2.18,4.47,3.3,7.45.22.6.52,1.42.83,2.44.26.87.54,1.79.72,2.75.44,2.4.16,4.71-.11,4.73-.19.01-.22-1.02-1.05-2.67-.39-.77-.44-.66-.8-1.41-.54-1.12-.53-1.57-1.05-2.67-.29-.61-.48-.87-.8-1.41-.73-1.24-.8-1.68-1.85-4.08-1.36-3.12-1.42-2.72-1.85-4.08-.16-.49-.44-1.45-1.05-2.67-.39-.77-.72-1.28-.8-1.41-.25-.42-.94-4.3,2.59-9.4,4.3-6.23,11.21-8.97,11.51-8.55.13.18-.81,1.08-2.04,2.27Z"/>
    <path class="cls-5" d="m131.89,100.86c1.38-.63,2.44-1.29,2.67-1.44,0,0,.8-.51,1.54-1.06,2.48-1.87,5.74-7.46,5.63-7.52-.11-.06-2.28,6.99-9.24,13.01-3.26,2.82-6.26,4.29-9.8,6.01-4.27,2.09-9.15,3.84-15.15,5.34-11.45,2.87-22.47,2.95-22.59,2.11-.11-.75,8.38-1.6,23.8-6.53,12.45-5.27,21.51-9.18,23.15-9.93Z"/>
    <path class="cls-5" d="m39.05,82.3c-2.62.86-7.86,2.25-10.18,6.71-1.86,3.6-1.31,8.23-2.28,8.29-.6.04-1.68-1.65-2.16-2.97-.2-.56-.3-1.08-.8-1.41-.64-.42-1.33-.13-1.6-.53-.25-.37.09-1,.23-1.26,1.85-3.31,5.31-6.04,5.31-6.04,2.6-2.05,3.9-3.08,4.54-3.51,2.68-1.84,4.88-2.99,9.17-5.21,5.46-2.83,8.18-4.24,9.01-4.65,3-1.51,6.96-3.46,11.68-5.7-9.4,10.24-17.25,14.42-22.92,16.29Z"/>
    <path class="cls-5" d="m229.89,84c-.92,1.54-17.48-12.28-30.6-7.01-5.78,2.32-9.54,7.8-10.42,7.03-.64-.55.79-3.86,3.13-6.21,4.38-4.42,10.8-4.33,15.32-4.27,8.66.12,14.49,3.55,15.78,4.35,3.3,2.03,7.25,5.36,6.8,6.12Z"/>
    <path class="cls-4" d="m165.31,182.76c1.09,3.58,2.21,6.24,2.49,6.91,2.57,6.08,4.12,8.09,3.8,8.32-.54.39-6.6-4.14-8.48-11.21-1.84-6.91,1.01-13.63,1.16-13.61.07.01-.32,1.57-.14,4.09.1,1.44.36,2.84,1.17,5.5Z"/>
    <path class="cls-4" d="m176.79,186.3c-.83-3.65-1.74-6.39-1.97-7.07-2.11-6.25-3.52-8.37-3.18-8.58.57-.35,6.28,4.61,7.63,11.8,1.33,7.03-2,13.52-2.15,13.48-.07-.02.43-1.55.44-4.07,0-1.44-.15-2.86-.77-5.57Z"/>
    <path class="cls-3" d="m68.31,192.84c-.39,0-.64-.14-.74-.2-.23-.14-.54-.33-.6-.71-.11-.66.59-1.57,1.2-1.98.21-.14.53-.36.88-.3.8.13,1.33,1.6.93,2.44-.38.79-1.46.77-1.66.77Z"/>
    <path class="cls-3" d="m139.19,181.8c-.39,0-.64-.14-.74-.2-.23-.14-.54-.33-.6-.71-.11-.66.59-1.57,1.2-1.98.21-.14.53-.36.88-.3.8.13,1.33,1.6.93,2.44-.38.79-1.46.77-1.66.77Z"/>
    <path class="cls-6" d="m79.25,192.19c-.39,0-.64-.14-.74-.2-.23-.14-.54-.33-.6-.71-.11-.66.59-1.57,1.2-1.98.21-.14.53-.36.88-.3.8.13,1.33,1.6.93,2.44-.38.79-1.46.77-1.66.77Z"/>
    <path class="cls-6" d="m128.51,184.12c-.39,0-.64-.14-.74-.2-.23-.14-.54-.33-.6-.71-.11-.66.59-1.57,1.2-1.98.21-.14.53-.36.88-.3.8.13,1.33,1.6.93,2.44-.38.79-1.46.77-1.66.77Z"/>
    <path class="cls-2" d="m113.9,131.05c.08,0,.05.93.53,2.37.31.93.67,1.58.84,1.89,1.77,3.23,2.06,4.76,4.51,8.96.01.02.67,1.11,1.99,3.29,1.95,3.23,1.92,3.17,1.99,3.29,2.14,3.63,4.08,6.9,3.36,7.55-.26.24-.81.07-1.28-.13-8.81-3.72-11.78-13.55-11.78-13.55-2.17-7.17-.38-13.68-.17-13.68Z"/>
    <text/>
    <path class="cls-2" d="m68.89,134.43c-1.09,2.52-3.44,8.97-1.27,16.24,1.34,4.47,3.85,7.46,5.51,9.39,5.11,5.95,10.59,7.99,10.51,8.14-.13.23-14.83-2.97-20.18-14.23-5.29-11.12.52-25.96,2.94-25.88.73.02,1.6,1.41,2.5,6.35Z"/>
    <path class="cls-9" d="m110.81,185.62c-.56,5.6-4.75,11.69-8.48,11.34-3.98-.37-6.89-8.05-6.2-14.2.55-4.89,3.62-11.06,7.22-11.1,3.99-.04,8.11,7.42,7.46,13.95Z"/>
    <path class="cls-9" d="m96.64,178.75c-1.18-1.32-4.1-.03-7.95.78-3.81.81-4.48.31-13.78.37-13.16.09-22.04.21-22.89,3.21-.39,1.38,1.28,2.05,1.95,5.89.61,3.54-.52,4.62.14,5.99,1.61,3.34,10.34.87,21.82.66,13.53-.25,21.97,2.79,23.23-.14.91-2.11-3.24-4.19-3.24-9.81,0-3.73,1.82-5.7.72-6.94Z"/>
    <path class="cls-2" d="m117.53,235.65c-1.91-1.97-6.98-6.61-14.52-7.37-2.78-.28-6.94-.73-10.78,1.51-2.2,1.28-3.55,3.01-7.61,5.06-1.48.75-3.71,1.87-3.92,1.55-.5-.75,8.49-12.58,20.86-13.22,12.3-.64,23.79,10.39,22.8,12.59-.3.66-1.91.94-6.82-.11Z"/>
    <path class="cls-2" d="m142.04,227.38c-.09-6.7-1.33-11.88-2.53-15.5-2.49-7.51-6.76-14.24-4.5-19.63.37-.87.69-1.2,1.02-1.23,1.51-.12,2.65,6.05,5.88,17.27,2.86,9.95,4.16,12.74,3.54,17.95-.45,3.79-1.8,7.98-2.55,7.9-.68-.08-.84-3.61-.86-6.76Z"/>
    <path class="cls-2" d="m43.45,216.54c3.66-2.12,5.09-3.4,5.91-4.22.71-.71,1.2-1.31,2.13-2.52,3.17-4.12,5.54-8.96,8.76-9.64.52-.11.76-.05.85.13.42.81-2.4,3.68-7.26,9.56-4.78,5.78-5.4,7.21-8.14,8.49-3.41,1.6-7.14,1.55-7.28,1.05-.09-.33,1.44-.78,5.03-2.86Z"/>
    <path class="cls-2" d="m100.96,177.21c-1.44.77-2.08,2.37-2.4,3.58-.51-3.12,1.11-5.73,3.13-6.21,2.53-.6,5.14,2.26,4.9,2.76-.24.5-3.23-1.41-5.62-.13Z"/>
    <path class="cls-2" d="m18.97,105.12c-1.79,5.34-3.09,6.19-2.9,8.96.16,2.31,1.16,3.18.57,5.21-.45,1.55-1.65,3.11-2.38,2.93-1.36-.33-.87-6.58-.82-7.3.25-3.18.94-5.57,1.2-6.45,2.14-7.04,6.3-12.83,6.86-12.54.18.09.1.86-1.09,3.94-.27,1.24-.72,3.08-1.45,5.26Z"/>
    <path class="cls-2" d="m21.57,260.02c2.41-.97,5.52-2.23,7.07-5.13,3.18-5.94-2.73-14.02-1.64-14.6.73-.39,3.85,2.91,5.13,7.07.14.47,2.04,6.92-1.11,10.13-.02.02-.06.06-.14.14,0,0-2.38,2.33-5.14,4.08-3.33,2.1-6.2,3.91-9.92,3.79-4.06-.13-7.75-2.54-7.53-3.49.27-1.17,6.17.87,13.28-2Z"/>
    <path class="cls-2" d="m173.56,241.82c-.03-2.24-.44-3.97-.84-5.18-.83-2.51-2.26-4.76-1.5-6.56.12-.29.23-.4.34-.41.51-.04.89,2.02,1.96,5.77.96,3.32,1.39,4.25,1.18,6-.15,1.27-.6,2.67-.85,2.64-.23-.03-.28-1.21-.29-2.26Z"/>
    <path class="cls-2" d="m181.91,203.36c3.24-3.01,3.89-2.51,4.88-3.93,1.63-2.35.83-5.1,2.35-5.61.14-.05.35-.11.53-.02.91.49.5,4.79-1.93,7.3-.53.55-1.95,1.32-4.79,2.86-2,1.08-2.46,1.22-2.54,1.11-.14-.19.87-1.13,1.5-1.71Z"/>
    <path class="cls-2" d="m165.97,146.62c-1.59-1.35-1.37-2.63-2.96-4.65-.96-1.22-1.44-1.83-2.27-2.04-2.41-.6-5.06,2.78-5.82,2.11-.16-.14-.15-.37-.15-.51.02-1.33,2.95-2.21,3.34-2.33,1.51-.45,2.98-.89,4.31-.23,1.93.97,1.18,3.09,3.87,6.49.91,1.15,1.86,2,1.72,2.18-.14.17-1.19-.3-2.04-1.02Z"/>
    <path class="cls-2" d="m141.48,45.5c-.27.8-.52,1.68-.72,2.63-.57,2.65-.63,5.03-.5,6.94.4,1.76,1.2,3.68,2.86,5.03,2.81,2.3,6.58,1.71,6.57,1.81,0,.16-9.14,2.25-12.2-1.94-2.27-3.12-.81-9.21,3.98-14.46Z"/>
    <path class="cls-2" d="m154.38,54.62c-.12-.65-.29-1.35-.51-2.08-.63-2.04-1.51-3.7-2.33-4.95-.95-1.05-2.24-2.06-3.9-2.35-2.82-.49-5.17,1.36-5.21,1.29-.06-.11,5.41-5.06,9.12-3.36,2.76,1.27,4.1,6.02,2.83,11.46Z"/>
    <path class="cls-2" d="m88.24,83.31c.7-1.27,2.28-4.55,1.52-8.48-.47-2.42-1.63-4.11-2.4-5.21-2.37-3.38-5.14-4.72-5.09-4.8.08-.12,7.63,2.29,9.85,8.48,2.19,6.11-1.63,13.63-2.9,13.47-.38-.05-.76-.82-.98-3.46Z"/>
    <path class="cls-2" d="m126.63,99.41c5.59-3.24,5.17-2.61,6.71-3.81,6.49-5.06,8.99-12.44,9.6-14.33,1.35-4.15,1.63-7.93,2.17-7.89.46.04.58,2.71.59,2.99.28,6.22-3.31,14.18-9.74,19.95-2.49,2.24-6.69,4.35-15.09,8.57-1.23.62-6.14,2.88-6.35,2.5-.26-.47,6.86-4.94,12.1-7.98Z"/>
    <path class="cls-2" d="m155.96,246.36c8.71-4.17,13.4-12.38,12.85-12.93-.47-.47-4.57,4.83-13.17,9.19-9.89,5.01-17.9,4.79-17.82,5.56.09.81,9.39,2.37,18.14-1.81Z"/>
    <path class="cls-2" d="m170.92,87.56c-5.06,2.26-8.64,4.5-15.09,8.57-5.97,3.77-8.96,5.66-8.75,6.08.4.8,10.92-3.24,20.71-8.44,7.02-3.73,15.77-9.18,15.3-10.13-.41-.82-7.62,1.88-12.18,3.92Z"/>
    <path class="cls-2" d="m183.33,105.89c4.02,10.06,15,15.06,15.25,14.75.13-.15-2.17-1.76-5.49-5.75-.51-.61-3.92-4.75-6.01-8.84-4.73-9.27-2.68-18.34-3.29-18.37-.62-.03-4.05,9.25-.47,18.22Z"/>
    <path class="cls-2" d="m69.6,90.77c-3.56,1.49-5.72,3.72-7.07,5.13-3.96,4.15-6.18,9.33-5.53,9.79.63.45,3.56-3.84,11.15-9.66,3.18-2.44,5.47-3.83,8.38-4.76,3.55-1.13,5.99-.92,5.98-1.18,0-.42-6.49-2.01-12.92.69Z"/>
    <path class="cls-2" d="m27.58,104.66c.53-.52,3.93,4.64,9.79,5.53,2.23.34,3.25-.17,6.94.5.29.05,2.24.42,4.66,1.34,1.44.55,3.42,1.3,3.33,1.76-.11.55-3.19.4-6.09.25-4.31-.23-6.46-.34-8.25-.86-1.57-.45-5.47-1.64-8.48-5.16-1.1-1.29-2.22-3.05-1.91-3.35Z"/>
    <path class="cls-2" d="m113.06,191.06s.2-.51.29-1.4c.06-.57.03-1.01.01-1.21-.16-2.16.06-3.04-.22-5.88,0-.01-.09-.76-.26-2.24-.25-2.2-.25-2.16-.26-2.24-.26-2.46-.49-4.68.05-4.85.2-.06.45.16.65.38,3.8,4.13,2.98,10.11,2.98,10.11-.59,4.36-3.13,7.39-3.24,7.34Z"/>
  </g>
</svg>